<?xml version="1.0" standalone="no"?>
<!DOCTYPE svg PUBLIC "-//W3C//DTD SVG 1.1//EN" "http://www.w3.org/Graphics/SVG/1.1/DTD/svg11.dtd" >
<svg>
<metadata>
Created by FontForge 20090914 at Wed Sep 19 10:38:28 2012
 By www-data
Copyright (c) 2009 by vernon adams. All rights reserved.&#235;&#163;&#128;&#222;&#140;&#229;&#136;&#141;&#230;&#133;&#165;&#230;&#141;&#129;&#230;&#185;&#175;
</metadata>
<defs>
<font id="Coda-Heavy" horiz-adv-x="1478" >
  <font-face 
    font-family="Coda礀"
    font-weight="900"
    font-stretch="ultra-condensed"
    units-per-em="2048"
    panose-1="2 0 5 5 2 0 0 2 0 4"
    ascent="1638"
    descent="-410"
    x-height="1300"
    cap-height="1595"
    bbox="-255.003 -737.999 2828 2375"
    underline-thickness="102"
    underline-position="-103"
    unicode-range="U+0020-U+2122"
  />
<missing-glyph horiz-adv-x="226" 
 />
    <glyph glyph-name=".notdef" horiz-adv-x="226" 
 />
    <glyph glyph-name="space" unicode=" " horiz-adv-x="380" 
 />
    <glyph glyph-name="exclam" unicode="!" horiz-adv-x="722" 
d="M314 607c-14.667 62.667 -39.668 156.5 -75.001 281.5s-63.666 232.333 -84.999 322s-32 157.167 -32 202.5c0 69.333 24.667 123 74 161s108.333 57 177 57c70 0 130.833 -19.5 182.5 -58.5s77.5 -92.833 77.5 -161.5c0 -46.667 -11.333 -115.334 -34 -206.001
s-52 -197.167 -88 -319.5s-61.333 -215.166 -76 -278.499c-5.33301 -22 -13.5 -38.833 -24.5 -50.5s-22.833 -17.5 -35.5 -17.5c-13.333 0 -25.5 5.83301 -36.5 17.5s-19.167 28.5 -24.5 50.5zM170.999 171c0 66 20.167 117.5 60.5 154.5s88.166 55.5 143.499 55.5
s103.166 -18.5 143.499 -55.5s60.5 -88.5 60.5 -154.5s-20.167 -117.5 -60.5 -154.5s-88.166 -55.5 -143.499 -55.5s-103.166 18.5 -143.499 55.5s-60.5 88.5 -60.5 154.5z" />
    <glyph glyph-name="quotedbl" unicode="&#x22;" horiz-adv-x="1213" 
d="M280 896c-10.667 45.333 -28.168 111.167 -52.501 197.5s-43.833 160.333 -58.5 222s-22 107.834 -22 138.501c0 56 18.333 99.167 55 129.5s80.334 45.5 131.001 45.5c52 0 97.5 -15.833 136.5 -47.5s58.5 -74.834 58.5 -129.501c0 -32 -7.83301 -79 -23.5 -141
s-36 -135.333 -61 -220s-42.833 -149.667 -53.5 -195c-4 -18.667 -11.333 -33.167 -22 -43.5s-21.667 -15.5 -33 -15.5s-22 5 -32 15s-17.667 24.667 -23 44zM776.999 896.001c-10.667 45.333 -28.168 111.167 -52.501 197.5s-43.833 160.333 -58.5 222
s-22 107.834 -22 138.501c0 56 18.333 99.167 55 129.5s80.334 45.5 131.001 45.5c52 0 97.5 -15.833 136.5 -47.5s58.5 -74.834 58.5 -129.501c0 -32 -7.83301 -79 -23.5 -141s-36 -135.333 -61 -220s-42.833 -149.667 -53.5 -195c-4 -18.667 -11.167 -33.167 -21.5 -43.5
s-21.5 -15.5 -33.5 -15.5c-11.333 0 -22 5 -32 15s-17.667 24.667 -23 44z" />
    <glyph glyph-name="numbersign" unicode="#" horiz-adv-x="1718" 
d="M1567 430h-165l-60 -430h-501l61 429h-197l-60 -429h-502l61 429h-134l26 192h138l51 372h-148l29 207h153l54 395h499l-53 -395h197l55 395h498l-53 -395h148l-30 -206h-151l-52 -373h163zM734 621h197l52 372h-197z" />
    <glyph glyph-name="dollar" unicode="$" horiz-adv-x="1434" 
d="M685 -168l-0.00195312 190.003c-166.667 1.33301 -294.667 17.666 -384 48.999c-76.667 27.333 -130.667 72.5 -162 135.5s-44 154.833 -38 275.5l499 -32v-167h85v303l-99 19c-26.667 5.33301 -58.667 12.666 -96 21.999s-69 18.833 -95 28.5s-54.833 22 -86.5 37
s-58.167 30.833 -79.5 47.5s-42.833 36.667 -64.5 60s-38.834 48.333 -51.501 75s-23 57.5 -31 92.5s-12 72.5 -12 112.5c0 74.667 10.5 139.5 31.5 194.5s49 99.167 84 132.5s79.667 60.333 134 81s110 34.834 167 42.501s123.167 12.167 198.5 13.5v186h79v-185
c162 -1.33301 289 -16.333 381 -45c48 -16 87 -37.5 117 -64.5s50.833 -57.833 62.5 -92.5s19.334 -73.5 23.001 -116.5s3.16699 -87.833 -1.5 -134.5l-499 30v161h-83v-286c52.667 -10 94.334 -18.5 125.001 -25.5s70.5 -17.5 119.5 -31.5s88.333 -28.5 118 -43.5
s62.334 -34.833 98.001 -59.5s63.334 -51.834 83.001 -81.501s36.334 -65.334 50.001 -107.001s20.5 -87.834 20.5 -138.501c0 -76.667 -9.33301 -143 -28 -199s-44.334 -102 -77.001 -138s-75.334 -65 -128.001 -87s-109.167 -37.667 -169.5 -47
s-130.833 -14.666 -211.5 -15.999v-191h-79zM846.998 556.003l-83 16v-289h83v273zM599.998 1031c2 -0.666992 13.667 -3.33301 35 -8l50 -11v271h-85v-252z" />
    <glyph glyph-name="percent" unicode="%" horiz-adv-x="2792" 
d="M623 1378h-91v-545h91v545zM575 618c-31.333 0 -56.499 0.167969 -75.499 0.500977s-43 1.5 -72 3.5s-52.5 4.83301 -70.5 8.5s-38.833 9.16699 -62.5 16.5s-42.667 16 -57 26s-29.5 22.833 -45.5 38.5s-28.333 33.5 -37 53.5s-15.834 43.667 -21.501 71
s-8.5 57.666 -8.5 90.999v359c0 35.333 3.16699 67.5 9.5 96.5s16.166 53.833 29.499 74.5s28 38.834 44 54.501s35.667 28.334 59 38.001s45.666 17.667 66.999 24s46.833 11 76.5 14s56.334 5 80.001 6s51.5 1.5 83.5 1.5s59.667 -0.5 83 -1.5s50 -2.83301 80 -5.5
s55.833 -7.16699 77.5 -13.5s44.167 -14.333 67.5 -24s43 -22.334 59 -38.001s30.667 -33.667 44 -54s23.333 -45 30 -74s10 -61.167 10 -96.5v-359c0 -41.333 -4.66699 -78.333 -14 -111s-21.166 -59.834 -35.499 -81.501s-33.833 -40.167 -58.5 -55.5
s-48.167 -27 -70.5 -35s-50.833 -14.167 -85.5 -18.5s-64.667 -7 -90 -8s-57.333 -1.5 -96 -1.5zM2262 892.001h-90v-545h90v545zM2215 129.001c-38 0 -70.166 0.505859 -96.499 1.50586s-56.5 3.83301 -90.5 8.5s-62.5 11.167 -85.5 19.5s-46.5 20.333 -70.5 36
s-43.167 34.167 -57.5 55.5s-26.166 48.166 -35.499 80.499s-14 69.166 -14 110.499v357c0 40.667 4.66699 77.167 14 109.5s21.166 59.166 35.499 80.499s33.5 39.666 57.5 54.999s47.5 27.166 70.5 35.499s51.333 14.833 85 19.5s63.834 7.66699 90.5 9
c26.667 1.33301 58.667 2 96 2s69.166 -0.5 95.499 -1.5s56.5 -3.83301 90.5 -8.5s62.667 -11.167 86 -19.5s47 -20.166 71 -35.499s43.333 -33.833 58 -55.5s26.667 -48.5 36 -80.5s14 -68.333 14 -109v-357c0 -40 -4.66699 -76 -14 -108s-21.333 -58.833 -36 -80.5
s-34 -40.334 -58 -56.001s-47.833 -27.834 -71.5 -36.501s-52 -15.5 -85 -20.5s-63.167 -8.16699 -90.5 -9.5s-59 -2 -95 -2zM1779 1632.01l-376 -1671h-388l380 1671h384z" />
    <glyph glyph-name="ampersand" unicode="&#x26;" horiz-adv-x="1653" 
d="M896 224v512h-209v-512h209zM359 861l-112 12.002c-18.667 2 -36.834 9 -54.501 21s-35 29.833 -52 53.5s-30.667 57.167 -41 100.5s-15.5 93.333 -15.5 150c0 55.333 7.5 105 22.5 149s34.5 80.833 58.5 110.5s55 55.5 93 77.5s76.333 39 115 51s84.167 21.667 136.5 29
s100.5 12 144.5 14s94.667 3 152 3c212.667 0 371.834 -31 477.501 -93s158.5 -162.333 158.5 -301c0 -19.333 -1.33301 -37.333 -4 -54h-545v208h-206v-463h209v139h546v-139h151v-193h-151v-223c0 -75.333 -4 -139.833 -12 -193.5s-22.167 -101.834 -42.5 -144.501
s-46.5 -77 -78.5 -103s-73.833 -47.833 -125.5 -65.5s-110.834 -29.834 -177.501 -36.501s-146.667 -10 -240 -10c-63.333 0 -118.666 1.5 -165.999 4.5s-95.833 8.66699 -145.5 17s-92.167 20 -127.5 35s-69 34.833 -101 59.5s-57.833 54.334 -77.5 89.001
s-35.167 76.334 -46.5 125.001s-17 104 -17 166c0 31.333 2.83301 65.166 8.5 101.499s14.5 73.333 26.5 111s29 69.667 51 96s47.333 41.166 76 44.499l112 13v39z" />
    <glyph glyph-name="quotesingle" unicode="'" horiz-adv-x="629" 
d="M280 896c-10.667 45.333 -28.168 111.167 -52.501 197.5s-43.833 160.333 -58.5 222s-22 107.834 -22 138.501c0 56 18.333 99.167 55 129.5s80.334 45.5 131.001 45.5c52 0 97.5 -15.833 136.5 -47.5s58.5 -74.834 58.5 -129.501c0 -32 -7.83301 -79 -23.5 -141
s-36 -135.333 -61 -220s-42.833 -149.667 -53.5 -195c-4 -18.667 -11.333 -33.167 -22 -43.5s-21.667 -15.5 -33 -15.5s-22 5 -32 15s-17.667 24.667 -23 44z" />
    <glyph glyph-name="parenleft" unicode="(" horiz-adv-x="860" 
d="M51 827c0 102 8 201.333 24 298s41 188.5 75 275.5s75.167 163 123.5 228s107.166 116.667 176.499 155s145.333 57.5 228 57.5h93v-279h-65c-51.333 0 -96.666 -36.5 -135.999 -109.5s-68.666 -164.667 -87.999 -275s-29 -227.166 -29 -350.499
s9.66699 -238.666 29 -345.999s48.666 -196 87.999 -266s84.666 -105 135.999 -105h65v-279h-93c-82.667 0 -158.667 18.5 -228 55.5s-128.166 87.167 -176.499 150.5s-89.5 137.666 -123.5 222.999s-59 175.666 -75 270.999s-24 194 -24 296z" />
    <glyph glyph-name="parenright" unicode=")" horiz-adv-x="861" 
d="M810 827c0 -102 -8 -200.667 -24 -296s-41 -185.666 -75 -270.999s-75.167 -159.666 -123.5 -222.999s-107.166 -113.5 -176.499 -150.5s-145.333 -55.5 -228 -55.5h-93v279h65c51.333 0 96.666 35 135.999 105s68.666 158.667 87.999 266s29 222.666 29 345.999
s-9.66699 240.166 -29 350.499s-48.666 202 -87.999 275s-84.666 109.5 -135.999 109.5h-65v279h93c82.667 0 158.667 -19.167 228 -57.5s128.166 -90 176.499 -155s89.5 -141 123.5 -228s59 -178.833 75 -275.5s24 -196 24 -298z" />
    <glyph glyph-name="asterisk" unicode="*" horiz-adv-x="1321" 
d="M775 489c-6.66699 11.333 -13.6631 25.834 -20.9961 43.501s-15.333 40.834 -24 69.501l-21 70c-5.33301 18 -13.5 47.167 -24.5 87.5s-18.167 67.166 -21.5 80.499l-21 -77l-19 -72.5c-4.66699 -18.333 -10.5 -39.5 -17.5 -63.5s-13.333 -43.167 -19 -57.5l-19.5 -47
c-7.33301 -17 -14.833 -30.333 -22.5 -40s-16.334 -19 -26.001 -28s-20.167 -15.333 -31.5 -19s-23.666 -5.5 -36.999 -5.5c-41.333 0 -79.666 15.5 -114.999 46.5s-53 65.833 -53 104.5c0 8.66699 1.33301 17.5 4 26.5s7.33398 18.833 14.001 29.5l19.5 30.5
c6.33301 9.66699 15.666 21.167 27.999 34.5l32 34.5c9 9.66699 21.833 22.5 38.5 38.5l40.5 38.5l46 42.5l46.5 43l-50.5 -14.5l-53 -15l-49 -13l-50 -13c-11.667 -3 -26.167 -6.5 -43.5 -10.5s-31.5 -7 -42.5 -9s-22.333 -3.66699 -34 -5s-21.834 -2 -30.501 -2
c-40 0 -70.833 14.167 -92.5 42.5s-32.5 62.5 -32.5 102.5c0 40.667 11.167 75.834 33.5 105.501s53.166 44.5 92.499 44.5c13.333 0 29.5 -1.5 48.5 -4.5s42.333 -8 70 -15s50.834 -13.167 69.501 -18.5l85 -24.5l79 -22.5l-48 45.5l-46 44.5l-41 40
c-16.667 16 -29.5 29 -38.5 39l-31.5 35c-12 13.333 -21.167 24.833 -27.5 34.5l-19 30c-6.33301 10.333 -10.833 20.166 -13.5 29.499s-4 18 -4 26c0 38.667 17.5 72.667 52.5 102s73.5 44 115.5 44c46 0 80.333 -19 103 -57c7.33301 -12 14.5 -27 21.5 -45
s15 -42.333 24 -73s15.667 -54 20 -70l23.5 -90.5l21 -81.5l21.5 82.5l23.5 88.5c5.33301 20 12.166 44.167 20.499 72.5s16.166 51.833 23.499 70.5s14.666 34 21.999 46c22.667 38 57 57 103 57c41.333 0 79.666 -14.667 114.999 -44s53 -63.333 53 -102
c0 -10.667 -2.16699 -21.834 -6.5 -33.501s-11.833 -25 -22.5 -40s-20.834 -28.5 -30.501 -40.5s-24.334 -27.833 -44.001 -47.5l-48.5 -48.5l-58 -56.5l-60 -57.5l78.5 23c39 11.333 67.667 19.333 86 24l69.5 18c28 7.33301 51.5 12.5 70.5 15.5s35.167 4.5 48.5 4.5
c39.333 0 70.166 -14.833 92.499 -44.5s33.5 -64.834 33.5 -105.501c0 -40 -10.833 -74.167 -32.5 -102.5s-52.834 -42.5 -93.501 -42.5c-13.333 0 -29.166 1.5 -47.499 4.5s-41.666 7.83301 -69.999 14.5s-51.666 12.5 -69.999 17.5l-86 23.5l-79.5 22l46 -43l45.5 -42.5
l41 -39c16.333 -15.667 29.166 -28.5 38.499 -38.5l32 -35c12 -13.333 21.333 -24.666 28 -33.999s13.334 -19.333 20.001 -30s11.334 -20.667 14.001 -30s4 -18 4 -26c0 -39.333 -17.5 -74.333 -52.5 -105s-73.167 -46 -114.5 -46c-44.667 0 -78.667 19.667 -102 59z" />
    <glyph glyph-name="plus" unicode="+" horiz-adv-x="1328" 
d="M469 811v381h392v-381h364v-333h-364v-378h-392v378h-365v333h365z" />
    <glyph glyph-name="comma" unicode="," horiz-adv-x="711" 
d="M141 209c0 62.667 20.168 111.667 60.501 147s88.166 53 143.499 53c68.667 0 120.834 -22.667 156.501 -68s53.5 -102.666 53.5 -171.999c0 -46.667 -7.83301 -93.5 -23.5 -140.5s-37.834 -90.167 -66.501 -129.5s-65.5 -71.333 -110.5 -96s-93.833 -37 -146.5 -37
c-14.667 0 -29.334 1 -44.001 3v109c42 0.666992 77.833 11.834 107.5 33.501s45.834 51.167 48.501 88.5c-50 5.33301 -92.333 26.166 -127 62.499s-52 85.166 -52 146.499z" />
    <glyph glyph-name="hyphen" unicode="-" horiz-adv-x="1328" 
d="M1165 811v-333h-1001v333h1001z" />
    <glyph glyph-name="period" unicode="." horiz-adv-x="670" 
d="M136 171c0 66 20.167 117.5 60.5 154.5s88.166 55.5 143.499 55.5s103.166 -18.5 143.499 -55.5s60.5 -88.5 60.5 -154.5s-20.167 -117.5 -60.5 -154.5s-88.166 -55.5 -143.499 -55.5s-103.166 18.5 -143.499 55.5s-60.5 88.5 -60.5 154.5z" />
    <glyph glyph-name="slash" unicode="/" horiz-adv-x="1056" 
d="M136 0l352 1595h434l-351 -1595h-435z" />
    <glyph glyph-name="zero" unicode="0" horiz-adv-x="1469" 
d="M653 233h166v1126h-166v-1126zM739 -39c-40 0 -75.3398 0.501953 -106.007 1.50195s-65.167 3 -103.5 6s-71.833 7.16699 -100.5 12.5s-59 12.833 -91 22.5s-59.5 21.167 -82.5 34.5s-45.667 30 -68 50s-40.166 42.333 -53.499 67s-24.166 53.667 -32.499 87
s-12.5 70 -12.5 110v890c0 40 4.16699 76.667 12.5 110s19.5 62.5 33.5 87.5s32.167 47.5 54.5 67.5s45 36.667 68 50s50.667 24.833 83 34.5s62.833 17 91.5 22s62 9.16699 100 12.5s72 5.33301 102 6s64.667 1 104 1c52 0 97.5 -0.833008 136.5 -2.5
s82.167 -5.66699 129.5 -12s88 -14.833 122 -25.5s68.167 -25.834 102.5 -45.501s62 -43 83 -70s38.167 -60.5 51.5 -100.5s20 -85 20 -135v-890c0 -41.333 -4.16699 -79 -12.5 -113s-19.166 -63.5 -32.499 -88.5s-31.166 -47.5 -53.499 -67.5s-44.5 -36.5 -66.5 -49.5
s-49.5 -24.167 -82.5 -33.5s-63.167 -16.5 -90.5 -21.5s-60.666 -8.83301 -99.999 -11.5s-73.166 -4.33398 -101.499 -5.00098s-63.166 -1 -104.499 -1z" />
    <glyph glyph-name="one" unicode="1" horiz-adv-x="961" 
d="M41 1511c138.667 0 254.333 28 347 84h478v-1595h-604v1291h-221v220z" />
    <glyph glyph-name="two" unicode="2" horiz-adv-x="1403" 
d="M78 1064c-1.33301 30.667 -2.00098 50.6689 -2.00098 60.002c0 80.667 10.667 151 32 211s50.166 108.833 86.499 146.5s82.333 68 138 91s114.167 38.833 175.5 47.5s131.333 13 210 13c216.667 0 376 -39 478 -117s153 -208.333 153 -391
c0 -47.333 -5.66699 -92.333 -17 -135s-24.166 -79.334 -38.499 -110.001s-36.833 -61.834 -67.5 -93.501s-56 -56.334 -76 -74.001s-51.333 -39 -94 -64s-73.167 -42.167 -91.5 -51.5l-96.5 -47c-2 -1.33301 -3.83301 -2.33301 -5.5 -3s-3.16699 -1.33398 -4.5 -2.00098
c-31.333 -15.333 -58.5 -29.833 -81.5 -43.5s-46.667 -30.667 -71 -51s-43 -43.166 -56 -68.499s-19.5 -52.333 -19.5 -81h647v-300h-1199v200c0 77.333 8.33301 148 25 212s38.834 118.833 66.501 164.5s63.667 88.334 108 128.001s89 73.167 134 100.5
s98.833 55.333 161.5 84c24.667 12 41.167 20.167 49.5 24.5l45 24.5c21.667 12 37.167 22.167 46.5 30.5s20.5 19 33.5 32s22 26.5 27 40.5s7.5 28.667 7.5 44v272h-152v-294h-552z" />
    <glyph glyph-name="three" unicode="3" horiz-adv-x="1436" 
d="M714 1632c111.333 0 206.33 -8.66699 284.997 -26s145.834 -46 201.501 -86s96.834 -93.5 123.501 -160.5s40 -149.167 40 -246.5c0 -71.333 -17.667 -131.666 -53 -180.999s-84.666 -86.666 -147.999 -111.999c66.667 -24.667 117.167 -62.834 151.5 -114.501
s51.5 -112.834 51.5 -183.501c0 -87.333 -10.167 -163.5 -30.5 -228.5s-48.333 -118.5 -84 -160.5s-81.167 -76 -136.5 -102s-115 -44.167 -179 -54.5s-137.333 -15.5 -220 -15.5c-221.333 0 -384.166 45.5 -488.499 136.5s-156.5 230.833 -156.5 419.5
c0 34.667 1.33301 66.667 4 96h552v-378h172v472h-259v224h259v430h-172v-337h-552c-2 29.333 -3 57.333 -3 84c0 98 13.5 180.833 40.5 248.5s68.167 121.667 123.5 162s121.666 69.333 198.999 87s170.333 26.5 279 26.5z" />
    <glyph glyph-name="four" unicode="4" horiz-adv-x="1459" 
d="M1377 0h-512v240h-792v417l254 938h573l-251 -938v-54h216v335h512v-938z" />
    <glyph glyph-name="five" unicode="5" horiz-adv-x="1429" 
d="M955 1105c64 0 119.832 -8.83301 167.499 -26.5s86.834 -42 117.501 -73s55.334 -70.167 74.001 -117.5s31.667 -97.833 39 -151.5s11 -114.834 11 -183.501c0 -117.333 -11.333 -213.833 -34 -289.5s-60.834 -136.167 -114.501 -181.5s-120 -76.833 -199 -94.5
s-179.833 -26.5 -302.5 -26.5c-73.333 0 -138.666 3.16699 -195.999 9.5s-112.833 17.833 -166.5 34.5s-98.834 38.5 -135.501 65.5s-67.5 62.5 -92.5 106.5s-41.167 95.333 -48.5 154c-6 44.667 -9 92.334 -9 143.001h550v-238h181v602h-181v-183h-533l53 941h1093v-297
h-591l-34 -301c61.333 71.333 178.333 107 351 107z" />
    <glyph glyph-name="six" unicode="6" horiz-adv-x="1448" 
d="M636 236h180v562h-180v-562zM718 -39c-104.667 0 -195.003 8.99707 -271.003 26.9971s-141.667 46.833 -197 86.5s-96.666 92.834 -123.999 159.501s-41 147.334 -41 242.001v580c0 108.667 13.667 200.5 41 275.5s68.666 134.333 123.999 178s120.833 75 196.5 94
s165.834 28.5 270.501 28.5c42.667 0 80.5 -0.666992 113.5 -2s71.667 -5.16602 116 -11.499s83.166 -14.666 116.499 -24.999s67.5 -25.5 102.5 -45.5s63.833 -43.5 86.5 -70.5s41.167 -61 55.5 -102s21.5 -87.167 21.5 -138.5c0 -10 0.333008 -23.667 1 -41s1 -30 1 -38
h-531v211h-163v-301h124c118.667 0 216.334 -8.66699 293.001 -26s140 -47.333 190 -90s85.5 -98.334 106.5 -167.001s31.5 -156 31.5 -262c0 -90.667 -10.167 -169 -30.5 -235s-48.166 -119.667 -83.499 -161s-81.666 -74.5 -138.999 -99.5s-118.333 -42.167 -183 -51.5
s-140.667 -14.333 -228 -15z" />
    <glyph glyph-name="seven" unicode="7" horiz-adv-x="991" 
d="M942 1595v-244l-226 -1351h-604l222 1354h-294v241h902z" />
    <glyph glyph-name="eight" unicode="8" horiz-adv-x="1427" 
d="M119 1181c0 68 9.66602 128.005 28.999 180.005s46 95 80 129s76.5 61.667 127.5 83s106 36.333 165 45s125.167 13 198.5 13c92 0 172.667 -7.33301 242 -22s130.833 -38.834 184.5 -72.501s94.5 -80.334 122.5 -140.001s42 -131.834 42 -216.501
c0 -179.333 -53.667 -284.666 -161 -315.999c50.667 -10.667 92.667 -34.834 126 -72.501s57.166 -83.334 71.499 -137.001s21.5 -115.167 21.5 -184.5c0 -61.333 -5.5 -116.5 -16.5 -165.5s-26 -91.167 -45 -126.5s-43.667 -66 -74 -92s-62.666 -47 -96.999 -63
s-74.666 -28.667 -120.999 -38s-92.333 -15.833 -138 -19.5s-97.5 -5.5 -155.5 -5.5c-90 0 -168.5 5 -235.5 15s-127.833 26.833 -182.5 50.5s-99.167 55 -133.5 94s-60.5 87.5 -78.5 145.5s-27 126.333 -27 205c0 227.333 62.333 358.666 187 393.999
c-88 31.333 -132 137 -132 317zM639.999 1355v-395h154v395h-154zM627.999 235.005h166v485h-166v-485z" />
    <glyph glyph-name="nine" unicode="9" horiz-adv-x="1445" 
d="M799 1358h-171v-579h171v579zM68 1071c0 67.333 5.3291 127.828 15.9961 181.495s25.334 100 44.001 139s43 72.5 73 100.5s62.167 50.833 96.5 68.5s75 31.667 122 42s94 17.333 141 21s100.833 5.5 161.5 5.5c84 0 158.667 -5.16699 224 -15.5
s124.833 -27.666 178.5 -51.999s97.834 -56.166 132.501 -95.499s61.334 -88.166 80.001 -146.499s28 -126.166 28 -203.499v-596c0 -86 -9.33301 -161.167 -28 -225.5s-45 -117.666 -79 -159.999s-77.667 -76.5 -131 -102.5s-111.666 -44.5 -174.999 -55.5
s-136.333 -16.5 -219 -16.5c-405.333 0 -611.333 122.667 -618 368c-0.666992 22.667 -1 54.667 -1 96h531v-199h158v283h-227c-98.667 0 -181 11 -247 33s-118.167 57.167 -156.5 105.5s-65.333 106.333 -81 174s-23.5 151.167 -23.5 250.5z" />
    <glyph glyph-name="colon" unicode=":" horiz-adv-x="691" 
d="M141 323c0 66 20.167 117.5 60.5 154.5s88.166 55.5 143.499 55.5s103.166 -18.5 143.499 -55.5s60.5 -88.5 60.5 -154.5s-20.167 -117.5 -60.5 -154.5s-88.166 -55.5 -143.499 -55.5s-103.166 18.5 -143.499 55.5s-60.5 88.5 -60.5 154.5zM141 1133
c0 66 20.167 117.5 60.5 154.5s88.166 55.5 143.499 55.5s103.166 -18.5 143.499 -55.5s60.5 -88.5 60.5 -154.5s-20.167 -117.5 -60.5 -154.5s-88.166 -55.5 -143.499 -55.5s-103.166 18.5 -143.499 55.5s-60.5 88.5 -60.5 154.5z" />
    <glyph glyph-name="semicolon" unicode=";" horiz-adv-x="710" 
d="M141 323c0 62.667 20.168 111.667 60.501 147s88.166 53 143.499 53c68.667 0 120.834 -22.667 156.501 -68s53.5 -102.666 53.5 -171.999c0 -46.667 -7.83301 -93.5 -23.5 -140.5s-37.834 -90.167 -66.501 -129.5s-65.5 -71.333 -110.5 -96s-93.833 -37 -146.5 -37
c-14.667 0 -29.334 1 -44.001 3v109c42 0.666992 77.833 11.834 107.5 33.501s45.834 51.167 48.501 88.5c-50 5.33301 -92.333 26.166 -127 62.499s-52 85.166 -52 146.499zM141.001 1133c0 66 20.167 117.5 60.5 154.5s88.166 55.5 143.499 55.5
s103.166 -18.5 143.499 -55.5s60.5 -88.5 60.5 -154.5s-20.167 -117.5 -60.5 -154.5s-88.166 -55.5 -143.499 -55.5s-103.166 18.5 -143.499 55.5s-60.5 88.5 -60.5 154.5z" />
    <glyph glyph-name="less" unicode="&#x3c;" horiz-adv-x="1036" 
d="M75 1098l876 499v-505l-601 -295l601 -293v-504l-876 489v609z" />
    <glyph glyph-name="equal" unicode="=" horiz-adv-x="1008" 
d="M923 336v-336h-834v336h834zM923 897v-336h-834v336h834z" />
    <glyph glyph-name="greater" unicode="&#x3e;" horiz-adv-x="1035" 
d="M963 489l-877 -489v504l601 293l-601 295v505l877 -499v-609z" />
    <glyph glyph-name="question" unicode="?" horiz-adv-x="906" 
d="M417 567c-4.66699 -38 -25.334 -56.999 -62.001 -56.999c-40.667 0 -61 24 -61 72c0 52.667 6.33301 106.667 19 162s27 102.333 43 141l49.5 125.5c17 45 28.167 82.5 33.5 112.5c1.33301 12 2 21 2 27c0 34 -11.5 61.5 -34.5 82.5s-58.833 31.5 -107.5 31.5
c-52 0 -116.667 -16.333 -194 -49l-36 347c146 46.667 269.667 70 371 70c64.667 0 122.334 -6 173.001 -18s92.167 -28 124.5 -48s58.833 -44 79.5 -72s35.167 -56.667 43.5 -86s12.5 -61 12.5 -95c0 -41.333 -7.66699 -80.833 -23 -118.5s-35.5 -71.834 -60.5 -102.501
s-52.667 -61 -83 -91l-93 -92c-31.667 -31.333 -61.167 -63.333 -88.5 -96s-50.833 -70.167 -70.5 -112.5s-32.167 -86.833 -37.5 -133.5zM153 171.001c0 66 20.167 117.5 60.5 154.5s88.166 55.5 143.499 55.5s103.166 -18.5 143.499 -55.5s60.5 -88.5 60.5 -154.5
s-20.167 -117.5 -60.5 -154.5s-88.166 -55.5 -143.499 -55.5s-103.166 18.5 -143.499 55.5s-60.5 88.5 -60.5 154.5z" />
    <glyph glyph-name="at" unicode="@" horiz-adv-x="2198" 
d="M1553 88c-174.667 3.33301 -291.674 53.668 -351.007 151.001c-67.333 -84 -151.333 -126 -252 -126c-110 0 -192.833 23.333 -248.5 70s-85.167 120.667 -88.5 222c-0.666992 20 -1 49.333 -1 88c0 120.667 26.333 208 79 262s139 81 259 81c100 0 175 -16 225 -48v234
h-59v-135h-452c0 7.33301 -0.166992 18.666 -0.5 33.999s-0.5 27 -0.5 35c0 48.667 7.83301 90.5 23.5 125.5s36.5 63.167 62.5 84.5s59.833 38.166 101.5 50.499s84.834 20.666 129.501 24.999s97.334 6.5 158.001 6.5c121.333 0 215.333 -13 282 -39
s114.5 -68.167 143.5 -126.5s43.5 -140.166 43.5 -245.499v-507h170v502c0 72.667 -4.16699 136.834 -12.5 192.501s-20 104.5 -35 146.5s-35.667 77.667 -62 107s-55.166 53.5 -86.499 72.5s-69.833 34 -115.5 45s-92.834 18.5 -141.501 22.5s-106 6 -172 6
c-98 0 -183.833 -6 -257.5 -18s-137.334 -31.5 -191.001 -58.5s-98.167 -59.333 -133.5 -97s-63.5 -84.834 -84.5 -141.501s-35.833 -118.167 -44.5 -184.5s-13 -143.833 -13 -232.5c0 -108.667 4.66699 -200.667 14 -276s26.666 -141.833 51.999 -199.5
s56.333 -103.5 93 -137.5s86.334 -61.667 149.001 -83s131.667 -35.666 207 -42.999s168.333 -11 279 -11c96.667 0 257.334 26.667 482.001 80l58 -255c-162 -106.667 -336 -160 -522 -160c-105.333 0 -200.166 3.66699 -284.499 11s-164.666 19.5 -240.999 36.5
s-143.666 39.167 -201.999 66.5s-112 61.333 -161 102s-90.333 88.167 -124 142.5s-62.167 117 -85.5 188s-40.5 150.667 -51.5 239s-16.5 186.5 -16.5 294.5c0 160.667 14.833 300.667 44.5 420s72.667 219.333 129 300s128.833 145.834 217.5 195.501
s188.167 85.167 298.5 106.5s238.5 32 384.5 32c176 0 324.833 -15.333 446.5 -46s223.167 -80.5 304.5 -149.5s140.666 -158 177.999 -267s56 -242.5 56 -400.5c0 -71.333 -2 -135.333 -6 -192s-11.5 -113.167 -22.5 -169.5s-25.833 -105.333 -44.5 -147
s-42.667 -80.834 -72 -117.501s-64.166 -66.667 -104.499 -90s-88.166 -41.5 -143.499 -54.5s-117.666 -19.5 -186.999 -19.5zM1080.99 641.002v-305h93v305h-93z" />
    <glyph glyph-name="A" unicode="A" horiz-adv-x="1565" 
d="M677 366l-55 -366h-586l292 1595h907l297 -1595h-587l-54 366h-214zM816 1085l-15 198h-39l-13 -198l-54 -509h178z" />
    <glyph glyph-name="B" unicode="B" horiz-adv-x="1533" 
d="M1223 905l-112 -12v-39l112 -13c168 -19.333 252 -146.333 252 -381c0 -74.667 -6 -138 -18 -190s-30.333 -95.833 -55 -131.5s-58.5 -63.5 -101.5 -83.5s-92.333 -34.167 -148 -42.5s-123.834 -12.5 -204.501 -12.5h-843v1595h847c40.667 0 77 -1.16699 109 -3.5
s65.333 -6.83301 100 -13.5s64.834 -15.5 90.501 -26.5s50.5 -26 74.5 -45s43.5 -41.5 58.5 -67.5s27 -57.5 36 -94.5s13.5 -78.833 13.5 -125.5c0 -101.333 -16.333 -177 -49 -227s-86.667 -79 -162 -87zM709 235h173v535h-173v-535zM709 951h173v407h-173v-407z" />
    <glyph glyph-name="C" unicode="C" horiz-adv-x="1540" 
d="M868 1356l-173.003 -0.00195312v-1123h173v381h604v-245c0 -52 -7.66699 -98.833 -23 -140.5s-35.166 -76.5 -59.499 -104.5s-55.166 -52.333 -92.499 -73s-74.833 -36.667 -112.5 -48s-81.167 -20.333 -130.5 -27s-93.833 -11 -133.5 -13s-84.5 -3 -134.5 -3
c-46 0 -88 0.833008 -126 2.5s-81.833 5.83398 -131.5 12.501s-93.834 15.667 -132.501 27s-78 27.333 -118 48s-73 45 -99 73s-47.333 63 -64 105s-25 89.333 -25 142v856c0 51.333 7.83301 97.833 23.5 139.5s36 76.334 61 104.001s56.5 51.834 94.5 72.501
s76.167 36.5 114.5 47.5s82.333 19.833 132 26.5s94.334 11 134.001 13s84.167 3 133.5 3c52.667 0 98.667 -0.833008 138 -2.5s84.333 -5.66699 135 -12s94.334 -14.833 131.001 -25.5s74 -26.167 112 -46.5s68.833 -44.5 92.5 -72.5s43 -62.833 58 -104.5
s22.5 -88.834 22.5 -141.501v-248h-604v377z" />
    <glyph glyph-name="D" unicode="D" horiz-adv-x="1555" 
d="M708 235h173v1123h-173v-1123zM1485 1204l0.00292969 -811c0 -44.667 -4.5 -85.334 -13.5 -122.001s-22.667 -68.167 -41 -94.5s-38.666 -49.333 -60.999 -69s-49.5 -35.834 -81.5 -48.501s-63.167 -23.167 -93.5 -31.5s-66 -14.333 -107 -18
s-78.167 -6.16699 -111.5 -7.5s-72.333 -2 -117 -2h-756v1595h756c50.667 0 95.667 -1 135 -3s81.666 -6.16699 126.999 -12.5s84.666 -15.166 117.999 -26.499s66.166 -26.833 98.499 -46.5s58.666 -43 78.999 -70s36.833 -60.167 49.5 -99.5s19 -83.666 19 -132.999z" />
    <glyph glyph-name="E" unicode="E" horiz-adv-x="1114" 
d="M1049 1595v-249h-341v-385h318v-250h-318v-460h341v-251h-945v1595h945z" />
    <glyph glyph-name="F" unicode="F" horiz-adv-x="1102" 
d="M1049 1595v-249h-341v-392h318v-249h-318v-705h-604v1595h945z" />
    <glyph glyph-name="G" unicode="G" horiz-adv-x="1547" 
d="M911 124c-66.667 -108.667 -183.665 -162.998 -350.998 -162.998c-65.333 0 -125.833 8 -181.5 24s-105.334 39.667 -149.001 71s-77.834 73 -102.501 125s-37 111.333 -37 178v869c0 52 7.66699 98.667 23 140s35.333 75.833 60 103.5s56.167 51.667 94.5 72
s76.333 36.166 114 47.499s81.5 20.166 131.5 26.499s94.833 10.333 134.5 12s84.5 2.5 134.5 2.5c460 0 690 -135 690 -405v-248h-605v379h-173v-1123h173v303h-85v231h690v-769h-487z" />
    <glyph glyph-name="H" unicode="H" horiz-adv-x="1585" 
d="M1505 1595v-1595h-604v688h-193v-688h-604v1595h604v-687h193v687h604z" />
    <glyph glyph-name="I" unicode="I" horiz-adv-x="788" 
d="M708 1595v-1595h-604v1595h604z" />
    <glyph glyph-name="J" unicode="J" horiz-adv-x="908" 
d="M831 1594v-1320c0 -77.333 -13.167 -144.5 -39.5 -201.5s-63.5 -102 -111.5 -135s-102.667 -57.333 -164 -73s-130 -23.5 -206 -23.5c-78.667 0 -164 8.33301 -256 25v272h173v1456h604z" />
    <glyph glyph-name="K" unicode="K" horiz-adv-x="1689" 
d="M1025 0l-259 696l-67 -41l10 -163v-492h-605v1595h605v-601l-10 -144l37 -6l37 141l229 610h619l-342 -751l383 -844h-637z" />
    <glyph glyph-name="L" unicode="L" horiz-adv-x="1094" 
d="M104 0v1595h604v-1354h341v-241h-945z" />
    <glyph glyph-name="M" unicode="M" horiz-adv-x="1909" 
d="M1316 958l-137 -958h-427l-125 958h-40l12 -269l-42 -689h-481l74 1595h680l100 -715l13 -269h39l15 269l100 715h681l74 -1595h-466l-42 689l12 269h-40z" />
    <glyph glyph-name="N" unicode="N" horiz-adv-x="1576" 
d="M957 0l-405 711v-711h-448v1595h517l431 -761v761h444v-1595h-539z" />
    <glyph glyph-name="O" unicode="O" horiz-adv-x="1542" 
d="M694 235h173v1127h-173v-1127zM777 -39c-53.333 0 -99.9971 0.835938 -139.997 2.50293s-85.167 5.66699 -135.5 12s-93.833 15.166 -130.5 26.499s-73.667 27.166 -111 47.499s-67.833 44.5 -91.5 72.5s-42.834 63.167 -57.501 105.5s-22 89.833 -22 142.5v856
c0 51.333 7.66699 97.666 23 138.999s35.333 76 60 104s56 52.167 94 72.5s75.833 36.166 113.5 47.499s81.167 20.166 130.5 26.499s93.833 10.5 133.5 12.5s84.167 3 133.5 3c46 0 87.667 -0.833008 125 -2.5s81 -5.66699 131 -12s94.167 -15 132.5 -26
s77.5 -26.667 117.5 -47s73 -44.333 99 -72s47.333 -62.5 64 -104.5s25 -89 25 -141v-856c0 -52.667 -7.83301 -100 -23.5 -142s-35.834 -77 -60.501 -105s-56.334 -52.167 -95.001 -72.5s-76.667 -36.166 -114 -47.499s-81.333 -20.166 -132 -26.499
s-95.5 -10.5 -134.5 -12.5s-83.833 -3 -134.5 -3z" />
    <glyph glyph-name="P" unicode="P" horiz-adv-x="1550" 
d="M104 1595l755.005 -0.00195312c50.667 0 95.667 -1 135 -3s81.666 -6.16699 126.999 -12.5s84.666 -15.166 117.999 -26.499s66.166 -26.833 98.499 -46.5s58.666 -43 78.999 -70s36.833 -60.167 49.5 -99.5s19 -83.666 19 -132.999v-411
c0 -40 -3.83301 -76.5 -11.5 -109.5s-18 -62 -31 -87s-30 -47.333 -51 -67s-42.5 -36.167 -64.5 -49.5s-48.333 -25 -79 -35s-59.834 -17.667 -87.501 -23s-60 -9.5 -97 -12.5s-70.333 -5 -100 -6s-64.167 -1.5 -103.5 -1.5h-152v-402h-604v1595zM707.005 627.998h173v734
h-173v-734z" />
    <glyph glyph-name="Q" unicode="Q" horiz-adv-x="1542" 
d="M1393 -379c-82 -8 -157.335 -12 -226.002 -12c-155.333 0 -274 26.5 -356 79.5s-135 144.833 -159 275.5c-52.667 2.66699 -99.667 6.83398 -141 12.501s-84.666 14.167 -129.999 25.5s-84.5 26.833 -117.5 46.5s-63.167 43.667 -90.5 72s-48 63.666 -62 105.999
s-21 90.166 -21 143.499v856c0 51.333 7.66699 97.833 23 139.5s35.333 76.334 60 104.001s56 51.834 94 72.501s75.833 36.5 113.5 47.5s81.167 19.833 130.5 26.5s93.833 11 133.5 13s84.167 3 133.5 3c46 0 87.667 -0.833008 125 -2.5s80.833 -5.66699 130.5 -12
s93.834 -15 132.501 -26s78 -26.833 118 -47.5s73 -44.834 99 -72.501s47.333 -62.5 64 -104.5s25 -89 25 -141v-856c0 -61.333 -9 -114.5 -27 -159.5s-44.5 -82 -79.5 -111s-73.667 -52 -116 -69s-92.5 -31.167 -150.5 -42.5c2.66699 -44.667 54.667 -67 156 -67
c56 0 122 7.33301 198 22zM694.998 235h173v1127h-173v-1127z" />
    <glyph glyph-name="R" unicode="R" horiz-adv-x="1553" 
d="M1243 805l-132 -13v-39l132 -15c76 -8.66699 135.667 -39.5 179 -92.5s65 -122.5 65 -208.5v-437h-606v649h-173v-649h-604v1595h913c75.333 0 139.833 -6.5 193.5 -19.5s100.667 -34.833 141 -65.5s70.333 -72.5 90 -125.5s29.5 -117.833 29.5 -194.5
c0 -242 -76 -370.333 -228 -385zM708 881h173v477h-173v-477z" />
    <glyph glyph-name="S" unicode="S" horiz-adv-x="1469" 
d="M644 1125l3.00098 -1.99707c0 -4 0.833008 -8 2.5 -12s4.33398 -7.5 8.00098 -10.5s7.33398 -5.66699 11.001 -8s8.66699 -4.66602 15 -6.99902s11.666 -4.16602 15.999 -5.49902s10.333 -2.83301 18 -4.5s13.5 -2.83398 17.5 -3.50098l18 -3
c8 -1.33301 13.333 -2.33301 16 -3c150 -26.667 257.667 -51.334 323 -74.001c147.333 -50.667 245 -130.667 293 -240c26.667 -59.333 40 -129.333 40 -210c0 -115.333 -12.5 -210.333 -37.5 -285s-66 -134 -123 -178s-126.333 -74.667 -208 -92s-184.834 -26 -309.501 -26
c-45.333 0 -86 0.833008 -122 2.5s-77.167 5.5 -123.5 11.5s-87.166 14.333 -122.499 25s-71.5 25.667 -108.5 45s-68 42.166 -93 68.499s-46.5 59.166 -64.5 98.499s-29.333 83.666 -34 132.999c-4 45.333 -6 93 -6 143h573v-253h173v250
c0 12.667 -3.33301 23.834 -10 33.501s-17.334 18.334 -32.001 26.001s-26.334 13.167 -35.001 16.5s-22.334 8 -41.001 14c-22 7.33301 -50.667 16.166 -86 26.499l-89.5 26.5c-24.333 7.33301 -53 16.666 -86 27.999s-61.167 22.166 -84.5 32.499s-48.833 23.333 -76.5 39
s-51 32 -70 49s-38.167 37 -57.5 60s-34.666 47.667 -45.999 74s-20.5 56.5 -27.5 90.5s-10.5 70.667 -10.5 110c0 61.333 5.66699 116.833 17 166.5s27 92.5 47 128.5s45.5 67.333 76.5 94s64 48.334 99 65.001s75.333 30 121 40s91.334 16.833 137.001 20.5
s96.5 5.5 152.5 5.5c59.333 0 111.666 -1.5 156.999 -4.5s90.833 -8.5 136.5 -16.5s85 -19 118 -33s64.333 -32.333 94 -55s53.5 -49.667 71.5 -81s32.333 -68.833 43 -112.5s16 -93.167 16 -148.5h-536v178h-173v-233z" />
    <glyph glyph-name="T" unicode="T" horiz-adv-x="1324" 
d="M1321 1595v-269h-356v-1326h-604v1326h-353v269h1313z" />
    <glyph glyph-name="U" unicode="U" horiz-adv-x="1556" 
d="M701 234l173 -0.000976562v1360h605v-1224c0 -52 -7.83301 -98.833 -23.5 -140.5s-35.834 -76.5 -60.501 -104.5s-56.167 -52.333 -94.5 -73s-76.5 -36.667 -114.5 -48s-81.833 -20.333 -131.5 -27s-94.5 -11 -134.5 -13s-84.667 -3 -134 -3c-46 0 -88 0.833008 -126 2.5
s-81.667 5.83398 -131 12.501s-93.166 15.667 -131.499 27s-77 27.333 -116 48s-71.333 45 -97 73s-46.667 63.167 -63 105.5s-24.5 89.5 -24.5 141.5v1224h604v-1361z" />
    <glyph glyph-name="V" unicode="V" horiz-adv-x="1526" 
d="M733 681l13 -269h39l15 269l112 914h592l-318 -1595h-842l-318 1595h591z" />
    <glyph glyph-name="W" unicode="W" horiz-adv-x="2108" 
d="M1401 853l17 -269l32 2l94 1009h531l-239 -1595h-662l-98 628l-15 299h-39l-13 -299l-100 -628h-642l-229 1595h583l45 -1011h39l16 269l84 742h514z" />
    <glyph glyph-name="X" unicode="X" horiz-adv-x="1539" 
d="M590 0h-568l327 782l-327 813h572l146 -438l17 -116h29l17 116l151 438h571l-330 -813l330 -782h-575l-151 438l-17 116h-29l-17 -116z" />
    <glyph glyph-name="Y" unicode="Y" horiz-adv-x="1552" 
d="M746 1021l17 -206h29l17 206l159 574h556l-442 -1146v-449h-605v459l-445 1136h560z" />
    <glyph glyph-name="Z" unicode="Z" horiz-adv-x="1138" 
d="M1092 1595l-347 -1301h337v-294h-1026l384 1304h-372v291h1024z" />
    <glyph glyph-name="bracketleft" unicode="[" horiz-adv-x="1111" 
d="M100 1819h975v-241h-341v-1655h341v-242h-975v2138z" />
    <glyph glyph-name="backslash" unicode="\" horiz-adv-x="1053" 
d="M587 1595l352 -1595h-475l-351 1595h474z" />
    <glyph glyph-name="bracketright" unicode="]" horiz-adv-x="1108" 
d="M1010 -319h-975v242h341v1655h-341v241h975v-2138z" />
    <glyph glyph-name="asciicircum" unicode="^" horiz-adv-x="1222" 
d="M896 676l283 -615h-481l-88 320l-84 -320h-480l272 615h578z" />
    <glyph glyph-name="underscore" unicode="_" horiz-adv-x="1042" 
d="M967 1v-436h-889v436h889z" />
    <glyph glyph-name="grave" unicode="`" horiz-adv-x="873" 
d="M814 1480c22.667 -20 34 -40.0029 34 -60.0029c0 -14 -6 -25.667 -18 -35s-27 -14 -45 -14c-12 0 -22.667 1.66699 -32 5c-34 10.667 -87.667 26.334 -161 47.001l-178.5 51.5c-45.667 13.667 -93.834 29.5 -144.501 47.5s-88 34 -112 48
c-38.667 22.667 -67.667 50 -87 82s-29 65.333 -29 100c0 48.667 16.5 90.5 49.5 125.5s74.5 52.5 124.5 52.5c40.667 0 82.334 -12.333 125.001 -37c23.333 -13.333 55.833 -37.166 97.5 -71.499s79 -66.666 112 -96.999l139.5 -129z" />
    <glyph glyph-name="a" unicode="a" horiz-adv-x="1464" 
d="M1381 257c0.666992 -85.333 10.332 -170.668 28.999 -256.001h-520l-56 138c-31.333 -52 -75.833 -92.667 -133.5 -122s-126.5 -44 -206.5 -44c-142.667 0 -248.5 34 -317.5 102s-103.5 172.333 -103.5 313c0 150 39.333 260.167 118 330.5s196.667 105.5 354 105.5
c94 0 182.667 -13.667 266 -41v323h-139v-191l-525 -20c-7.33301 42.667 -11 79.334 -11 110.001c0 41.333 7.16699 78.666 21.5 111.999s33 61 56 83s51.833 41 86.5 57s68.667 28.5 102 37.5s71.666 16 114.999 21s81.333 8.16699 114 9.5s69 2 109 2
c38.667 0 73 -0.333008 103 -1s63.667 -2.5 101 -5.5s70.333 -7.16699 99 -12.5s58.834 -12.666 90.501 -21.999s59 -20.333 82 -33s45.333 -28.5 67 -47.5s39.334 -40.5 53.001 -64.5s24.667 -52 33 -84s12.5 -67 12.5 -105v-695zM644.998 652.998v-453h166v453h-166z" />
    <glyph glyph-name="b" unicode="b" horiz-adv-x="1481" 
d="M997 -27c-73.333 0 -140 12.5 -200 37.5s-105 59.5 -135 103.5l-37 -114h-520v1710h571v-495c64.667 74.667 172.667 112 324 112c276 0 414 -129 414 -387v-563c0 -269.333 -139 -404 -417 -404zM676 199h167v906h-167v-906z" />
    <glyph glyph-name="c" unicode="c" horiz-adv-x="1462" 
d="M1396 539l0.994141 -187.001c0 -39.333 -4.33301 -75.5 -13 -108.5s-20 -61.5 -34 -85.5s-32.667 -45.667 -56 -65s-46.666 -35.333 -69.999 -48s-51.5 -23.667 -84.5 -33s-63.667 -16.5 -92 -21.5s-61.833 -8.83301 -100.5 -11.5s-72.5 -4.33398 -101.5 -5.00098
s-63.167 -1 -102.5 -1c-51.333 0 -96.166 0.833008 -134.499 2.5s-81.666 5.5 -129.999 11.5s-89.833 14.167 -124.5 24.5s-69.834 25 -105.501 44s-64.667 41.667 -87 68s-40.5 59.166 -54.5 98.499s-21 83.666 -21 132.999v600c0 38.667 4.5 74.167 13.5 106.5
s20.833 60.333 35.5 84s34 44.834 58 63.501s48 34.334 72 47.001s52.833 23.5 86.5 32.5s65 16 94 21s62.833 8.83301 101.5 11.5s72.334 4.33398 101.001 5.00098s62.334 1 101.001 1c50 0 89.333 -0.333008 118 -1s68.834 -3.16699 120.501 -7.5
s93.334 -10.666 125.001 -18.999s67.5 -21 107.5 -38s71.333 -37.667 94 -62s42 -55.333 58 -93s24 -80.5 24 -128.5v-191h-571v318h-167v-906h167v340h571z" />
    <glyph glyph-name="d" unicode="d" 
d="M500 1327c150.667 0 258.334 -37.333 323.001 -112v495h571v-1710h-520l-37 114c-30.667 -44 -75.834 -78.5 -135.501 -103.5s-126.167 -37.5 -199.5 -37.5c-278 0 -417 134.667 -417 404v563c0 258 138.333 387 415 387zM822 1105h-167v-906h167v906z" />
    <glyph glyph-name="e" unicode="e" horiz-adv-x="1463" 
d="M1396 483c5.33301 -40.667 8.00391 -75 8.00391 -103c0 -148.667 -53 -253.667 -159 -315s-273.333 -92 -502 -92c-52.667 0 -97 0.666992 -133 2s-79 4.66602 -129 9.99902s-91.833 13 -125.5 23s-68.834 24.333 -105.501 43s-66 41.167 -88 67.5
s-40.167 59.333 -54.5 99s-21.5 84.834 -21.5 135.501v600c0 48.667 7.33301 92.5 22 131.5s33.5 71.333 56.5 97s53 47.834 90 66.501s73 33 108 43s76.5 17.833 124.5 23.5s90.167 9.16699 126.5 10.5s78.833 2 127.5 2c38 0 71.333 -0.333008 100 -1
s62.167 -2.33398 100.5 -5.00098s71.666 -6.5 99.999 -11.5s59.166 -12 92.499 -21s62 -19.833 86 -32.5s47.667 -28.5 71 -47.5s42.166 -40.333 56.499 -64s26 -51.667 35 -84s13.5 -67.833 13.5 -106.5v-350h-738v-405h167v284h571zM658.004 777h168v328h-168v-328z" />
    <glyph glyph-name="f" unicode="f" horiz-adv-x="1205" 
d="M263 1300c0 80 11.001 148 33.001 204s55.167 100.5 99.5 133.5s97.166 56.833 158.499 71.5s134.333 22 219 22c139.333 0 261.333 -16 366 -48v-206h-305v-177h314v-202h-314v-1098h-571v1098h-207v202h207z" />
    <glyph glyph-name="g" unicode="g" horiz-adv-x="1470" 
d="M508 1327c157.333 -1.33301 270.334 -48 339.001 -140l36 112h511v-1063c0 -209.333 -58.167 -363 -174.5 -461s-297.833 -147 -544.5 -147c-170.667 0 -329.667 20.333 -477 61l57 291c94 -26 209.333 -39 346 -39c115.333 0 193.666 12.333 234.999 37v227
c-30 -38 -74.333 -66.5 -133 -85.5s-124.667 -28.5 -198 -28.5c-280 0 -420 130.333 -420 391v445c0 266.667 141 400 423 400zM823.001 1104h-167v-788h167v788z" />
    <glyph glyph-name="h" unicode="h" horiz-adv-x="1486" 
d="M997 1327c278 0 417 -127.332 417 -381.999v-945h-571v1105h-167v-1105h-571v1710h571v-500c27.333 37.333 70.333 66.166 129 86.499s122.667 30.5 192 30.5z" />
    <glyph glyph-name="i" unicode="i" horiz-adv-x="759" 
d="M675 0h-571v1300h571v-1300zM675 1709v-284h-571v284h571z" />
    <glyph glyph-name="j" unicode="j" horiz-adv-x="868" 
d="M784 94c0 -144 -39 -250 -117 -318s-192.667 -102 -344 -102c-109.333 0 -199.333 7 -270 21l-30 239h189v1366h572v-1206zM784 1709v-284h-572v284h572z" />
    <glyph glyph-name="k" unicode="k" horiz-adv-x="1525" 
d="M105 0v1710h571v-912l269 502h586l-331 -610l338 -690h-580l-239 575l-43 -97v-478h-571z" />
    <glyph glyph-name="l" unicode="l" horiz-adv-x="760" 
d="M676 0h-571v1710h571v-1710z" />
    <glyph glyph-name="m" unicode="m" horiz-adv-x="2189" 
d="M1693 1327c136 0 240.5 -32 313.5 -96s109.5 -159.667 109.5 -287v-944h-563v1105h-173c4.66699 -25.333 7 -60 7 -104v-1001h-557v1105h-167v-1105h-563v1300h512l37 -112c32 43.333 80.667 77.333 146 102s136 37 212 37c152 0 265 -45.333 339 -136
c30.667 44.667 76.167 78.5 136.5 101.5s130.5 34.5 210.5 34.5z" />
    <glyph glyph-name="n" unicode="n" horiz-adv-x="1482" 
d="M987 1327c136.667 -0.666992 241 -33.333 313 -98s108 -159.667 108 -285v-944h-571v1105h-167v-1105h-571v1300h510l37 -112c30 42 75.667 75.667 137 101s129.333 38 204 38z" />
    <glyph glyph-name="o" unicode="o" horiz-adv-x="1465" 
d="M658 233h166v872h-166v-872zM745 -27c-41.333 0 -76.9971 0.336914 -106.997 1.00391s-64.5 2.5 -103.5 5.5s-72.833 7 -101.5 12s-59.5 12.167 -92.5 21.5s-61.167 20.5 -84.5 33.5s-46.166 29 -68.499 48s-40.5 40.667 -54.5 65s-25.167 52.833 -33.5 85.5
s-12.5 68.667 -12.5 108v600c0 42 5.16699 80.5 15.5 115.5s25.666 64.833 45.999 89.5s43 46.5 68 65.5s54.833 34.5 89.5 46.5s68.167 22 100.5 30s69.666 13.833 111.999 17.5s80.166 6.16699 113.499 7.5s71.333 2 114 2c52 0 97.833 -0.833008 137.5 -2.5
s83.167 -5.5 130.5 -11.5s88.166 -14.333 122.499 -25s68.666 -25.334 102.999 -44.001s62.333 -41 84 -67s39.167 -58 52.5 -96s20 -81 20 -129v-600c0 -59.333 -8.33301 -111.333 -25 -156s-42.667 -80.334 -78 -107.001s-70.666 -48.334 -105.999 -65.001
s-81.833 -28.334 -139.5 -35.001s-106.5 -11 -146.5 -13s-92 -3 -156 -3z" />
    <glyph glyph-name="p" unicode="p" horiz-adv-x="1476" 
d="M989 -27c-154 0 -260.333 38 -319 114v-495h-571v1708h490l37 -112c32.667 44 81.5 78.167 146.5 102.5s136.167 36.5 213.5 36.5c282 0 423 -133.667 423 -401v-561c0 -261.333 -140 -392 -420 -392zM670 199h167v906h-167v-906z" />
    <glyph glyph-name="q" unicode="q" horiz-adv-x="1459" 
d="M86 926h-1.00098c0 267.333 139 401 417 401c98.667 0 187.334 -26.333 266.001 -79c26 -17.333 47 -37.333 63 -60l38 112h512v-1708h-549v495c-66 -76 -176.333 -114 -331 -114c-276.667 0 -415 130.667 -415 392v561zM816.999 1105h-165v-906h165v906z" />
    <glyph glyph-name="r" unicode="r" horiz-adv-x="981" 
d="M100 0l1 1300h486l41 -147c22 52.667 62.667 94.334 122 125.001s128.333 47 207 49v-378l-286 -56v-893h-571z" />
    <glyph glyph-name="s" unicode="s" horiz-adv-x="1434" 
d="M807 446l0.996094 0.00390625c-5.33301 6 -20 10.667 -44 14c-12.667 2 -34.834 5 -66.501 9l-74 9.5c-17.667 2.33301 -39.667 5.66602 -66 9.99902s-50.5 8.83301 -72.5 13.5s-43 9.66699 -63 15c-49.333 13.333 -94.166 30.666 -134.499 51.999
s-77.333 47.333 -111 78s-59.834 67.5 -78.501 110.5s-28 90.5 -28 142.5c0 51.333 6 97.666 18 138.999s28.333 76.666 49 105.999s47.167 54.833 79.5 76.5s66.5 39.167 102.5 52.5s77.667 24 125 32s94 13.5 140 16.5s97.667 4.5 155 4.5
c46.667 0 86.834 -0.666992 120.501 -2s73.167 -4.66602 118.5 -9.99902s84 -12.833 116 -22.5s65 -23.834 99 -42.501s61.333 -40.667 82 -66s37.834 -57.5 51.501 -96.5s20.5 -82.833 20.5 -131.5c0 -46 -0.333008 -74 -1 -84l-539 30v161h-167v-202c6 -6 21 -11 45 -15
l106 -15.5c52.667 -7.66699 97.334 -14.834 134.001 -21.501s70.667 -14.334 102 -23.001c48 -13.333 91.833 -29.833 131.5 -49.5s76.5 -44 110.5 -73s60.667 -64.333 80 -106s29 -87.5 29 -137.5c0 -58 -6.66699 -109.667 -20 -155s-30.833 -83.5 -52.5 -114.5
s-50 -57.667 -85 -80s-70 -39.666 -105 -51.999s-77.167 -22 -126.5 -29s-94.333 -11.5 -135 -13.5s-88.667 -3 -144 -3c-43.333 0 -81.333 0.5 -114 1.5s-67.5 3.33301 -104.5 7s-69.167 8.66699 -96.5 15s-55.333 14.833 -84 25.5s-53 23.334 -73 38.001
s-39.167 32.667 -57.5 54s-33.166 45.5 -44.499 72.5s-20.166 58.167 -26.499 93.5s-9.5 74.333 -9.5 117c0 15.333 0.333008 27 1 35l539 -32v-167h167v213z" />
    <glyph glyph-name="t" unicode="t" horiz-adv-x="968" 
d="M764 0h-571v1100h-137v200h137v295h571v-295h159v-200h-159v-1100z" />
    <glyph glyph-name="u" unicode="u" 
d="M515 -27c-137.333 0 -242.333 32 -315 96s-109 161 -109 291v940h572v-1067h166v1067h572v-1300h-517l-37 112c-26 -42.667 -70 -76.5 -132 -101.5s-128.667 -37.5 -200 -37.5z" />
    <glyph glyph-name="v" unicode="v" horiz-adv-x="1348" 
d="M635 686l17 -346h49l17 346l68 614h561l-274 -1300h-794l-275 1300h561z" />
    <glyph glyph-name="w" unicode="w" horiz-adv-x="2066" 
d="M992 435l-52 -435h-690l-218 1300h530l55 -539l20 -376h44l30 376l52 539h545l51 -539l26 -376h44l20 376l53 539h529l-218 -1300h-694l-54 435l-22 366h-30z" />
    <glyph glyph-name="x" unicode="x" horiz-adv-x="1395" 
d="M45 0l373 652l-373 648h572l86 -251l87 251h571l-373 -648l373 -652h-567l-91 258l-91 -258h-567z" />
    <glyph glyph-name="y" unicode="y" horiz-adv-x="1342" 
d="M628 693l10.9961 -276h70l12 276l60 607h552l-220 -1286c-10 -60.667 -27 -114 -51 -160s-51.667 -83 -83 -111s-68.666 -50.667 -111.999 -68s-87.166 -29.333 -131.499 -36s-93.5 -10 -147.5 -10c-84.667 0 -216.667 17.667 -396 53l43 305
c106.667 -26.667 202.334 -40 287.001 -40c71.333 0 132.333 9.66699 183 29v159c-83.333 -30.667 -168.666 -46 -255.999 -46c-128.667 0 -208 62.667 -238 188l-191 1023h533z" />
    <glyph glyph-name="z" unicode="z" horiz-adv-x="1118" 
d="M100 1300h952v-221l-356 -833h363v-246h-983v233l360 818h-336v249z" />
    <glyph glyph-name="braceleft" unicode="{" horiz-adv-x="1132" 
d="M1100 1925l-0.00195312 -279.001c-60.667 0 -112.667 -7.33301 -156 -22s-77.166 -35 -101.499 -61s-43.666 -56 -57.999 -90s-24.166 -71.167 -29.499 -111.5s-9 -81.5 -11 -123.5s-4.66699 -84.5 -8 -127.5s-8.66602 -83.5 -15.999 -121.5s-20.333 -74.167 -39 -108.5
s-42.667 -62.5 -72 -84.5c29.333 -19.333 53.333 -45.166 72 -77.499s31.667 -67 39 -104s12.666 -77 15.999 -120s6.16602 -85.667 8.49902 -128s6 -84 11 -125s14.833 -79 29.5 -114s34.167 -65.833 58.5 -92.5s58.166 -47.667 101.499 -63s95.333 -23 156 -23v-279
c-139.333 0 -257 11.333 -353 34s-178.833 60.834 -248.5 114.501s-122.5 125.167 -158.5 214.5s-58.667 200.333 -68 333c-1.33301 12 -3 28.333 -5 49l-5 51.5c-1.33301 13.667 -3.66602 29.667 -6.99902 48s-7.33301 33.666 -12 45.999s-11.5 25.166 -20.5 38.499
s-19.5 24 -31.5 32s-27 14.5 -45 19.5s-38.667 7.5 -62 7.5v279c22.667 0 43 2.5 61 7.5s33 11.167 45 18.5s22.5 17.5 31.5 30.5s15.833 25.333 20.5 37s8.83398 26.834 12.501 45.501s6.16699 34.667 7.5 48l5.5 52.5l5.5 51.5c23.333 176.667 65.833 315.167 127.5 415.5
s147.667 172.333 258 216s257.166 65.5 440.499 65.5z" />
    <glyph glyph-name="bar" unicode="|" horiz-adv-x="831" 
d="M700 1795v-1895h-571v1895h571z" />
    <glyph glyph-name="braceright" unicode="}" horiz-adv-x="1131" 
d="M59 1646l-0.00195312 279.001c183.333 0 330.166 -21.833 440.499 -65.5s196.333 -115.667 258 -216s104.167 -238.833 127.5 -415.5l5.5 -51.5l5.5 -52.5c1.33301 -13.333 3.83301 -29.333 7.5 -48s7.83398 -33.834 12.501 -45.501s11.5 -24 20.5 -37
s19.5 -23.167 31.5 -30.5s27 -13.5 45 -18.5s38.333 -7.5 61 -7.5v-279c-23.333 0 -44 -2.5 -62 -7.5s-33 -11.5 -45 -19.5s-22.5 -18.667 -31.5 -32s-15.833 -26.166 -20.5 -38.499s-8.66699 -27.666 -12 -45.999s-5.66602 -34.333 -6.99902 -48l-5 -51.5
c-2 -20.667 -3.66699 -37 -5 -49c-9.33301 -132.667 -32 -243.667 -68 -333s-88.833 -160.833 -158.5 -214.5s-152.5 -91.834 -248.5 -114.501s-213.667 -34 -353 -34v279c60.667 0 112.667 7.66699 156 23s77.166 36.333 101.499 63s43.833 57.5 58.5 92.5
s24.5 73 29.5 114s8.66699 82.667 11 125s5.16602 85 8.49902 128s8.66602 83 15.999 120s20.333 71.667 39 104s42.667 58.166 72 77.499c-29.333 22 -53.333 50.167 -72 84.5s-31.667 70.5 -39 108.5s-12.666 78.5 -15.999 121.5s-6 85.5 -8 127.5
s-5.66699 83.167 -11 123.5s-15.166 77.5 -29.499 111.5s-33.666 64 -57.999 90s-58.166 46.333 -101.499 61s-95.333 22 -156 22z" />
    <glyph glyph-name="asciitilde" unicode="~" horiz-adv-x="1424" 
d="M1057 642c0 47.333 -8.66797 86.499 -26.001 117.499s-44.333 46.5 -81 46.5c-30 0 -59.667 -6.5 -89 -19.5s-56.666 -28.833 -81.999 -47.5l-79 -56c-27.333 -18.667 -60 -34.5 -98 -47.5s-78.667 -19.5 -122 -19.5c-56 0 -105.833 6.83301 -149.5 20.5
s-80.167 33.834 -109.5 60.501s-54 56.5 -74 89.5s-35.167 71.5 -45.5 115.5s-17.666 87.5 -21.999 130.5s-6.5 90.833 -6.5 143.5h296c0 -112 37.333 -168 112 -168c34.667 0 68.667 6.66699 102 20s64.5 29.333 93.5 48l89.5 56.5c30.667 19 67 35.167 109 48.5
s86.333 20 133 20c50 0 93.667 -5.5 131 -16.5s68.666 -28.167 93.999 -51.5s46 -49.833 62 -79.5s28.333 -67 37 -112s14.5 -90.333 17.5 -136s4.5 -100.167 4.5 -163.5h-297z" />
    <glyph glyph-name="exclamdown" unicode="&#xa1;" horiz-adv-x="719" 
d="M311 989l-0.999023 -0.00195312c5.33301 22 13.5 38.833 24.5 50.5s23.167 17.5 36.5 17.5s25.5 -5.83301 36.5 -17.5s18.833 -28.5 23.5 -50.5c14.667 -62 40.167 -154.667 76.5 -278s65.666 -230.166 87.999 -320.499s33.5 -158.833 33.5 -205.5
c0 -68.667 -25.833 -122.5 -77.5 -161.5s-112.5 -58.5 -182.5 -58.5c-68.667 0 -127.667 19 -177 57s-74 91.667 -74 161c0 45.333 11 113 33 203s50.5 196.833 85.5 320.5s59.833 217.834 74.5 282.501zM151.001 1392l0.998047 -1c0 75.333 19.833 133.5 59.5 174.5
s86.834 61.5 141.501 61.5c55.333 0 103.833 -20.5 145.5 -61.5s62.5 -96.833 62.5 -167.5c0 -66.667 -20.333 -118.5 -61 -155.5s-89 -55.5 -145 -55.5c-55.333 0 -103.166 18.167 -143.499 54.5s-60.5 86.5 -60.5 150.5z" />
    <glyph glyph-name="cent" unicode="&#xa2;" horiz-adv-x="1462" 
d="M1396 633v-110c0 -37.333 -3.83301 -71.666 -11.5 -102.999s-18.167 -58.833 -31.5 -82.5s-30.333 -45 -51 -64s-42.167 -35 -64.5 -48s-48.333 -24.333 -78 -34s-58.334 -17.167 -86.001 -22.5s-59 -9.66602 -94 -12.999s-67 -5.66602 -96 -6.99902s-61.833 -2 -98.5 -2
v-221h-79v221c-48 0 -91 1.16699 -129 3.5s-79.333 6.83301 -124 13.5s-83.667 15.5 -117 26.5s-66.5 26.167 -99.5 45.5s-59.833 42 -80.5 68s-37.5 58.167 -50.5 96.5s-19.5 81.166 -19.5 128.499v440c0 47.333 6.83301 90 20.5 128s31.167 69.667 52.5 95
s49 47.5 83 66.5s67.833 33.667 101.5 44s72.834 18.666 117.501 24.999s85.167 10.5 121.5 12.5s77.5 3 123.5 3v235h79v-235c40 -0.666992 76.667 -1.83398 110 -3.50098s71.833 -5.66699 115.5 -12s82.5 -14.333 116.5 -24s68.5 -23.5 103.5 -41.5s64 -38.833 87 -62.5
s41.833 -53.167 56.5 -88.5s22 -75 22 -119v-111h-511v238h-100v-746h100v260h511zM598 1119v-746h108v746h-108z" />
    <glyph glyph-name="sterling" unicode="&#xa3;" horiz-adv-x="1598" 
d="M74 265l2.00098 0.999023c105.333 13.333 158 50 158 110v343h-158v222h158v124c0 112.667 7.33301 204.334 22 275.001s44.667 127.667 90 171c51.333 48.667 121.333 81 210 97s201 24 337 24c186.667 0 329.667 -21.333 429 -64c54 -23.333 96.667 -53.833 128 -91.5
s49.333 -86.167 54 -145.5c2 -28.667 3 -56.667 3 -84v-177h-581v294h-107v-424h427v-222h-427v-450h128v294h581v-177c0 -82 -9.5 -148.5 -28.5 -199.5s-52.5 -91.167 -100.5 -120.5c-70 -43.333 -170.667 -65 -302 -65c-128.667 -0 -221.334 30.333 -278.001 91l-38 39
c-31.333 -32.667 -61.5 -57.834 -90.5 -75.501s-66.167 -30.5 -111.5 -38.5c-55.333 -9.33301 -148 -14.666 -278 -15.999h-227v265z" />
    <glyph glyph-name="currency" unicode="&#xa4;" horiz-adv-x="1390" 
d="M698 299c-139.333 1.33301 -253.998 18 -343.998 50l-148 -160l-80 84l118 128c-62.667 40.667 -107.667 92.5 -135 155.5s-41 145.5 -41 247.5c0 106 11 193 33 261s61.333 122.667 118 164l-92 101l80 84l118 -128c96.667 38 220.667 57 372 57
c148 0 270.667 -18.667 368 -56l116 127l81 -84l-91 -99c58.667 -42 99 -95.833 121 -161.5s33 -154.167 33 -265.5c0 -100 -14.333 -182.667 -43 -248s-74.334 -118 -137.001 -158l118 -126l-81 -84l-146 158c-94.667 -31.333 -207.334 -47 -338.001 -47zM637.002 570h112
v500h-112v-500z" />
    <glyph glyph-name="yen" unicode="&#xa5;" horiz-adv-x="1571" 
d="M1425 728v-143h-1298v143h1298zM1425 442v-143h-1298v143h1298zM746 1021l17 -206h29l17 206l159 574h556l-442 -1146v-449h-605v459l-445 1136h560z" />
    <glyph glyph-name="brokenbar" unicode="&#xa6;" horiz-adv-x="831" 
d="M702 656v-911h-571v911h571zM702 1708v-911h-571v911h571z" />
    <glyph glyph-name="section" unicode="&#xa7;" horiz-adv-x="1362" 
d="M265 1046c-118 55.333 -177 149.663 -177 282.996c0 56 5.66699 106 17 150s26.333 81.167 45 111.5s43.334 56.666 74.001 78.999s62 39.833 94 52.5s70.333 22.667 115 30s87.334 12.166 128.001 14.499s87.667 3.5 141 3.5c44 0 82.5 -0.666992 115.5 -2
s70.833 -4.66602 113.5 -9.99902s79.5 -12.833 110.5 -22.5s62.5 -23.5 94.5 -41.5s58.167 -39.333 78.5 -64s36.833 -55.667 49.5 -93s19 -79.333 19 -126c0 -11.333 -0.166992 -28.666 -0.5 -51.999s-0.5 -41 -0.5 -53h-552v191h-73v-249
c3.33301 -3.33301 8.33301 -6.16602 15 -8.49902s14.667 -4 24 -5s17.833 -1.66699 25.5 -2s17.334 -0.666016 29.001 -0.999023s20.167 -0.5 25.5 -0.5c133.333 -5.33301 232 -17 296 -35c148 -40.667 222 -123 222 -247c0 -115.333 -50.667 -196.666 -152 -243.999
c-28 -13.333 -47.667 -20 -59 -20c2.66699 -1.33301 10.5 -4.66602 23.5 -9.99902s23.167 -10.333 30.5 -15c94 -56.667 141 -143 141 -259c0 -56 -5.66699 -106 -17 -150s-26.333 -81.167 -45 -111.5s-43.334 -56.666 -74.001 -78.999s-62 -39.833 -94 -52.5
s-70.333 -22.667 -115 -30s-87.334 -12.166 -128.001 -14.499s-87.667 -3.5 -141 -3.5c-44 0 -82.5 0.666992 -115.5 2s-70.833 4.83301 -113.5 10.5s-79.334 13.334 -110.001 23.001s-62 23.5 -94 41.5s-58 39.333 -78 64s-36.333 55.667 -49 93s-19 79.666 -19 126.999
c0 11.333 0.166992 28.666 0.5 51.999s0.5 41 0.5 53h551v-191h73v252h-255c-121.333 0 -215.333 22.5 -282 67.5s-100 121.167 -100 228.5c0 64.667 16 118.667 48 162s74.333 74.666 127 93.999zM717 747.997v223h-69v-223h69z" />
    <glyph glyph-name="dieresis" unicode="&#xa8;" horiz-adv-x="1296" 
d="M533 418v-336h-450v336h450zM1217 418v-336h-451v336h451z" />
    <glyph glyph-name="copyright" unicode="&#xa9;" horiz-adv-x="1861" 
d="M932 -101c-106.667 0 -201.834 6.16797 -285.501 18.501s-161.334 33.666 -233.001 63.999s-131.167 69.5 -178.5 117.5s-84.333 109 -111 183s-40 159.667 -40 257v577c0 72.667 8 139 24 199s38 111.667 66 155s63 81.333 105 114s86.5 59.334 133.5 80.001
s99.833 37.5 158.5 50.5s116.834 22 174.501 27s119.834 7.5 186.501 7.5c106 0 200.833 -6 284.5 -18s161.5 -32.833 233.5 -62.5s131.667 -68.334 179 -116.001s84.333 -108.167 111 -181.5s40 -158.333 40 -255v-577c0 -102 -15.5 -191.333 -46.5 -268
s-72 -138.167 -123 -184.5s-114 -84 -189 -113s-151.5 -48.667 -229.5 -59s-164.667 -15.5 -260 -15.5zM323 1114l-0.00488281 -579.001c0 -90.667 12.167 -166.334 36.5 -227.001s62.833 -108.667 115.5 -144s115.334 -60.166 188.001 -74.499s162.334 -21.5 269.001 -21.5
c76.667 0 145 3.83301 205 11.5s116 21.167 168 40.5s94.833 44.5 128.5 75.5s60 70.5 79 118.5s28.5 104 28.5 168v683c0 65.333 -10.333 122.333 -31 171s-48.5 87.834 -83.5 117.501s-79.167 53.667 -132.5 72s-108.666 30.833 -165.999 37.5s-122.666 10 -195.999 10
c-106.667 0 -196.667 -7.16699 -270 -21.5s-136.166 -39 -188.499 -74s-90.5 -82.167 -114.5 -141.5s-36 -133.333 -36 -222zM834.995 432l199.005 -0.00292969v317h277v-207c0 -45.333 -6.16699 -84.166 -18.5 -116.499s-28.833 -58.333 -49.5 -78
s-48.334 -35.167 -83.001 -46.5s-70.834 -19 -108.501 -23s-82.834 -6 -135.501 -6c-58.667 0 -108.167 3.5 -148.5 10.5s-77.5 20.167 -111.5 39.5s-59.333 47.5 -76 84.5s-25 83.833 -25 140.5v560c0 55.333 7.66699 101.333 23 138s39.5 64.834 72.5 84.501
s70.167 33.167 111.5 40.5s92.666 11 153.999 11c33.333 0 61.5 -0.5 84.5 -1.5s49.333 -3.5 79 -7.5s54.667 -9.66699 75 -17s41.166 -17.666 62.499 -30.999s38.333 -29.333 51 -48s23 -42 31 -70s12 -59.667 12 -95v-198h-277v309h-199v-790z" />
    <glyph glyph-name="ordfeminine" unicode="&#xaa;" horiz-adv-x="1471" 
d="M1380 546l0.999023 1c0 -84.667 9.33301 -170.334 28 -257.001h-520l-56 138c-31.333 -52 -75.833 -92.5 -133.5 -121.5s-126.5 -43.5 -206.5 -43.5c-142.667 0 -248.5 33.833 -317.5 101.5s-103.5 171.834 -103.5 312.501c0 150 39.333 260.167 118 330.5
s196.667 105.5 354 105.5c94 0 182.667 -13.667 266 -41v323h-139v-191l-525 -20c-7.33301 42.667 -11 79.334 -11 110.001c0 42.667 7 80.667 21 114s32.167 60.666 54.5 81.999s50.666 39.833 84.999 55.5s68.5 27.667 102.5 36s73 15.5 117 21.5
c60.667 8.66699 135.334 13 224.001 13c194.667 0 343.667 -21 447 -63c118.667 -48.667 182.334 -126 191.001 -232c2 -28 3 -54.667 3 -80v-695zM643.999 942v-453h166v453h-166z" />
    <glyph glyph-name="guillemotleft" unicode="&#xab;" horiz-adv-x="1806" 
d="M711 213l-527.002 379.999c-29.333 20.667 -51.666 47.334 -66.999 80.001s-23 66.667 -23 102c0.666992 36.667 8.83398 71.667 24.501 105s37.5 60.333 65.5 81l527 380c21.333 15.333 43 23 65 23c22.667 0 41.834 -8.33301 57.501 -25s23.5 -37 23.5 -61
s-8.33301 -47 -25 -69l-334 -432l334 -432c15.333 -20 23 -42.667 23 -68c0 -24 -7.83301 -44.5 -23.5 -61.5s-34.834 -25.5 -57.501 -25.5c-22 0 -43 7.66699 -63 23zM1446 212.999l-526.002 380c-29.333 20.667 -51.666 47.334 -66.999 80.001s-23 66.667 -23 102
c0.666992 36.667 8.83398 71.667 24.501 105s37.5 60.333 65.5 81l526 380c21.333 15.333 43.333 23 66 23s41.667 -8.33301 57 -25s23 -37 23 -61c0 -24.667 -8 -47.667 -24 -69l-334 -432l334 -432c14.667 -18.667 22 -41.334 22 -68.001c0 -24 -7.66699 -44.5 -23 -61.5
s-34.333 -25.5 -57 -25.5c-22 0 -43.333 7.66699 -64 23z" />
    <glyph glyph-name="logicalnot" unicode="&#xac;" horiz-adv-x="1269" 
d="M1179 300h-229v491h-867v314h1096v-805z" />
    <glyph glyph-name="uni00AD" unicode="&#xad;" horiz-adv-x="1005" 
d="M920 897v-336h-833v336h833z" />
    <glyph glyph-name="registered" unicode="&#xae;" horiz-adv-x="1861" 
d="M932 -101c-106.667 0 -201.834 6.16797 -285.501 18.501s-161.334 33.666 -233.001 63.999s-131.167 69.5 -178.5 117.5s-84.333 109 -111 183s-40 159.667 -40 257v577c0 72.667 8 139 24 199s38 111.667 66 155s63 81.333 105 114s86.5 59.334 133.5 80.001
s99.833 37.5 158.5 50.5s116.834 22 174.501 27s119.834 7.5 186.501 7.5c106 0 200.833 -6 284.5 -18s161.5 -32.833 233.5 -62.5s131.667 -68.334 179 -116.001s84.333 -108.167 111 -181.5s40 -158.333 40 -255v-577c0 -102 -15.5 -191.333 -46.5 -268
s-72 -138.167 -123 -184.5s-114 -84 -189 -113s-151.5 -48.667 -229.5 -59s-164.667 -15.5 -260 -15.5zM323 1114l-0.00488281 -579.001c0 -90.667 12.167 -166.334 36.5 -227.001s62.833 -108.667 115.5 -144s115.334 -60.166 188.001 -74.499s162.334 -21.5 269.001 -21.5
c76.667 0 145 3.83301 205 11.5s116 21.167 168 40.5s94.833 44.5 128.5 75.5s60 70.5 79 118.5s28.5 104 28.5 168v683c0 65.333 -10.333 122.333 -31 171s-48.5 87.834 -83.5 117.501s-79.167 53.667 -132.5 72s-108.666 30.833 -165.999 37.5s-122.666 10 -195.999 10
c-106.667 0 -196.667 -7.16699 -270 -21.5s-136.166 -39 -188.499 -74s-90.5 -82.167 -114.5 -141.5s-36 -133.333 -36 -222zM1116 835l110.996 -7.00098c41.333 -2.66699 73.333 -20.5 96 -53.5s34 -76.833 34 -131.5v-364h-379v477h-83v-477h-389v1155h510
c26.667 0 49.5 -0.5 68.5 -1.5s41.5 -3.33301 67.5 -7s47.833 -9 65.5 -16s36.334 -17.167 56.001 -30.5s35.334 -29.333 47.001 -48s21.334 -42.167 29.001 -70.5s11.5 -60.5 11.5 -96.5v-93c0 -62 -12.167 -111.167 -36.5 -147.5s-57.166 -56.166 -98.499 -59.499
l-110 -10v-19zM894.991 914.999h83v359h-83v-359z" />
    <glyph glyph-name="macron" unicode="&#xaf;" horiz-adv-x="999" 
d="M920 897v-231h-833v231h833z" />
    <glyph glyph-name="degree" unicode="&#xb0;" horiz-adv-x="812" 
d="M73 1371c0 80.667 30.333 151 91 211s140.667 90 240 90s179.333 -30 240 -90s91 -130.333 91 -211s-30.333 -151 -91 -211s-140.667 -90 -240 -90s-179.333 30 -240 90s-91 130.333 -91 211zM545 1371c0 44 -13.167 79.833 -39.5 107.5s-60.166 41.5 -101.499 41.5
s-75.166 -13.833 -101.499 -41.5s-39.5 -63.5 -39.5 -107.5s13.167 -79.833 39.5 -107.5s60.166 -41.5 101.499 -41.5s75.166 13.833 101.499 41.5s39.5 63.5 39.5 107.5z" />
    <glyph glyph-name="plusminus" unicode="&#xb1;" horiz-adv-x="1304" 
d="M457 1214v381h392v-381h364v-333h-364v-378h-392v378h-365v333h365zM1064 300v-301h-834v301h834z" />
    <glyph glyph-name="uni00B2" unicode="&#xb2;" horiz-adv-x="1090" 
d="M189 836c0 4.66699 -0.163086 11.6709 -0.496094 21.0039s-0.5 16.333 -0.5 21c0 52.667 7 98.667 21 138s33 71.166 57 95.499s54.333 43.833 91 58.5s75 24.834 115 30.501s86 8.5 138 8.5c69.333 0 128.166 -5 176.499 -15s91.166 -27.167 128.499 -51.5
s65.166 -58.5 83.499 -102.5s27.5 -98.667 27.5 -164c0 -46.667 -6.33301 -89.334 -19 -128.001s-28 -70.834 -46 -96.501s-42.667 -50.334 -74 -74.001s-60 -42.334 -86 -56.001s-58.667 -29.5 -98 -47.5c-22 -10 -40 -18.667 -54 -26s-29.333 -17 -46 -29
s-29.167 -25.167 -37.5 -39.5s-12.5 -30.166 -12.5 -47.499h433v-198h-797v179c0 64 7.66699 120.667 23 170s38.333 91.666 69 126.999s64.667 65.333 102 90s82 47.334 134 68.001c21.333 8.66699 37.666 15.667 48.999 21s25 12.666 41 21.999s27.667 19.5 35 30.5
s11 22.833 11 35.5v153h-100v-194h-364z" />
    <glyph glyph-name="uni00B3" unicode="&#xb3;" horiz-adv-x="1101" 
d="M1036 881c0 -101.333 -46 -172.001 -138 -212.001c46 -17.333 80.833 -46.166 104.5 -86.499s35.5 -88.166 35.5 -143.499c0 -121.333 -34.333 -208.166 -103 -260.499s-178 -78.5 -328 -78.5c-146.667 0 -254.5 30.333 -323.5 91s-103.5 154 -103.5 280
c0 19.333 1 39.666 3 60.999h366v-250h113v313h-171v148h171v284h-113v-223h-366c-2 19.333 -3 37.666 -3 54.999c0 127.333 34.5 216.833 103.5 268.5s176.5 77.5 322.5 77.5c142.667 0 250 -24.5 322 -73.5s108 -132.5 108 -250.5z" />
    <glyph glyph-name="acute" unicode="&#xb4;" horiz-adv-x="873" 
d="M59 1480l125 115.503l139.5 129c33 30.333 70.333 62.666 112 96.999s74.167 58.166 97.5 71.499c42.667 24.667 84.334 37 125.001 37c50 0 91.5 -17.5 124.5 -52.5s49.5 -76.833 49.5 -125.5c0 -34.667 -9.66699 -68 -29 -100s-48.333 -59.333 -87 -82
c-24 -14 -61.333 -30 -112 -48s-98.834 -33.833 -144.501 -47.5l-178.5 -51.5c-73.333 -20.667 -127 -36.334 -161 -47.001c-9.33301 -3.33301 -20 -5 -32 -5c-18 0 -33 4.66699 -45 14s-18 21 -18 35c0 20 11.333 40 34 60z" />
    <glyph glyph-name="uni00B5" unicode="&#xb5;" horiz-adv-x="1707" 
 />
    <glyph glyph-name="paragraph" unicode="&#xb6;" horiz-adv-x="1318" 
d="M591 659c-174 0 -306.667 35.502 -398 106.502s-137 184.833 -137 341.5c0 79.333 11.167 148.5 33.5 207.5s51.833 106.167 88.5 141.5s83.167 63.666 139.5 84.999s113.5 35.666 171.5 42.999s124.667 11 200 11h534v-1595h-261v658h-109v-658h-262v659z" />
    <glyph glyph-name="cedilla" unicode="&#xb8;" horiz-adv-x="948" 
d="M384 0l177 0.00195312v-70c76 0 133.333 -11.333 172 -34s58 -64 58 -124v-95c0 -33.333 -6.33301 -60.833 -19 -82.5s-31.334 -37.834 -56.001 -48.501s-50.667 -17.834 -78 -21.501s-60.666 -5.5 -99.999 -5.5c-84 0 -147.333 10.833 -190 32.5s-64 63.5 -64 125.5v56
l227 28v-132h63v191h-190v180z" />
    <glyph glyph-name="uni00B9" unicode="&#xb9;" horiz-adv-x="731" 
d="M115 1115c91.333 0 167 18.333 227 55h312v-1040h-395v841h-144v144z" />
    <glyph glyph-name="ordmasculine" unicode="&#xba;" horiz-adv-x="1334" 
d="M744 99c-43.333 0 -80 0.500977 -110 1.50098s-64.833 3.83301 -104.5 8.5s-73 11.167 -100 19.5s-54.833 20.333 -83.5 36s-51.667 34.334 -69 56.001s-31.5 48.834 -42.5 81.501s-16.5 69.667 -16.5 111v480c0 40.667 5.83301 77 17.5 109s26.5 58.833 44.5 80.5
s41.667 40.167 71 55.5s58 27.166 86 35.499s61.333 14.833 100 19.5s73 7.66699 103 9s65 2 105 2c41.333 0 77.5 -0.666992 108.5 -2s65.5 -4.5 103.5 -9.5s70.833 -11.833 98.5 -20.5s55.334 -20.834 83.001 -36.501s50.167 -34.167 67.5 -55.5s31.5 -48 42.5 -80
s16.5 -68 16.5 -108v-480c0 -48.667 -6.5 -91.167 -19.5 -127.5s-33.833 -65.5 -62.5 -87.5s-56.834 -39.833 -84.501 -53.5s-65 -23.5 -112 -29.5s-85.833 -9.83301 -116.5 -11.5s-72.667 -2.83398 -126 -3.50098zM675 317.001h133v697h-133v-697z" />
    <glyph glyph-name="guillemotright" unicode="&#xbb;" horiz-adv-x="1770" 
d="M1552 593l-527.002 -379.999c-20 -15.333 -41 -23 -63 -23c-22.667 0 -41.834 8.5 -57.501 25.5s-23.5 37.5 -23.5 61.5c0 25.333 7.66699 48 23 68l334 432l-334 432c-16.667 22 -25 45 -25 69s7.83301 44.333 23.5 61s34.834 25 57.501 25c22 0 43.667 -7.66699 65 -23
l527 -380c28 -20.667 49.833 -47.667 65.5 -81s23.834 -68.333 24.501 -105c0 -35.333 -7.66699 -69.333 -23 -102s-37.666 -59.334 -66.999 -80.001zM815.998 593.001l-526.002 -380c-20.667 -15.333 -42 -23 -64 -23c-22.667 0 -41.667 8.5 -57 25.5s-23 37.5 -23 61.5
c0 26.667 7.33301 49.334 22 68.001l334 432l-334 432c-16 21.333 -24 44.333 -24 69c0 24 7.66699 44.333 23 61s34.333 25 57 25s44.667 -7.66699 66 -23l526 -380c28 -20.667 49.833 -47.667 65.5 -81s23.834 -68.333 24.501 -105c0 -35.333 -7.66699 -69.333 -23 -102
s-37.666 -59.334 -66.999 -80.001z" />
    <glyph glyph-name="onequarter" unicode="&#xbc;" horiz-adv-x="2565" 
d="M2499 130h-359v161h-516v280l170 601h385l-169 -601v-36h130v225h359v-630zM31 1415c91.333 0 167 18.333 227 55h312v-1040h-395v841h-144v144zM751 0l352 1595h434l-351 -1595h-435z" />
    <glyph glyph-name="onehalf" unicode="&#xbd;" horiz-adv-x="2580" 
d="M1685 836c0 4.66699 -0.165039 11.6709 -0.498047 21.0039s-0.5 16.333 -0.5 21c0 52.667 7 98.667 21 138s33 71.166 57 95.499s54.333 43.833 91 58.5s75 24.834 115 30.501s86 8.5 138 8.5c69.333 0 128.166 -5 176.5 -15c48.333 -10 91.166 -27.167 128.5 -51.5
c37.333 -24.333 65.166 -58.5 83.499 -102.5s27.5 -98.667 27.5 -164c0 -46.667 -6.33301 -89.334 -19 -128.001s-28 -70.834 -46 -96.501s-42.667 -50.334 -74 -74.001s-60 -42.334 -86 -56.001s-58.667 -29.5 -98 -47.5c-22 -10 -40 -18.667 -54 -26s-29.333 -17 -46 -29
s-29.167 -25.167 -37.5 -39.5s-12.5 -30.166 -12.5 -47.499h433v-198h-797v179c0 64 7.66699 120.667 23 170s38.333 91.666 69 126.999s64.667 65.333 102 90s82 47.334 134 68.001c21.333 8.66699 37.666 15.667 48.999 21s25 12.666 41 21.999s27.667 19.5 35 30.5
s11 22.833 11 35.5v153h-100v-194h-364zM31.002 1415c91.333 0 167 18.333 227 55h312v-1040h-395v841h-144v144zM766.002 0.00390625l352 1595h434l-351 -1595h-435z" />
    <glyph glyph-name="threequarters" unicode="&#xbe;" horiz-adv-x="2894" 
d="M2828 130h-359v161h-516v280l170 601h385l-169 -601v-36h130v225h359v-630zM995 1175c0 -101.333 -46 -172.001 -138 -212.001c46 -17.333 80.833 -46.166 104.5 -86.499s35.5 -88.166 35.5 -143.499c0 -121.333 -34.333 -208.166 -103 -260.499s-178 -78.5 -328 -78.5
c-146.667 0 -254.5 30.333 -323.5 91s-103.5 154 -103.5 280c0 19.333 1 39.666 3 60.999h366v-250h113v313h-171v148h171v284h-113v-223h-366c-2 19.333 -3 37.666 -3 54.999c0 127.333 34.5 216.833 103.5 268.5s176.5 77.5 322.5 77.5c142.667 0 250 -24.5 322 -73.5
s108 -132.5 108 -250.5zM1120 -0.000976562l352 1595h434l-351 -1595h-435z" />
    <glyph glyph-name="questiondown" unicode="&#xbf;" horiz-adv-x="906" 
d="M492.966 1031c4.66895 38 25.335 56.999 62.002 56.999c40.667 0 60.999 -24 60.9961 -72c-0.00292969 -52.667 -6.33984 -106.667 -19.0098 -162c-12.6709 -55.333 -27.0068 -102.333 -43.0088 -141l-49.5078 -125.5c-17.0029 -45 -28.1719 -82.5 -33.5068 -112.5
c-1.33398 -12 -2.00098 -21 -2.00195 -27c-0.00195312 -34 11.4961 -61.5 34.4951 -82.5s58.832 -31.5 107.499 -31.5c52 0 116.668 16.333 194.003 49l35.9785 -347c-146.003 -46.667 -269.671 -70 -371.004 -70c-64.667 0 -122.333 6 -172.999 18s-92.165 28 -124.497 48
s-58.8301 44 -79.4951 72s-35.1631 56.667 -43.4941 86s-12.4961 61 -12.4941 95c0.00292969 41.333 7.67188 80.833 23.0068 118.5c15.3359 37.667 35.5049 71.834 60.5068 102.501s52.6699 61 83.0049 91l93.0059 92c31.6689 31.333 61.1709 63.333 88.5059 96
s50.8369 70.167 70.5059 112.5s32.1719 86.833 37.5088 133.5zM756.987 1427c-0.00390625 -66 -20.1709 -117.5 -60.5059 -154.5c-40.3359 -37 -88.1709 -55.5 -143.504 -55.5s-103.165 18.5 -143.496 55.5s-60.4951 88.5 -60.4912 154.5
c0.00488281 66 20.1748 117.5 60.5098 154.5s88.1689 55.5 143.502 55.5s103.165 -18.5 143.496 -55.5s60.4941 -88.5 60.4893 -154.5z" />
    <glyph glyph-name="Agrave" unicode="&#xc0;" horiz-adv-x="1565" 
d="M1154 1842c22.667 -20 34 -40.001 34 -60.001c0 -14 -6 -25.667 -18 -35s-27 -14 -45 -14c-12 0 -22.667 1.66699 -32 5c-34 10.667 -87.667 26.334 -161 47.001l-178.5 51.5c-45.667 13.667 -93.834 29.5 -144.501 47.5s-88 34 -112 48
c-38.667 22.667 -67.667 50 -87 82s-29 65.333 -29 100c0 48.667 16.5 90.5 49.5 125.5s74.5 52.5 124.5 52.5c40.667 0 82.334 -12.333 125.001 -37c23.333 -13.333 55.833 -37.166 97.5 -71.5c41.667 -34.333 79 -66.666 112 -97l139.5 -129zM677 365.999l-55 -366h-586
l292 1595h907l297 -1595h-587l-54 366h-214zM816 1085l-15 198h-39l-13 -198l-54 -509h178z" />
    <glyph glyph-name="Aacute" unicode="&#xc1;" horiz-adv-x="1565" 
d="M415 1842l125 115.502l139.5 129c33 30.333 70.333 62.666 112 97c41.667 34.333 74.167 58.166 97.5 71.499c42.667 24.667 84.334 37 125.001 37c50 0 91.5 -17.5 124.5 -52.5s49.5 -76.833 49.5 -125.5c0 -34.667 -9.66699 -68 -29 -100s-48.333 -59.333 -87 -82
c-24 -14 -61.333 -30 -112 -48s-98.834 -33.833 -144.501 -47.5l-178.5 -51.5c-73.333 -20.667 -127 -36.334 -161 -47.001c-9.33301 -3.33301 -20 -5 -32 -5c-18 0 -33 4.66699 -45 14s-18 21 -18 35c0 20 11.333 40 34 60zM677 366.002l-55 -366h-586l292 1595h907
l297 -1595h-587l-54 366h-214zM816 1085l-15 198h-39l-13 -198l-54 -509h178z" />
    <glyph glyph-name="Acircumflex" unicode="&#xc2;" horiz-adv-x="1565" 
d="M379 1849l263.001 409.002c14.667 23.333 35 41.166 61 53.499s53.333 18.5 82 18.5c62.667 0 109.667 -24 141 -72l263 -409c12 -19.333 18 -37 18 -53c0 -18 -6 -33 -18 -45s-27 -18 -45 -18c-19.333 0 -38.333 7.33301 -57 22l-303 235l-303 -235
c-17.333 -13.333 -35.333 -20 -54 -20s-34.334 5.83301 -47.001 17.5s-19 26.5 -19 44.5c0 15.333 6 32.666 18 51.999zM677.001 366.002l-55 -366h-586l292 1595h907l297 -1595h-587l-54 366h-214zM816.001 1085l-15 198h-39l-13 -198l-54 -509h178z" />
    <glyph glyph-name="Atilde" unicode="&#xc3;" horiz-adv-x="1565" 
d="M1128 1759h2.99609c0 46.667 -8.83301 85.667 -26.5 117s-45.5 47 -83.5 47c-13.333 0 -27.166 -3.16699 -41.499 -9.5s-24.5 -11.5 -30.5 -15.5s-16.333 -12 -31 -24c-57.333 -46 -113 -81 -167 -105s-120.667 -36 -200 -36c-114 0 -200 25 -258 75
s-98.667 127 -122 231c-18 62.667 -27 144.334 -27 245h296c0 -48.667 8.66699 -88.834 26 -120.5c17.333 -31.667 46 -47.5 86 -47.5c4.66699 0 9.33398 0.333008 14.001 1s9.33398 1.66699 14.001 3l12.5 3.5c3.66699 1 8 3 13 6l11 6.5
c2.33301 1.33301 6.33301 3.83301 12 7.5s9.16699 6 10.5 7l11 8c6 4.33301 9.33301 6.83301 10 7.5c35.333 26 60.666 44 75.999 54s39.5 23.833 72.5 41.5s66.167 30 99.5 37s70 10.5 110 10.5c50.667 0 95.834 -4.16699 135.501 -12.5s73.834 -20 102.501 -35
s53 -35 73 -60s36.167 -51.5 48.5 -79.5s22 -62.167 29 -102.5s11.667 -80.333 14 -120s3.5 -86.5 3.5 -140.5h-296zM676.996 366l-55 -366h-586l292 1595h907l297 -1595h-587l-54 366h-214zM815.996 1085l-15 198h-39l-13 -198l-54 -509h178z" />
    <glyph glyph-name="Adieresis" unicode="&#xc4;" horiz-adv-x="1565" 
d="M667 2069v-336h-450v336h450zM1351 2069v-336h-451v336h451zM677 366l-55 -366h-586l292 1595h907l297 -1595h-587l-54 366h-214zM816 1085l-15 198h-39l-13 -198l-54 -509h178z" />
    <glyph glyph-name="Aring" unicode="&#xc5;" horiz-adv-x="1565" 
d="M451 1930c0 71.333 18.999 132.67 56.999 184.003s86.667 89 146 113c40 16.667 83.333 25 130 25c72.667 0 135.667 -18.333 189 -55s92.666 -83.667 117.999 -141c17.333 -40 26 -82 26 -126c0 -70.667 -19.167 -131.334 -57.5 -182.001
s-87.166 -88.334 -146.499 -113.001c-39.333 -16.667 -82.333 -25 -129 -25c-72.667 0 -135.667 18.167 -189 54.5s-92.666 83.166 -117.999 140.499c-17.333 40 -26 81.667 -26 125zM781.999 2052c-34.667 0 -63.5 -11.5 -86.5 -34.5s-34.5 -52.167 -34.5 -87.5
c0 -34 11.667 -62.667 35 -86s52 -35 86 -35c33.333 0 61.833 11.833 85.5 35.5s35.5 52.167 35.5 85.5c0 34.667 -11.667 63.667 -35 87s-52 35 -86 35zM676.999 366.004l-55 -366h-586l292 1595h907l297 -1595h-587l-54 366h-214zM815.999 1085l-15 198h-39l-13 -198
l-54 -509h178z" />
    <glyph glyph-name="AE" unicode="&#xc6;" horiz-adv-x="2011" 
d="M1946 1595v-241h-341v-393h318v-250h-318v-467h341v-244h-954h-5v348h-213l-111 -348h-625l635 1595h1273zM847 578h140v423z" />
    <glyph glyph-name="Ccedilla" unicode="&#xc7;" horiz-adv-x="1540" 
d="M692 -24l177 0.00195312v-70c76 0 133.333 -11.333 172 -34s58 -64 58 -124v-95c0 -33.333 -6.33301 -60.833 -19 -82.5s-31.334 -37.834 -56.001 -48.501s-50.667 -17.834 -78 -21.501s-60.666 -5.5 -99.999 -5.5c-84 0 -147.333 10.833 -190 32.5s-64 63.5 -64 125.5
v56l227 28v-132h63v191h-190v180zM868 1356l-173.003 -0.00195312v-1123h173v381h604v-245c0 -52 -7.66699 -98.833 -23 -140.5s-35.166 -76.5 -59.499 -104.5s-55.166 -52.333 -92.499 -73s-74.833 -36.667 -112.5 -48s-81.167 -20.333 -130.5 -27s-93.833 -11 -133.5 -13
s-84.5 -3 -134.5 -3c-46 0 -88 0.833008 -126 2.5s-81.833 5.83398 -131.5 12.501s-93.834 15.667 -132.501 27s-78 27.333 -118 48s-73 45 -99 73s-47.333 63 -64 105s-25 89.333 -25 142v856c0 51.333 7.83301 97.833 23.5 139.5s36 76.334 61 104.001
s56.5 51.834 94.5 72.501s76.167 36.5 114.5 47.5s82.333 19.833 132 26.5s94.334 11 134.001 13s84.167 3 133.5 3c52.667 0 98.667 -0.833008 138 -2.5s84.333 -5.66699 135 -12s94.334 -14.833 131.001 -25.5s74 -26.167 112 -46.5s68.833 -44.5 92.5 -72.5
s43 -62.833 58 -104.5s22.5 -88.834 22.5 -141.501v-248h-604v377z" />
    <glyph glyph-name="Egrave" unicode="&#xc8;" horiz-adv-x="1114" 
d="M946 1842c22.667 -20 34 -40.001 34 -60.001c0 -14 -6 -25.667 -18 -35s-27 -14 -45 -14c-12 0 -22.667 1.66699 -32 5c-34 10.667 -87.667 26.334 -161 47.001l-178.5 51.5c-45.667 13.667 -93.834 29.5 -144.501 47.5s-88 34 -112 48c-38.667 22.667 -67.667 50 -87 82
s-29 65.333 -29 100c0 48.667 16.5 90.5 49.5 125.5s74.5 52.5 124.5 52.5c40.667 0 82.334 -12.333 125.001 -37c23.333 -13.333 55.833 -37.166 97.5 -71.5c41.667 -34.333 79 -66.666 112 -97l139.5 -129zM1049 1595v-249h-341v-385h318v-250h-318v-460h341v-251h-945
v1595h945z" />
    <glyph glyph-name="Eacute" unicode="&#xc9;" horiz-adv-x="1114" 
d="M207 1842l125 115.502l139.5 129c33 30.333 70.333 62.666 112 97c41.667 34.333 74.167 58.166 97.5 71.499c42.667 24.667 84.334 37 125.001 37c50 0 91.5 -17.5 124.5 -52.5s49.5 -76.833 49.5 -125.5c0 -34.667 -9.66699 -68 -29 -100s-48.333 -59.333 -87 -82
c-24 -14 -61.333 -30 -112 -48s-98.834 -33.833 -144.501 -47.5l-178.5 -51.5c-73.333 -20.667 -127 -36.334 -161 -47.001c-9.33301 -3.33301 -20 -5 -32 -5c-18 0 -33 4.66699 -45 14s-18 21 -18 35c0 20 11.333 40 34 60zM1049 1595v-249h-341v-385h318v-250h-318v-460
h341v-251h-945v1595h945z" />
    <glyph glyph-name="Ecircumflex" unicode="&#xca;" horiz-adv-x="1114" 
d="M172 1849l263.001 409.002c14.667 23.333 35 41.166 61 53.499s53.333 18.5 82 18.5c62.667 0 109.667 -24 141 -72l263 -409c12 -19.333 18 -37 18 -53c0 -18 -6 -33 -18 -45s-27 -18 -45 -18c-19.333 0 -38.333 7.33301 -57 22l-303 235l-303 -235
c-17.333 -13.333 -35.333 -20 -54 -20s-34.334 5.83301 -47.001 17.5s-19 26.5 -19 44.5c0 15.333 6 32.666 18 51.999zM1049 1595v-249h-341v-385h318v-250h-318v-460h341v-251h-945v1595h945z" />
    <glyph glyph-name="Edieresis" unicode="&#xcb;" horiz-adv-x="1114" 
d="M459 2069v-336h-450v336h450zM1143 2069v-336h-451v336h451zM1049 1595v-249h-341v-385h318v-250h-318v-460h341v-251h-945v1595h945z" />
    <glyph glyph-name="Igrave" unicode="&#xcc;" horiz-adv-x="788" 
d="M776 1842c22.667 -20 34 -40.001 34 -60.001c0 -14 -6 -25.667 -18 -35s-27 -14 -45 -14c-12 0 -22.667 1.66699 -32 5c-34 10.667 -87.667 26.334 -161 47.001l-178.5 51.5c-45.667 13.667 -93.834 29.5 -144.501 47.5s-88 34 -112 48c-38.667 22.667 -67.667 50 -87 82
s-29 65.333 -29 100c0 48.667 16.5 90.5 49.5 125.5s74.5 52.5 124.5 52.5c40.667 0 82.334 -12.333 125.001 -37c23.333 -13.333 55.833 -37.166 97.5 -71.5c41.667 -34.333 79 -66.666 112 -97l139.5 -129zM708 1595v-1595h-604v1595h604z" />
    <glyph glyph-name="Iacute" unicode="&#xcd;" horiz-adv-x="788" 
d="M37 1842l125 115.502l139.5 129c33 30.333 70.333 62.666 112 97c41.667 34.333 74.167 58.166 97.5 71.499c42.667 24.667 84.334 37 125.001 37c50 0 91.5 -17.5 124.5 -52.5s49.5 -76.833 49.5 -125.5c0 -34.667 -9.66699 -68 -29 -100s-48.333 -59.333 -87 -82
c-24 -14 -61.333 -30 -112 -48s-98.834 -33.833 -144.501 -47.5l-178.5 -51.5c-73.333 -20.667 -127 -36.334 -161 -47.001c-9.33301 -3.33301 -20 -5 -32 -5c-18 0 -33 4.66699 -45 14s-18 21 -18 35c0 20 11.333 40 34 60zM708 1595v-1595h-604v1595h604z" />
    <glyph glyph-name="Icircumflex" unicode="&#xce;" horiz-adv-x="788" 
d="M1 1849l263.001 409.002c14.667 23.333 35 41.166 61 53.499s53.333 18.5 82 18.5c62.667 0 109.667 -24 141 -72l263 -409c12 -19.333 18 -37 18 -53c0 -18 -6 -33 -18 -45s-27 -18 -45 -18c-19.333 0 -38.333 7.33301 -57 22l-303 235l-303 -235
c-17.333 -13.333 -35.333 -20 -54 -20s-34.334 5.83301 -47.001 17.5s-19 26.5 -19 44.5c0 15.333 6 32.666 18 51.999zM708.001 1595v-1595h-604v1595h604z" />
    <glyph glyph-name="Idieresis" unicode="&#xcf;" horiz-adv-x="788" 
d="M289 2069v-336h-450v336h450zM973 2069v-336h-451v336h451zM708 1595v-1595h-604v1595h604z" />
    <glyph glyph-name="Eth" unicode="&#xd0;" horiz-adv-x="1449" 
d="M773 868v-142h-721v142h721zM645 237h236v1121h-236v-1121zM1378 393l-2 -1.00195c0 -87.333 -12.667 -156.166 -38 -206.499s-68 -90.166 -128 -119.499c-90 -44 -221 -66 -393 -66h-671v1595h671c172 0 303.333 -22 394 -66c103.333 -49.333 158 -129.333 164 -240
c2 -30 3 -58.333 3 -85v-811z" />
    <glyph glyph-name="Ntilde" unicode="&#xd1;" horiz-adv-x="1576" 
d="M1144 1759h2.99609c0 46.667 -8.83301 85.667 -26.5 117s-45.5 47 -83.5 47c-13.333 0 -27.166 -3.16699 -41.499 -9.5s-24.5 -11.5 -30.5 -15.5s-16.333 -12 -31 -24c-57.333 -46 -113 -81 -167 -105s-120.667 -36 -200 -36c-114 0 -200 25 -258 75
s-98.667 127 -122 231c-18 62.667 -27 144.334 -27 245h296c0 -48.667 8.66699 -88.834 26 -120.5c17.333 -31.667 46 -47.5 86 -47.5c4.66699 0 9.33398 0.333008 14.001 1s9.33398 1.66699 14.001 3l12.5 3.5c3.66699 1 8 3 13 6l11 6.5
c2.33301 1.33301 6.33301 3.83301 12 7.5s9.16699 6 10.5 7l11 8c6 4.33301 9.33301 6.83301 10 7.5c35.333 26 60.666 44 75.999 54s39.5 23.833 72.5 41.5s66.167 30 99.5 37s70 10.5 110 10.5c50.667 0 95.834 -4.16699 135.501 -12.5s73.834 -20 102.501 -35
s53 -35 73 -60s36.167 -51.5 48.5 -79.5s22 -62.167 29 -102.5s11.667 -80.333 14 -120s3.5 -86.5 3.5 -140.5h-296zM956.996 0l-405 711v-711h-448v1595h517l431 -761v761h444v-1595h-539z" />
    <glyph glyph-name="Ograve" unicode="&#xd2;" horiz-adv-x="1542" 
d="M1150 1842c22.667 -20 34 -40.001 34 -60.001c0 -14 -6 -25.667 -18 -35s-27 -14 -45 -14c-12 0 -22.667 1.66699 -32 5c-34 10.667 -87.667 26.334 -161 47.001l-178.5 51.5c-45.667 13.667 -93.834 29.5 -144.501 47.5s-88 34 -112 48
c-38.667 22.667 -67.667 50 -87 82s-29 65.333 -29 100c0 48.667 16.5 90.5 49.5 125.5s74.5 52.5 124.5 52.5c40.667 0 82.334 -12.333 125.001 -37c23.333 -13.333 55.833 -37.166 97.5 -71.5c41.667 -34.333 79 -66.666 112 -97l139.5 -129zM694 234.999h173v1127h-173
v-1127zM777 -39.001c-53.333 0 -99.9971 0.835938 -139.997 2.50293s-85.167 5.66699 -135.5 12s-93.833 15.166 -130.5 26.499s-73.667 27.166 -111 47.499s-67.833 44.5 -91.5 72.5s-42.834 63.167 -57.501 105.5s-22 89.833 -22 142.5v856
c0 51.333 7.66699 97.666 23 138.999s35.333 76 60 104s56 52.167 94 72.5s75.833 36.166 113.5 47.499s81.167 20.166 130.5 26.499s93.833 10.5 133.5 12.5s84.167 3 133.5 3c46 0 87.667 -0.833008 125 -2.5s81 -5.66699 131 -12s94.167 -15 132.5 -26
s77.5 -26.667 117.5 -47s73 -44.333 99 -72s47.333 -62.5 64 -104.5s25 -89 25 -141v-856c0 -52.667 -7.83301 -100 -23.5 -142s-35.834 -77 -60.501 -105s-56.334 -52.167 -95.001 -72.5s-76.667 -36.166 -114 -47.499s-81.333 -20.166 -132 -26.499
s-95.5 -10.5 -134.5 -12.5s-83.833 -3 -134.5 -3z" />
    <glyph glyph-name="Oacute" unicode="&#xd3;" horiz-adv-x="1542" 
d="M411 1842l125 115.502l139.5 129c33 30.333 70.333 62.666 112 97c41.667 34.333 74.167 58.166 97.5 71.499c42.667 24.667 84.334 37 125.001 37c50 0 91.5 -17.5 124.5 -52.5s49.5 -76.833 49.5 -125.5c0 -34.667 -9.66699 -68 -29 -100s-48.333 -59.333 -87 -82
c-24 -14 -61.333 -30 -112 -48s-98.834 -33.833 -144.501 -47.5l-178.5 -51.5c-73.333 -20.667 -127 -36.334 -161 -47.001c-9.33301 -3.33301 -20 -5 -32 -5c-18 0 -33 4.66699 -45 14s-18 21 -18 35c0 20 11.333 40 34 60zM694 235.002h173v1127h-173v-1127zM777 -38.998
c-53.333 0 -99.9971 0.835938 -139.997 2.50293s-85.167 5.66699 -135.5 12s-93.833 15.166 -130.5 26.499s-73.667 27.166 -111 47.499s-67.833 44.5 -91.5 72.5s-42.834 63.167 -57.501 105.5s-22 89.833 -22 142.5v856c0 51.333 7.66699 97.666 23 138.999
s35.333 76 60 104s56 52.167 94 72.5s75.833 36.166 113.5 47.499s81.167 20.166 130.5 26.499s93.833 10.5 133.5 12.5s84.167 3 133.5 3c46 0 87.667 -0.833008 125 -2.5s81 -5.66699 131 -12s94.167 -15 132.5 -26s77.5 -26.667 117.5 -47s73 -44.333 99 -72
s47.333 -62.5 64 -104.5s25 -89 25 -141v-856c0 -52.667 -7.83301 -100 -23.5 -142s-35.834 -77 -60.501 -105s-56.334 -52.167 -95.001 -72.5s-76.667 -36.166 -114 -47.499s-81.333 -20.166 -132 -26.499s-95.5 -10.5 -134.5 -12.5s-83.833 -3 -134.5 -3z" />
    <glyph glyph-name="Ocircumflex" unicode="&#xd4;" horiz-adv-x="1542" 
d="M375 1849l263.001 409.002c14.667 23.333 35 41.166 61 53.499s53.333 18.5 82 18.5c62.667 0 109.667 -24 141 -72l263 -409c12 -19.333 18 -37 18 -53c0 -18 -6 -33 -18 -45s-27 -18 -45 -18c-19.333 0 -38.333 7.33301 -57 22l-303 235l-303 -235
c-17.333 -13.333 -35.333 -20 -54 -20s-34.334 5.83301 -47.001 17.5s-19 26.5 -19 44.5c0 15.333 6 32.666 18 51.999zM694.001 235.002h173v1127h-173v-1127zM777.001 -38.998c-53.333 0 -99.9971 0.835938 -139.997 2.50293s-85.167 5.66699 -135.5 12
s-93.833 15.166 -130.5 26.499s-73.667 27.166 -111 47.499s-67.833 44.5 -91.5 72.5s-42.834 63.167 -57.501 105.5s-22 89.833 -22 142.5v856c0 51.333 7.66699 97.666 23 138.999s35.333 76 60 104s56 52.167 94 72.5s75.833 36.166 113.5 47.499
s81.167 20.166 130.5 26.499s93.833 10.5 133.5 12.5s84.167 3 133.5 3c46 0 87.667 -0.833008 125 -2.5s81 -5.66699 131 -12s94.167 -15 132.5 -26s77.5 -26.667 117.5 -47s73 -44.333 99 -72s47.333 -62.5 64 -104.5s25 -89 25 -141v-856
c0 -52.667 -7.83301 -100 -23.5 -142s-35.834 -77 -60.501 -105s-56.334 -52.167 -95.001 -72.5s-76.667 -36.166 -114 -47.499s-81.333 -20.166 -132 -26.499s-95.5 -10.5 -134.5 -12.5s-83.833 -3 -134.5 -3z" />
    <glyph glyph-name="Otilde" unicode="&#xd5;" horiz-adv-x="1542" 
d="M1124 1759h2.99609c0 46.667 -8.83301 85.667 -26.5 117s-45.5 47 -83.5 47c-13.333 0 -27.166 -3.16699 -41.499 -9.5s-24.5 -11.5 -30.5 -15.5s-16.333 -12 -31 -24c-57.333 -46 -113 -81 -167 -105s-120.667 -36 -200 -36c-114 0 -200 25 -258 75
s-98.667 127 -122 231c-18 62.667 -27 144.334 -27 245h296c0 -48.667 8.66699 -88.834 26 -120.5c17.333 -31.667 46 -47.5 86 -47.5c4.66699 0 9.33398 0.333008 14.001 1s9.33398 1.66699 14.001 3l12.5 3.5c3.66699 1 8 3 13 6l11 6.5
c2.33301 1.33301 6.33301 3.83301 12 7.5s9.16699 6 10.5 7l11 8c6 4.33301 9.33301 6.83301 10 7.5c35.333 26 60.666 44 75.999 54s39.5 23.833 72.5 41.5s66.167 30 99.5 37s70 10.5 110 10.5c50.667 0 95.834 -4.16699 135.501 -12.5s73.834 -20 102.501 -35
s53 -35 73 -60s36.167 -51.5 48.5 -79.5s22 -62.167 29 -102.5s11.667 -80.333 14 -120s3.5 -86.5 3.5 -140.5h-296zM693.996 235h173v1127h-173v-1127zM776.996 -39c-53.333 0 -99.9971 0.835938 -139.997 2.50293s-85.167 5.66699 -135.5 12s-93.833 15.166 -130.5 26.499
s-73.667 27.166 -111 47.499s-67.833 44.5 -91.5 72.5s-42.834 63.167 -57.501 105.5s-22 89.833 -22 142.5v856c0 51.333 7.66699 97.666 23 138.999s35.333 76 60 104s56 52.167 94 72.5s75.833 36.166 113.5 47.499s81.167 20.166 130.5 26.499s93.833 10.5 133.5 12.5
s84.167 3 133.5 3c46 0 87.667 -0.833008 125 -2.5s81 -5.66699 131 -12s94.167 -15 132.5 -26s77.5 -26.667 117.5 -47s73 -44.333 99 -72s47.333 -62.5 64 -104.5s25 -89 25 -141v-856c0 -52.667 -7.83301 -100 -23.5 -142s-35.834 -77 -60.501 -105
s-56.334 -52.167 -95.001 -72.5s-76.667 -36.166 -114 -47.499s-81.333 -20.166 -132 -26.499s-95.5 -10.5 -134.5 -12.5s-83.833 -3 -134.5 -3z" />
    <glyph glyph-name="Odieresis" unicode="&#xd6;" horiz-adv-x="1542" 
d="M663 2069v-336h-450v336h450zM1347 2069v-336h-451v336h451zM694 235h173v1127h-173v-1127zM777 -39c-53.333 0 -99.9971 0.835938 -139.997 2.50293s-85.167 5.66699 -135.5 12s-93.833 15.166 -130.5 26.499s-73.667 27.166 -111 47.499s-67.833 44.5 -91.5 72.5
s-42.834 63.167 -57.501 105.5s-22 89.833 -22 142.5v856c0 51.333 7.66699 97.666 23 138.999s35.333 76 60 104s56 52.167 94 72.5s75.833 36.166 113.5 47.499s81.167 20.166 130.5 26.499s93.833 10.5 133.5 12.5s84.167 3 133.5 3c46 0 87.667 -0.833008 125 -2.5
s81 -5.66699 131 -12s94.167 -15 132.5 -26s77.5 -26.667 117.5 -47s73 -44.333 99 -72s47.333 -62.5 64 -104.5s25 -89 25 -141v-856c0 -52.667 -7.83301 -100 -23.5 -142s-35.834 -77 -60.501 -105s-56.334 -52.167 -95.001 -72.5s-76.667 -36.166 -114 -47.499
s-81.333 -20.166 -132 -26.499s-95.5 -10.5 -134.5 -12.5s-83.833 -3 -134.5 -3z" />
    <glyph glyph-name="multiply" unicode="&#xd7;" horiz-adv-x="1310" 
d="M1266 924l-258 -275l258 -274l-349 -371l-257 275l-259 -275l-348 371l258 274l-258 275l348 370l259 -274l257 274z" />
    <glyph glyph-name="Oslash" unicode="&#xd8;" horiz-adv-x="1542" 
d="M1275 1817l121 -101l-1154 -1882l-128 96zM695 235h173v1127h-173v-1127zM778 -39l0.99707 -1.99805c-201.333 0 -358.333 23.667 -471 71c-127.333 53.333 -198 137.666 -212 252.999c-4 31.333 -6 60.333 -6 87v856c0 64 9.83301 119.167 29.5 165.5
s49 83.833 88 112.5s81.333 51 127 67s100.5 29.333 164.5 40c75.333 12.667 168.333 19 279 19c202.667 0 360.334 -23 473.001 -69c74 -30 129.333 -71 166 -123s55 -122.667 55 -212v-856c0 -52 -7 -98.333 -21 -139s-32.667 -74.667 -56 -102s-53.166 -51 -89.499 -71
s-74 -35.833 -113 -47.5s-83.833 -21.834 -134.5 -30.501c-75.333 -12.667 -168.666 -19 -279.999 -19z" />
    <glyph glyph-name="Ugrave" unicode="&#xd9;" horiz-adv-x="1556" 
d="M1158 1842c22.667 -20 34 -40.001 34 -60.001c0 -14 -6 -25.667 -18 -35s-27 -14 -45 -14c-12 0 -22.667 1.66699 -32 5c-34 10.667 -87.667 26.334 -161 47.001l-178.5 51.5c-45.667 13.667 -93.834 29.5 -144.501 47.5s-88 34 -112 48
c-38.667 22.667 -67.667 50 -87 82s-29 65.333 -29 100c0 48.667 16.5 90.5 49.5 125.5s74.5 52.5 124.5 52.5c40.667 0 82.334 -12.333 125.001 -37c23.333 -13.333 55.833 -37.166 97.5 -71.5c41.667 -34.333 79 -66.666 112 -97l139.5 -129zM701 233.999
l173 -0.000976562v1360h605v-1224c0 -52 -7.83301 -98.833 -23.5 -140.5s-35.834 -76.5 -60.501 -104.5s-56.167 -52.333 -94.5 -73s-76.5 -36.667 -114.5 -48s-81.833 -20.333 -131.5 -27s-94.5 -11 -134.5 -13s-84.667 -3 -134 -3c-46 0 -88 0.833008 -126 2.5
s-81.667 5.83398 -131 12.501s-93.166 15.667 -131.499 27s-77 27.333 -116 48s-71.333 45 -97 73s-46.667 63.167 -63 105.5s-24.5 89.5 -24.5 141.5v1224h604v-1361z" />
    <glyph glyph-name="Uacute" unicode="&#xda;" horiz-adv-x="1556" 
d="M419 1842l125 115.502l139.5 129c33 30.333 70.333 62.666 112 97c41.667 34.333 74.167 58.166 97.5 71.499c42.667 24.667 84.334 37 125.001 37c50 0 91.5 -17.5 124.5 -52.5s49.5 -76.833 49.5 -125.5c0 -34.667 -9.66699 -68 -29 -100s-48.333 -59.333 -87 -82
c-24 -14 -61.333 -30 -112 -48s-98.834 -33.833 -144.501 -47.5l-178.5 -51.5c-73.333 -20.667 -127 -36.334 -161 -47.001c-9.33301 -3.33301 -20 -5 -32 -5c-18 0 -33 4.66699 -45 14s-18 21 -18 35c0 20 11.333 40 34 60zM701 234.002l173 -0.000976562v1360h605v-1224
c0 -52 -7.83301 -98.833 -23.5 -140.5s-35.834 -76.5 -60.501 -104.5s-56.167 -52.333 -94.5 -73s-76.5 -36.667 -114.5 -48s-81.833 -20.333 -131.5 -27s-94.5 -11 -134.5 -13s-84.667 -3 -134 -3c-46 0 -88 0.833008 -126 2.5s-81.667 5.83398 -131 12.501
s-93.166 15.667 -131.499 27s-77 27.333 -116 48s-71.333 45 -97 73s-46.667 63.167 -63 105.5s-24.5 89.5 -24.5 141.5v1224h604v-1361z" />
    <glyph glyph-name="Ucircumflex" unicode="&#xdb;" horiz-adv-x="1556" 
d="M383 1849l263.001 409.002c14.667 23.333 35 41.166 61 53.499s53.333 18.5 82 18.5c62.667 0 109.667 -24 141 -72l263 -409c12 -19.333 18 -37 18 -53c0 -18 -6 -33 -18 -45s-27 -18 -45 -18c-19.333 0 -38.333 7.33301 -57 22l-303 235l-303 -235
c-17.333 -13.333 -35.333 -20 -54 -20s-34.334 5.83301 -47.001 17.5s-19 26.5 -19 44.5c0 15.333 6 32.666 18 51.999zM701.001 234.002l173 -0.000976562v1360h605v-1224c0 -52 -7.83301 -98.833 -23.5 -140.5s-35.834 -76.5 -60.501 -104.5s-56.167 -52.333 -94.5 -73
s-76.5 -36.667 -114.5 -48s-81.833 -20.333 -131.5 -27s-94.5 -11 -134.5 -13s-84.667 -3 -134 -3c-46 0 -88 0.833008 -126 2.5s-81.667 5.83398 -131 12.501s-93.166 15.667 -131.499 27s-77 27.333 -116 48s-71.333 45 -97 73s-46.667 63.167 -63 105.5
s-24.5 89.5 -24.5 141.5v1224h604v-1361z" />
    <glyph glyph-name="Udieresis" unicode="&#xdc;" horiz-adv-x="1556" 
d="M671 2069v-336h-450v336h450zM1355 2069v-336h-451v336h451zM701 234l173 -0.000976562v1360h605v-1224c0 -52 -7.83301 -98.833 -23.5 -140.5s-35.834 -76.5 -60.501 -104.5s-56.167 -52.333 -94.5 -73s-76.5 -36.667 -114.5 -48s-81.833 -20.333 -131.5 -27
s-94.5 -11 -134.5 -13s-84.667 -3 -134 -3c-46 0 -88 0.833008 -126 2.5s-81.667 5.83398 -131 12.501s-93.166 15.667 -131.499 27s-77 27.333 -116 48s-71.333 45 -97 73s-46.667 63.167 -63 105.5s-24.5 89.5 -24.5 141.5v1224h604v-1361z" />
    <glyph glyph-name="Yacute" unicode="&#xdd;" horiz-adv-x="1552" 
d="M409 1842l125 115.502l139.5 129c33 30.333 70.333 62.666 112 97c41.667 34.333 74.167 58.166 97.5 71.499c42.667 24.667 84.334 37 125.001 37c50 0 91.5 -17.5 124.5 -52.5s49.5 -76.833 49.5 -125.5c0 -34.667 -9.66699 -68 -29 -100s-48.333 -59.333 -87 -82
c-24 -14 -61.333 -30 -112 -48s-98.834 -33.833 -144.501 -47.5l-178.5 -51.5c-73.333 -20.667 -127 -36.334 -161 -47.001c-9.33301 -3.33301 -20 -5 -32 -5c-18 0 -33 4.66699 -45 14s-18 21 -18 35c0 20 11.333 40 34 60zM746 1021l17 -206h29l17 206l159 574h556
l-442 -1146v-449h-605v459l-445 1136h560z" />
    <glyph glyph-name="Thorn" unicode="&#xde;" horiz-adv-x="1534" 
d="M104 1599l602.001 0.000976562v-186h137c192.667 0 339.667 -22 441 -66c115.333 -50 176 -130 182 -240c2 -30 3 -58.333 3 -85v-381c0 -78 -7.33301 -135.333 -22 -172c-24 -58 -64.333 -102.333 -121 -133s-129.334 -53.334 -218.001 -68.001
c-72 -12 -160.333 -18 -265 -18h-137v-250h-602v1599zM706.001 482.001h163v700h-163v-700z" />
    <glyph glyph-name="germandbls" unicode="&#xdf;" horiz-adv-x="1389" 
d="M595 -205l-496.001 0.00292969v1422c0 60 8.33301 111.667 25 155s42 78.5 76 105.5s71.667 48.167 113 63.5s91.333 27.666 150 36.999c71.333 11.333 155.333 17 252 17c140 0 254.333 -18.667 343 -56s148 -100.333 178 -189c14.667 -43.333 22 -103.333 22 -180
c0 -122.667 -45.333 -209.667 -136 -261c-40 -22 -85.333 -35 -136 -39c71.333 -4 133.166 -20.333 185.499 -49s92.833 -68 121.5 -118c22.667 -39.333 34 -89.333 34 -150v-295c0 -40.667 -5.66699 -76.334 -17 -107.001s-26.166 -55.834 -44.499 -75.501
s-42.333 -36.334 -72 -50.001s-59.5 -24.167 -89.5 -31.5s-66 -13.666 -108 -18.999c-61.333 -8 -134.666 -12 -219.999 -12h-84v231h139v556h-112v231h112v377h-236v-1563z" />
    <glyph glyph-name="agrave" unicode="&#xe0;" horiz-adv-x="1464" 
d="M1111 1538c22.667 -20 34 -40.0029 34 -60.0029c0 -14 -6 -25.667 -18 -35s-27 -14 -45 -14c-12 0 -22.667 1.66699 -32 5c-34 10.667 -87.667 26.334 -161 47.001l-178.5 51.5c-45.667 13.667 -93.834 29.5 -144.501 47.5s-88 34 -112 48
c-38.667 22.667 -67.667 50 -87 82s-29 65.333 -29 100c0 48.667 16.5 90.5 49.5 125.5s74.5 52.5 124.5 52.5c40.667 0 82.334 -12.333 125.001 -37c23.333 -13.333 55.833 -37.166 97.5 -71.499s79 -66.666 112 -96.999l139.5 -129zM1381 256.997
c0.666992 -85.333 10.332 -170.668 28.999 -256.001h-520l-56 138c-31.333 -52 -75.833 -92.667 -133.5 -122s-126.5 -44 -206.5 -44c-142.667 0 -248.5 34 -317.5 102s-103.5 172.333 -103.5 313c0 150 39.333 260.167 118 330.5s196.667 105.5 354 105.5
c94 0 182.667 -13.667 266 -41v323h-139v-191l-525 -20c-7.33301 42.667 -11 79.334 -11 110.001c0 41.333 7.16699 78.666 21.5 111.999s33 61 56 83s51.833 41 86.5 57s68.667 28.5 102 37.5s71.666 16 114.999 21s81.333 8.16699 114 9.5s69 2 109 2
c38.667 0 73 -0.333008 103 -1s63.667 -2.5 101 -5.5s70.333 -7.16699 99 -12.5s58.834 -12.666 90.501 -21.999s59 -20.333 82 -33s45.333 -28.5 67 -47.5s39.334 -40.5 53.001 -64.5s24.667 -52 33 -84s12.5 -67 12.5 -105v-695zM644.998 652.995v-453h166v453h-166z" />
    <glyph glyph-name="aacute" unicode="&#xe1;" horiz-adv-x="1464" 
d="M372 1538l125 115.503l139.5 129c33 30.333 70.333 62.666 112 96.999s74.167 58.166 97.5 71.499c42.667 24.667 84.334 37 125.001 37c50 0 91.5 -17.5 124.5 -52.5s49.5 -76.833 49.5 -125.5c0 -34.667 -9.66699 -68 -29 -100s-48.333 -59.333 -87 -82
c-24 -14 -61.333 -30 -112 -48s-98.834 -33.833 -144.501 -47.5l-178.5 -51.5c-73.333 -20.667 -127 -36.334 -161 -47.001c-9.33301 -3.33301 -20 -5 -32 -5c-18 0 -33 4.66699 -45 14s-18 21 -18 35c0 20 11.333 40 34 60zM1381 257.003
c0.666992 -85.333 10.332 -170.668 28.999 -256.001h-520l-56 138c-31.333 -52 -75.833 -92.667 -133.5 -122s-126.5 -44 -206.5 -44c-142.667 0 -248.5 34 -317.5 102s-103.5 172.333 -103.5 313c0 150 39.333 260.167 118 330.5s196.667 105.5 354 105.5
c94 0 182.667 -13.667 266 -41v323h-139v-191l-525 -20c-7.33301 42.667 -11 79.334 -11 110.001c0 41.333 7.16699 78.666 21.5 111.999s33 61 56 83s51.833 41 86.5 57s68.667 28.5 102 37.5s71.666 16 114.999 21s81.333 8.16699 114 9.5s69 2 109 2
c38.667 0 73 -0.333008 103 -1s63.667 -2.5 101 -5.5s70.333 -7.16699 99 -12.5s58.834 -12.666 90.501 -21.999s59 -20.333 82 -33s45.333 -28.5 67 -47.5s39.334 -40.5 53.001 -64.5s24.667 -52 33 -84s12.5 -67 12.5 -105v-695zM644.998 653.001v-453h166v453h-166z" />
    <glyph glyph-name="acircumflex" unicode="&#xe2;" horiz-adv-x="1464" 
d="M336 1545l263.001 409.002c14.667 23.333 35 41.166 61 53.499s53.333 18.5 82 18.5c62.667 0 109.667 -24 141 -72l263 -409c12 -19.333 18 -37 18 -53c0 -18 -6 -33 -18 -45s-27 -18 -45 -18c-19.333 0 -38.333 7.33301 -57 22l-303 235l-303 -235
c-17.333 -13.333 -35.333 -20 -54 -20s-34.334 5.83301 -47.001 17.5s-19 26.5 -19 44.5c0 15.333 6 32.666 18 51.999zM1381 257.002c0.666992 -85.333 10.332 -170.668 28.999 -256.001h-520l-56 138c-31.333 -52 -75.833 -92.667 -133.5 -122s-126.5 -44 -206.5 -44
c-142.667 0 -248.5 34 -317.5 102s-103.5 172.333 -103.5 313c0 150 39.333 260.167 118 330.5s196.667 105.5 354 105.5c94 0 182.667 -13.667 266 -41v323h-139v-191l-525 -20c-7.33301 42.667 -11 79.334 -11 110.001c0 41.333 7.16699 78.666 21.5 111.999s33 61 56 83
s51.833 41 86.5 57s68.667 28.5 102 37.5s71.666 16 114.999 21s81.333 8.16699 114 9.5s69 2 109 2c38.667 0 73 -0.333008 103 -1s63.667 -2.5 101 -5.5s70.333 -7.16699 99 -12.5s58.834 -12.666 90.501 -21.999s59 -20.333 82 -33s45.333 -28.5 67 -47.5
s39.334 -40.5 53.001 -64.5s24.667 -52 33 -84s12.5 -67 12.5 -105v-695zM644.999 653v-453h166v453h-166z" />
    <glyph glyph-name="atilde" unicode="&#xe3;" horiz-adv-x="1464" 
d="M1085 1455h2.99609c0 46.667 -8.83301 85.667 -26.5 117s-45.5 47 -83.5 47c-13.333 0 -27.166 -3.16699 -41.499 -9.5s-24.5 -11.5 -30.5 -15.5s-16.333 -12 -31 -24c-57.333 -46 -113 -81 -167 -105s-120.667 -36 -200 -36c-114 0 -200 25 -258 75
s-98.667 127 -122 231c-18 62.667 -27 144.334 -27 245.001h296c0 -48.667 8.66699 -88.834 26 -120.501s46 -47.5 86 -47.5c4.66699 0 9.33398 0.333008 14.001 1s9.33398 1.66699 14.001 3l12.5 3.5c3.66699 1 8 3 13 6l11 6.5c2.33301 1.33301 6.33301 3.83301 12 7.5
s9.16699 6 10.5 7l11 8c6 4.33301 9.33301 6.83301 10 7.5c35.333 26 60.666 44 75.999 54s39.5 23.833 72.5 41.5s66.167 30 99.5 37s70 10.5 110 10.5c50.667 0 95.834 -4.16699 135.501 -12.5s73.834 -20 102.501 -35s53 -35 73 -60s36.167 -51.5 48.5 -79.5
s22 -62.167 29 -102.5s11.667 -80.333 14 -120s3.5 -86.5 3.5 -140.5h-296zM1381 257c0.666992 -85.333 10.332 -170.668 28.999 -256.001h-520l-56 138c-31.333 -52 -75.833 -92.667 -133.5 -122s-126.5 -44 -206.5 -44c-142.667 0 -248.5 34 -317.5 102
s-103.5 172.333 -103.5 313c0 150 39.333 260.167 118 330.5s196.667 105.5 354 105.5c94 0 182.667 -13.667 266 -41v323h-139v-191l-525 -20c-7.33301 42.667 -11 79.334 -11 110.001c0 41.333 7.16699 78.666 21.5 111.999s33 61 56 83s51.833 41 86.5 57
s68.667 28.5 102 37.5s71.666 16 114.999 21s81.333 8.16699 114 9.5s69 2 109 2c38.667 0 73 -0.333008 103 -1s63.667 -2.5 101 -5.5s70.333 -7.16699 99 -12.5s58.834 -12.666 90.501 -21.999s59 -20.333 82 -33s45.333 -28.5 67 -47.5s39.334 -40.5 53.001 -64.5
s24.667 -52 33 -84s12.5 -67 12.5 -105v-695zM644.994 652.998v-453h166v453h-166z" />
    <glyph glyph-name="adieresis" unicode="&#xe4;" horiz-adv-x="1464" 
d="M625 1765v-336h-450v336h450zM1309 1765v-336h-451v336h451zM1381 257c0.666992 -85.333 10.332 -170.668 28.999 -256.001h-520l-56 138c-31.333 -52 -75.833 -92.667 -133.5 -122s-126.5 -44 -206.5 -44c-142.667 0 -248.5 34 -317.5 102s-103.5 172.333 -103.5 313
c0 150 39.333 260.167 118 330.5s196.667 105.5 354 105.5c94 0 182.667 -13.667 266 -41v323h-139v-191l-525 -20c-7.33301 42.667 -11 79.334 -11 110.001c0 41.333 7.16699 78.666 21.5 111.999s33 61 56 83s51.833 41 86.5 57s68.667 28.5 102 37.5
s71.666 16 114.999 21s81.333 8.16699 114 9.5s69 2 109 2c38.667 0 73 -0.333008 103 -1s63.667 -2.5 101 -5.5s70.333 -7.16699 99 -12.5s58.834 -12.666 90.501 -21.999s59 -20.333 82 -33s45.333 -28.5 67 -47.5s39.334 -40.5 53.001 -64.5s24.667 -52 33 -84
s12.5 -67 12.5 -105v-695zM644.998 652.998v-453h166v453h-166z" />
    <glyph glyph-name="aring" unicode="&#xe5;" horiz-adv-x="1464" 
d="M408 1749c0 71.333 18.999 132.67 56.999 184.003s86.667 89 146 113c40 16.667 83.333 25 130 25c72.667 0 135.667 -18.333 189 -55s92.666 -83.667 117.999 -141c17.333 -40 26 -82 26 -126c0 -70.667 -19.167 -131.334 -57.5 -182.001
s-87.166 -88.334 -146.499 -113.001c-39.333 -16.667 -82.333 -25 -129 -25c-72.667 0 -135.667 18.167 -189 54.5s-92.666 83.166 -117.999 140.499c-17.333 40 -26 81.667 -26 125zM738.999 1871c-34.667 0 -63.5 -11.5 -86.5 -34.5s-34.5 -52.167 -34.5 -87.5
c0 -34 11.667 -62.667 35 -86s52 -35 86 -35c33.333 0 61.833 11.833 85.5 35.5s35.5 52.167 35.5 85.5c0 34.667 -11.667 63.667 -35 87s-52 35 -86 35zM1381 257.004c0.666992 -85.333 10.332 -170.668 28.999 -256.001h-520l-56 138
c-31.333 -52 -75.833 -92.667 -133.5 -122s-126.5 -44 -206.5 -44c-142.667 0 -248.5 34 -317.5 102s-103.5 172.333 -103.5 313c0 150 39.333 260.167 118 330.5s196.667 105.5 354 105.5c94 0 182.667 -13.667 266 -41v323h-139v-191l-525 -20
c-7.33301 42.667 -11 79.334 -11 110.001c0 41.333 7.16699 78.666 21.5 111.999s33 61 56 83s51.833 41 86.5 57s68.667 28.5 102 37.5s71.666 16 114.999 21s81.333 8.16699 114 9.5s69 2 109 2c38.667 0 73 -0.333008 103 -1s63.667 -2.5 101 -5.5
s70.333 -7.16699 99 -12.5s58.834 -12.666 90.501 -21.999s59 -20.333 82 -33s45.333 -28.5 67 -47.5s39.334 -40.5 53.001 -64.5s24.667 -52 33 -84s12.5 -67 12.5 -105v-695zM644.997 653.002v-453h166v453h-166z" />
    <glyph glyph-name="ae" unicode="&#xe6;" horiz-adv-x="2144" 
d="M1074 1261l-2 1.99902c83.333 54.667 203 82 359 82c192 0 340.667 -22 446 -66c120 -50.667 184.667 -130.334 194 -239.001c2.66699 -26 4 -54 4 -84v-350h-716v-354h144v249h571v-147c-1.33301 -62.667 -11.166 -116.5 -29.5 -161.5
c-18.333 -45 -45.5 -81.5 -81.5 -109.5s-76.167 -49.833 -120.5 -65.5s-97.833 -28.167 -160.5 -37.5c-68.667 -10.667 -153.667 -16 -255 -16c-136 0 -252 37.667 -348 113c-131.333 -75.333 -298.666 -113 -501.999 -113c-181.333 0 -315.333 44.333 -402 133
c-70.667 72.667 -106 169.667 -106 291c0 150 39 260.167 117 330.5s195.333 105.5 352 105.5c90.667 0 173.667 -13.667 249 -41v271h-123v-139c-58.667 -2 -146 -5.33301 -262 -10s-203.333 -8.33398 -262 -11.001c-7.33301 42.667 -11 79.334 -11 110.001
c0 44 6.66699 83.333 20 118s30.833 63.334 52.5 86.001s49 42.334 82 59.001s66.833 29.667 101.5 39s74 17 118 23c65.333 9.33301 139.333 14 222 14c157.333 0 273.666 -27.333 348.999 -82zM637 603.999v-352h150v352h-150zM1359 800.999h144v254h-144v-254z" />
    <glyph glyph-name="ccedilla" unicode="&#xe7;" horiz-adv-x="1462" 
d="M653 -11l177 0.00195312v-70c76 0 133.333 -11.333 172 -34s58 -64 58 -124v-95c0 -33.333 -6.33301 -60.833 -19 -82.5s-31.334 -37.834 -56.001 -48.501s-50.667 -17.834 -78 -21.501s-60.666 -5.5 -99.999 -5.5c-84 0 -147.333 10.833 -190 32.5s-64 63.5 -64 125.5
v56l227 28v-132h63v191h-190v180zM1396 539.002l0.994141 -187.001c0 -39.333 -4.33301 -75.5 -13 -108.5s-20 -61.5 -34 -85.5s-32.667 -45.667 -56 -65s-46.666 -35.333 -69.999 -48s-51.5 -23.667 -84.5 -33s-63.667 -16.5 -92 -21.5s-61.833 -8.83301 -100.5 -11.5
s-72.5 -4.33398 -101.5 -5.00098s-63.167 -1 -102.5 -1c-51.333 0 -96.166 0.833008 -134.499 2.5s-81.666 5.5 -129.999 11.5s-89.833 14.167 -124.5 24.5s-69.834 25 -105.501 44s-64.667 41.667 -87 68s-40.5 59.166 -54.5 98.499s-21 83.666 -21 132.999v600
c0 38.667 4.5 74.167 13.5 106.5s20.833 60.333 35.5 84s34 44.834 58 63.501s48 34.334 72 47.001s52.833 23.5 86.5 32.5s65 16 94 21s62.833 8.83301 101.5 11.5s72.334 4.33398 101.001 5.00098s62.334 1 101.001 1c50 0 89.333 -0.333008 118 -1
s68.834 -3.16699 120.501 -7.5s93.334 -10.666 125.001 -18.999s67.5 -21 107.5 -38s71.333 -37.667 94 -62s42 -55.333 58 -93s24 -80.5 24 -128.5v-191h-571v318h-167v-906h167v340h571z" />
    <glyph glyph-name="egrave" unicode="&#xe8;" horiz-adv-x="1463" 
d="M1114 1538c22.667 -20 34 -40.0029 34 -60.0029c0 -14 -6 -25.667 -18 -35s-27 -14 -45 -14c-12 0 -22.667 1.66699 -32 5c-34 10.667 -87.667 26.334 -161 47.001l-178.5 51.5c-45.667 13.667 -93.834 29.5 -144.501 47.5s-88 34 -112 48
c-38.667 22.667 -67.667 50 -87 82s-29 65.333 -29 100c0 48.667 16.5 90.5 49.5 125.5s74.5 52.5 124.5 52.5c40.667 0 82.334 -12.333 125.001 -37c23.333 -13.333 55.833 -37.166 97.5 -71.499s79 -66.666 112 -96.999l139.5 -129zM1396 482.997
c5.33301 -40.667 8.00391 -75 8.00391 -103c0 -148.667 -53 -253.667 -159 -315s-273.333 -92 -502 -92c-52.667 0 -97 0.666992 -133 2s-79 4.66602 -129 9.99902s-91.833 13 -125.5 23s-68.834 24.333 -105.501 43s-66 41.167 -88 67.5s-40.167 59.333 -54.5 99
s-21.5 84.834 -21.5 135.501v600c0 48.667 7.33301 92.5 22 131.5s33.5 71.333 56.5 97s53 47.834 90 66.501s73 33 108 43s76.5 17.833 124.5 23.5s90.167 9.16699 126.5 10.5s78.833 2 127.5 2c38 0 71.333 -0.333008 100 -1s62.167 -2.33398 100.5 -5.00098
s71.666 -6.5 99.999 -11.5s59.166 -12 92.499 -21s62 -19.833 86 -32.5s47.667 -28.5 71 -47.5s42.166 -40.333 56.499 -64s26 -51.667 35 -84s13.5 -67.833 13.5 -106.5v-350h-738v-405h167v284h571zM658.004 776.997h168v328h-168v-328z" />
    <glyph glyph-name="eacute" unicode="&#xe9;" horiz-adv-x="1463" 
d="M375 1538l125 115.503l139.5 129c33 30.333 70.333 62.666 112 96.999s74.167 58.166 97.5 71.499c42.667 24.667 84.334 37 125.001 37c50 0 91.5 -17.5 124.5 -52.5s49.5 -76.833 49.5 -125.5c0 -34.667 -9.66699 -68 -29 -100s-48.333 -59.333 -87 -82
c-24 -14 -61.333 -30 -112 -48s-98.834 -33.833 -144.501 -47.5l-178.5 -51.5c-73.333 -20.667 -127 -36.334 -161 -47.001c-9.33301 -3.33301 -20 -5 -32 -5c-18 0 -33 4.66699 -45 14s-18 21 -18 35c0 20 11.333 40 34 60zM1396 483.003
c5.33301 -40.667 8.00391 -75 8.00391 -103c0 -148.667 -53 -253.667 -159 -315s-273.333 -92 -502 -92c-52.667 0 -97 0.666992 -133 2s-79 4.66602 -129 9.99902s-91.833 13 -125.5 23s-68.834 24.333 -105.501 43s-66 41.167 -88 67.5s-40.167 59.333 -54.5 99
s-21.5 84.834 -21.5 135.501v600c0 48.667 7.33301 92.5 22 131.5s33.5 71.333 56.5 97s53 47.834 90 66.501s73 33 108 43s76.5 17.833 124.5 23.5s90.167 9.16699 126.5 10.5s78.833 2 127.5 2c38 0 71.333 -0.333008 100 -1s62.167 -2.33398 100.5 -5.00098
s71.666 -6.5 99.999 -11.5s59.166 -12 92.499 -21s62 -19.833 86 -32.5s47.667 -28.5 71 -47.5s42.166 -40.333 56.499 -64s26 -51.667 35 -84s13.5 -67.833 13.5 -106.5v-350h-738v-405h167v284h571zM658.004 777.003h168v328h-168v-328z" />
    <glyph glyph-name="ecircumflex" unicode="&#xea;" horiz-adv-x="1463" 
d="M340 1545l263.001 409.002c14.667 23.333 35 41.166 61 53.499s53.333 18.5 82 18.5c62.667 0 109.667 -24 141 -72l263 -409c12 -19.333 18 -37 18 -53c0 -18 -6 -33 -18 -45s-27 -18 -45 -18c-19.333 0 -38.333 7.33301 -57 22l-303 235l-303 -235
c-17.333 -13.333 -35.333 -20 -54 -20s-34.334 5.83301 -47.001 17.5s-19 26.5 -19 44.5c0 15.333 6 32.666 18 51.999zM1396 483.002c5.33301 -40.667 8.00391 -75 8.00391 -103c0 -148.667 -53 -253.667 -159 -315s-273.333 -92 -502 -92c-52.667 0 -97 0.666992 -133 2
s-79 4.66602 -129 9.99902s-91.833 13 -125.5 23s-68.834 24.333 -105.501 43s-66 41.167 -88 67.5s-40.167 59.333 -54.5 99s-21.5 84.834 -21.5 135.501v600c0 48.667 7.33301 92.5 22 131.5s33.5 71.333 56.5 97s53 47.834 90 66.501s73 33 108 43
s76.5 17.833 124.5 23.5s90.167 9.16699 126.5 10.5s78.833 2 127.5 2c38 0 71.333 -0.333008 100 -1s62.167 -2.33398 100.5 -5.00098s71.666 -6.5 99.999 -11.5s59.166 -12 92.499 -21s62 -19.833 86 -32.5s47.667 -28.5 71 -47.5s42.166 -40.333 56.499 -64
s26 -51.667 35 -84s13.5 -67.833 13.5 -106.5v-350h-738v-405h167v284h571zM658.005 777.002h168v328h-168v-328z" />
    <glyph glyph-name="edieresis" unicode="&#xeb;" horiz-adv-x="1463" 
d="M628 1765v-336h-450v336h450zM1312 1765v-336h-451v336h451zM1396 483c5.33301 -40.667 8.00391 -75 8.00391 -103c0 -148.667 -53 -253.667 -159 -315s-273.333 -92 -502 -92c-52.667 0 -97 0.666992 -133 2s-79 4.66602 -129 9.99902s-91.833 13 -125.5 23
s-68.834 24.333 -105.501 43s-66 41.167 -88 67.5s-40.167 59.333 -54.5 99s-21.5 84.834 -21.5 135.501v600c0 48.667 7.33301 92.5 22 131.5s33.5 71.333 56.5 97s53 47.834 90 66.501s73 33 108 43s76.5 17.833 124.5 23.5s90.167 9.16699 126.5 10.5s78.833 2 127.5 2
c38 0 71.333 -0.333008 100 -1s62.167 -2.33398 100.5 -5.00098s71.666 -6.5 99.999 -11.5s59.166 -12 92.499 -21s62 -19.833 86 -32.5s47.667 -28.5 71 -47.5s42.166 -40.333 56.499 -64s26 -51.667 35 -84s13.5 -67.833 13.5 -106.5v-350h-738v-405h167v284h571z
M658.004 777h168v328h-168v-328z" />
    <glyph glyph-name="igrave" unicode="&#xec;" horiz-adv-x="744" 
d="M754 1538c22.667 -20 34 -40.0029 34 -60.0029c0 -14 -6 -25.667 -18 -35s-27 -14 -45 -14c-12 0 -22.667 1.66699 -32 5c-34 10.667 -87.667 26.334 -161 47.001l-178.5 51.5c-45.667 13.667 -93.834 29.5 -144.501 47.5s-88 34 -112 48
c-38.667 22.667 -67.667 50 -87 82s-29 65.333 -29 100c0 48.667 16.5 90.5 49.5 125.5s74.5 52.5 124.5 52.5c40.667 0 82.334 -12.333 125.001 -37c23.333 -13.333 55.833 -37.166 97.5 -71.499s79 -66.666 112 -96.999l139.5 -129zM669 -0.00292969h-569v1298h569v-1298z
" />
    <glyph glyph-name="iacute" unicode="&#xed;" horiz-adv-x="744" 
d="M15 1538l125 115.503l139.5 129c33 30.333 70.333 62.666 112 96.999s74.167 58.166 97.5 71.499c42.667 24.667 84.334 37 125.001 37c50 0 91.5 -17.5 124.5 -52.5s49.5 -76.833 49.5 -125.5c0 -34.667 -9.66699 -68 -29 -100s-48.333 -59.333 -87 -82
c-24 -14 -61.333 -30 -112 -48s-98.834 -33.833 -144.501 -47.5l-178.5 -51.5c-73.333 -20.667 -127 -36.334 -161 -47.001c-9.33301 -3.33301 -20 -5 -32 -5c-18 0 -33 4.66699 -45 14s-18 21 -18 35c0 20 11.333 40 34 60zM669 0.00292969h-569v1298h569v-1298z" />
    <glyph glyph-name="icircumflex" unicode="&#xee;" horiz-adv-x="744" 
d="M-20 1545l263.001 409.002c14.667 23.333 35 41.166 61 53.499s53.333 18.5 82 18.5c62.667 0 109.667 -24 141 -72l263 -409c12 -19.333 18 -37 18 -53c0 -18 -6 -33 -18 -45s-27 -18 -45 -18c-19.333 0 -38.333 7.33301 -57 22l-303 235l-303 -235
c-17.333 -13.333 -35.333 -20 -54 -20s-34.334 5.83301 -47.001 17.5s-19 26.5 -19 44.5c0 15.333 6 32.666 18 51.999zM669.001 0.00195312h-569v1298h569v-1298z" />
    <glyph glyph-name="idieresis" unicode="&#xef;" horiz-adv-x="744" 
d="M267 1765v-336h-450v336h450zM951 1765v-336h-451v336h451zM669 0h-569v1298h569v-1298z" />
    <glyph glyph-name="eth" unicode="&#xf0;" horiz-adv-x="1395" 
d="M510 1887l0.999023 2c133.333 -55.333 256.333 -127 369 -215l208 143l71 -123l-168 -116c160.667 -154 266.334 -330 317.001 -528c19.333 -76 29 -157 29 -243c0 -66.667 -0.666992 -122 -2 -166s-4.16602 -94.333 -8.49902 -151s-11.333 -104.834 -21 -144.501
s-22.334 -79.667 -38.001 -120s-36 -75.333 -61 -105s-54.167 -54.834 -87.5 -75.501c-90 -54.667 -227 -82 -411 -82c-78.667 0 -147.834 3.83301 -207.501 11.5s-116.167 20.667 -169.5 39s-98.333 44.833 -135 79.5s-64.667 77.334 -84 128.001
c-26.667 70.667 -40 172 -40 304c0 128 13.5 232.333 40.5 313s75.5 141.667 145.5 183c85.333 50.667 207 76 365 76h140c0 52.667 -28.333 110.334 -85 173.001c-17.333 18.667 -35.333 36.667 -54 54l-252 -173l-70 124l205 141c-67.333 44 -118.666 75.333 -153.999 94
l-67 36zM761.999 828h-122v-590h122v590z" />
    <glyph glyph-name="ntilde" unicode="&#xf1;" horiz-adv-x="1482" 
d="M1097 1455h2.99609c0 46.667 -8.83301 85.667 -26.5 117s-45.5 47 -83.5 47c-13.333 0 -27.166 -3.16699 -41.499 -9.5s-24.5 -11.5 -30.5 -15.5s-16.333 -12 -31 -24c-57.333 -46 -113 -81 -167 -105s-120.667 -36 -200 -36c-114 0 -200 25 -258 75
s-98.667 127 -122 231c-18 62.667 -27 144.334 -27 245.001h296c0 -48.667 8.66699 -88.834 26 -120.501s46 -47.5 86 -47.5c4.66699 0 9.33398 0.333008 14.001 1s9.33398 1.66699 14.001 3l12.5 3.5c3.66699 1 8 3 13 6l11 6.5c2.33301 1.33301 6.33301 3.83301 12 7.5
s9.16699 6 10.5 7l11 8c6 4.33301 9.33301 6.83301 10 7.5c35.333 26 60.666 44 75.999 54s39.5 23.833 72.5 41.5s66.167 30 99.5 37s70 10.5 110 10.5c50.667 0 95.834 -4.16699 135.501 -12.5s73.834 -20 102.501 -35s53 -35 73 -60s36.167 -51.5 48.5 -79.5
s22 -62.167 29 -102.5s11.667 -80.333 14 -120s3.5 -86.5 3.5 -140.5h-296zM986.996 1327c136.667 -0.666992 241 -33.333 313 -98s108 -159.667 108 -285v-944h-571v1105h-167v-1105h-571v1300h510l37 -112c30 42 75.667 75.667 137 101s129.333 38 204 38z" />
    <glyph glyph-name="ograve" unicode="&#xf2;" horiz-adv-x="1465" 
d="M1111 1538c22.667 -20 34 -40.0029 34 -60.0029c0 -14 -6 -25.667 -18 -35s-27 -14 -45 -14c-12 0 -22.667 1.66699 -32 5c-34 10.667 -87.667 26.334 -161 47.001l-178.5 51.5c-45.667 13.667 -93.834 29.5 -144.501 47.5s-88 34 -112 48
c-38.667 22.667 -67.667 50 -87 82s-29 65.333 -29 100c0 48.667 16.5 90.5 49.5 125.5s74.5 52.5 124.5 52.5c40.667 0 82.334 -12.333 125.001 -37c23.333 -13.333 55.833 -37.166 97.5 -71.499s79 -66.666 112 -96.999l139.5 -129zM658 232.997h166v872h-166v-872z
M745 -27.0029c-41.333 0 -76.9971 0.336914 -106.997 1.00391s-64.5 2.5 -103.5 5.5s-72.833 7 -101.5 12s-59.5 12.167 -92.5 21.5s-61.167 20.5 -84.5 33.5s-46.166 29 -68.499 48s-40.5 40.667 -54.5 65s-25.167 52.833 -33.5 85.5s-12.5 68.667 -12.5 108v600
c0 42 5.16699 80.5 15.5 115.5s25.666 64.833 45.999 89.5s43 46.5 68 65.5s54.833 34.5 89.5 46.5s68.167 22 100.5 30s69.666 13.833 111.999 17.5s80.166 6.16699 113.499 7.5s71.333 2 114 2c52 0 97.833 -0.833008 137.5 -2.5s83.167 -5.5 130.5 -11.5
s88.166 -14.333 122.499 -25s68.666 -25.334 102.999 -44.001s62.333 -41 84 -67s39.167 -58 52.5 -96s20 -81 20 -129v-600c0 -59.333 -8.33301 -111.333 -25 -156s-42.667 -80.334 -78 -107.001s-70.666 -48.334 -105.999 -65.001s-81.833 -28.334 -139.5 -35.001
s-106.5 -11 -146.5 -13s-92 -3 -156 -3z" />
    <glyph glyph-name="oacute" unicode="&#xf3;" horiz-adv-x="1465" 
d="M372 1538l125 115.503l139.5 129c33 30.333 70.333 62.666 112 96.999s74.167 58.166 97.5 71.499c42.667 24.667 84.334 37 125.001 37c50 0 91.5 -17.5 124.5 -52.5s49.5 -76.833 49.5 -125.5c0 -34.667 -9.66699 -68 -29 -100s-48.333 -59.333 -87 -82
c-24 -14 -61.333 -30 -112 -48s-98.834 -33.833 -144.501 -47.5l-178.5 -51.5c-73.333 -20.667 -127 -36.334 -161 -47.001c-9.33301 -3.33301 -20 -5 -32 -5c-18 0 -33 4.66699 -45 14s-18 21 -18 35c0 20 11.333 40 34 60zM658 233.003h166v872h-166v-872zM745 -26.9971
c-41.333 0 -76.9971 0.336914 -106.997 1.00391s-64.5 2.5 -103.5 5.5s-72.833 7 -101.5 12s-59.5 12.167 -92.5 21.5s-61.167 20.5 -84.5 33.5s-46.166 29 -68.499 48s-40.5 40.667 -54.5 65s-25.167 52.833 -33.5 85.5s-12.5 68.667 -12.5 108v600
c0 42 5.16699 80.5 15.5 115.5s25.666 64.833 45.999 89.5s43 46.5 68 65.5s54.833 34.5 89.5 46.5s68.167 22 100.5 30s69.666 13.833 111.999 17.5s80.166 6.16699 113.499 7.5s71.333 2 114 2c52 0 97.833 -0.833008 137.5 -2.5s83.167 -5.5 130.5 -11.5
s88.166 -14.333 122.499 -25s68.666 -25.334 102.999 -44.001s62.333 -41 84 -67s39.167 -58 52.5 -96s20 -81 20 -129v-600c0 -59.333 -8.33301 -111.333 -25 -156s-42.667 -80.334 -78 -107.001s-70.666 -48.334 -105.999 -65.001s-81.833 -28.334 -139.5 -35.001
s-106.5 -11 -146.5 -13s-92 -3 -156 -3z" />
    <glyph glyph-name="ocircumflex" unicode="&#xf4;" horiz-adv-x="1465" 
d="M336 1545l263.001 409.002c14.667 23.333 35 41.166 61 53.499s53.333 18.5 82 18.5c62.667 0 109.667 -24 141 -72l263 -409c12 -19.333 18 -37 18 -53c0 -18 -6 -33 -18 -45s-27 -18 -45 -18c-19.333 0 -38.333 7.33301 -57 22l-303 235l-303 -235
c-17.333 -13.333 -35.333 -20 -54 -20s-34.334 5.83301 -47.001 17.5s-19 26.5 -19 44.5c0 15.333 6 32.666 18 51.999zM658.001 233.002h166v872h-166v-872zM745.001 -26.998c-41.333 0 -76.9971 0.336914 -106.997 1.00391s-64.5 2.5 -103.5 5.5s-72.833 7 -101.5 12
s-59.5 12.167 -92.5 21.5s-61.167 20.5 -84.5 33.5s-46.166 29 -68.499 48s-40.5 40.667 -54.5 65s-25.167 52.833 -33.5 85.5s-12.5 68.667 -12.5 108v600c0 42 5.16699 80.5 15.5 115.5s25.666 64.833 45.999 89.5s43 46.5 68 65.5s54.833 34.5 89.5 46.5
s68.167 22 100.5 30s69.666 13.833 111.999 17.5s80.166 6.16699 113.499 7.5s71.333 2 114 2c52 0 97.833 -0.833008 137.5 -2.5s83.167 -5.5 130.5 -11.5s88.166 -14.333 122.499 -25s68.666 -25.334 102.999 -44.001s62.333 -41 84 -67s39.167 -58 52.5 -96
s20 -81 20 -129v-600c0 -59.333 -8.33301 -111.333 -25 -156s-42.667 -80.334 -78 -107.001s-70.666 -48.334 -105.999 -65.001s-81.833 -28.334 -139.5 -35.001s-106.5 -11 -146.5 -13s-92 -3 -156 -3z" />
    <glyph glyph-name="otilde" unicode="&#xf5;" horiz-adv-x="1465" 
d="M1085 1455h2.99609c0 46.667 -8.83301 85.667 -26.5 117s-45.5 47 -83.5 47c-13.333 0 -27.166 -3.16699 -41.499 -9.5s-24.5 -11.5 -30.5 -15.5s-16.333 -12 -31 -24c-57.333 -46 -113 -81 -167 -105s-120.667 -36 -200 -36c-114 0 -200 25 -258 75
s-98.667 127 -122 231c-18 62.667 -27 144.334 -27 245.001h296c0 -48.667 8.66699 -88.834 26 -120.501s46 -47.5 86 -47.5c4.66699 0 9.33398 0.333008 14.001 1s9.33398 1.66699 14.001 3l12.5 3.5c3.66699 1 8 3 13 6l11 6.5c2.33301 1.33301 6.33301 3.83301 12 7.5
s9.16699 6 10.5 7l11 8c6 4.33301 9.33301 6.83301 10 7.5c35.333 26 60.666 44 75.999 54s39.5 23.833 72.5 41.5s66.167 30 99.5 37s70 10.5 110 10.5c50.667 0 95.834 -4.16699 135.501 -12.5s73.834 -20 102.501 -35s53 -35 73 -60s36.167 -51.5 48.5 -79.5
s22 -62.167 29 -102.5s11.667 -80.333 14 -120s3.5 -86.5 3.5 -140.5h-296zM657.996 233h166v872h-166v-872zM744.996 -27c-41.333 0 -76.9971 0.336914 -106.997 1.00391s-64.5 2.5 -103.5 5.5s-72.833 7 -101.5 12s-59.5 12.167 -92.5 21.5s-61.167 20.5 -84.5 33.5
s-46.166 29 -68.499 48s-40.5 40.667 -54.5 65s-25.167 52.833 -33.5 85.5s-12.5 68.667 -12.5 108v600c0 42 5.16699 80.5 15.5 115.5s25.666 64.833 45.999 89.5s43 46.5 68 65.5s54.833 34.5 89.5 46.5s68.167 22 100.5 30s69.666 13.833 111.999 17.5
s80.166 6.16699 113.499 7.5s71.333 2 114 2c52 0 97.833 -0.833008 137.5 -2.5s83.167 -5.5 130.5 -11.5s88.166 -14.333 122.499 -25s68.666 -25.334 102.999 -44.001s62.333 -41 84 -67s39.167 -58 52.5 -96s20 -81 20 -129v-600c0 -59.333 -8.33301 -111.333 -25 -156
s-42.667 -80.334 -78 -107.001s-70.666 -48.334 -105.999 -65.001s-81.833 -28.334 -139.5 -35.001s-106.5 -11 -146.5 -13s-92 -3 -156 -3z" />
    <glyph glyph-name="odieresis" unicode="&#xf6;" horiz-adv-x="1465" 
d="M625 1765v-336h-450v336h450zM1309 1765v-336h-451v336h451zM658 233h166v872h-166v-872zM745 -27c-41.333 0 -76.9971 0.336914 -106.997 1.00391s-64.5 2.5 -103.5 5.5s-72.833 7 -101.5 12s-59.5 12.167 -92.5 21.5s-61.167 20.5 -84.5 33.5s-46.166 29 -68.499 48
s-40.5 40.667 -54.5 65s-25.167 52.833 -33.5 85.5s-12.5 68.667 -12.5 108v600c0 42 5.16699 80.5 15.5 115.5s25.666 64.833 45.999 89.5s43 46.5 68 65.5s54.833 34.5 89.5 46.5s68.167 22 100.5 30s69.666 13.833 111.999 17.5s80.166 6.16699 113.499 7.5
s71.333 2 114 2c52 0 97.833 -0.833008 137.5 -2.5s83.167 -5.5 130.5 -11.5s88.166 -14.333 122.499 -25s68.666 -25.334 102.999 -44.001s62.333 -41 84 -67s39.167 -58 52.5 -96s20 -81 20 -129v-600c0 -59.333 -8.33301 -111.333 -25 -156s-42.667 -80.334 -78 -107.001
s-70.666 -48.334 -105.999 -65.001s-81.833 -28.334 -139.5 -35.001s-106.5 -11 -146.5 -13s-92 -3 -156 -3z" />
    <glyph glyph-name="divide" unicode="&#xf7;" horiz-adv-x="1286" 
d="M901 92h-507v467h507v-467zM901 1000h-507v497h507v-497zM1229 908v-238h-1162v238h1162z" />
    <glyph glyph-name="oslash" unicode="&#xf8;" horiz-adv-x="1465" 
d="M114 -39l-58.001 57.999l97 99c-44.667 50.667 -67 128.667 -67 234v600c0 63.333 8.83301 117.333 26.5 162s44.667 80.834 81 108.501s76.333 49.167 120 64.5s96.834 28 159.501 38c74 12 164.667 18 272 18l-1 1c115.333 0 214.333 -7 297 -21s154 -38.667 214 -74
l93 95l58 -58l-86 -88c50 -50.667 75 -132.667 75 -246v-600c0 -88 -16 -157.167 -48 -207.5s-82 -89.5 -150 -117.5c-106.667 -44 -257.667 -66 -453 -66c-121.333 0 -224.833 7.5 -310.5 22.5s-158.5 42.167 -218.5 81.5zM656.999 233.999h166v455l-166 -170v-285z
M656.999 635.999l166 170v300h-166v-470z" />
    <glyph glyph-name="ugrave" unicode="&#xf9;" 
d="M1116 1538c22.667 -20 34 -40.0029 34 -60.0029c0 -14 -6 -25.667 -18 -35s-27 -14 -45 -14c-12 0 -22.667 1.66699 -32 5c-34 10.667 -87.667 26.334 -161 47.001l-178.5 51.5c-45.667 13.667 -93.834 29.5 -144.501 47.5s-88 34 -112 48
c-38.667 22.667 -67.667 50 -87 82s-29 65.333 -29 100c0 48.667 16.5 90.5 49.5 125.5s74.5 52.5 124.5 52.5c40.667 0 82.334 -12.333 125.001 -37c23.333 -13.333 55.833 -37.166 97.5 -71.499s79 -66.666 112 -96.999l139.5 -129zM515 -27.0029
c-137.333 0 -242.333 32 -315 96s-109 161 -109 291v940h572v-1067h166v1067h572v-1300h-517l-37 112c-26 -42.667 -70 -76.5 -132 -101.5s-128.667 -37.5 -200 -37.5z" />
    <glyph glyph-name="uacute" unicode="&#xfa;" 
d="M377 1538l125 115.503l139.5 129c33 30.333 70.333 62.666 112 96.999s74.167 58.166 97.5 71.499c42.667 24.667 84.334 37 125.001 37c50 0 91.5 -17.5 124.5 -52.5s49.5 -76.833 49.5 -125.5c0 -34.667 -9.66699 -68 -29 -100s-48.333 -59.333 -87 -82
c-24 -14 -61.333 -30 -112 -48s-98.834 -33.833 -144.501 -47.5l-178.5 -51.5c-73.333 -20.667 -127 -36.334 -161 -47.001c-9.33301 -3.33301 -20 -5 -32 -5c-18 0 -33 4.66699 -45 14s-18 21 -18 35c0 20 11.333 40 34 60zM515 -26.9971c-137.333 0 -242.333 32 -315 96
s-109 161 -109 291v940h572v-1067h166v1067h572v-1300h-517l-37 112c-26 -42.667 -70 -76.5 -132 -101.5s-128.667 -37.5 -200 -37.5z" />
    <glyph glyph-name="ucircumflex" unicode="&#xfb;" 
d="M341 1545l263.001 409.002c14.667 23.333 35 41.166 61 53.499s53.333 18.5 82 18.5c62.667 0 109.667 -24 141 -72l263 -409c12 -19.333 18 -37 18 -53c0 -18 -6 -33 -18 -45s-27 -18 -45 -18c-19.333 0 -38.333 7.33301 -57 22l-303 235l-303 -235
c-17.333 -13.333 -35.333 -20 -54 -20s-34.334 5.83301 -47.001 17.5s-19 26.5 -19 44.5c0 15.333 6 32.666 18 51.999zM515.001 -26.998c-137.333 0 -242.333 32 -315 96s-109 161 -109 291v940h572v-1067h166v1067h572v-1300h-517l-37 112
c-26 -42.667 -70 -76.5 -132 -101.5s-128.667 -37.5 -200 -37.5z" />
    <glyph glyph-name="udieresis" unicode="&#xfc;" 
d="M629 1765v-336h-450v336h450zM1313 1765v-336h-451v336h451zM515 -27c-137.333 0 -242.333 32 -315 96s-109 161 -109 291v940h572v-1067h166v1067h572v-1300h-517l-37 112c-26 -42.667 -70 -76.5 -132 -101.5s-128.667 -37.5 -200 -37.5z" />
    <glyph glyph-name="yacute" unicode="&#xfd;" horiz-adv-x="1342" 
d="M307 1538l125 115.503l139.5 129c33 30.333 70.333 62.666 112 96.999s74.167 58.166 97.5 71.499c42.667 24.667 84.334 37 125.001 37c50 0 91.5 -17.5 124.5 -52.5s49.5 -76.833 49.5 -125.5c0 -34.667 -9.66699 -68 -29 -100s-48.333 -59.333 -87 -82
c-24 -14 -61.333 -30 -112 -48s-98.834 -33.833 -144.501 -47.5l-178.5 -51.5c-73.333 -20.667 -127 -36.334 -161 -47.001c-9.33301 -3.33301 -20 -5 -32 -5c-18 0 -33 4.66699 -45 14s-18 21 -18 35c0 20 11.333 40 34 60zM628 693.003l10.9961 -276h70l12 276l60 607h552
l-220 -1286c-10 -60.667 -27 -114 -51 -160s-51.667 -83 -83 -111s-68.666 -50.667 -111.999 -68s-87.166 -29.333 -131.499 -36s-93.5 -10 -147.5 -10c-84.667 0 -216.667 17.667 -396 53l43 305c106.667 -26.667 202.334 -40 287.001 -40c71.333 0 132.333 9.66699 183 29
v159c-83.333 -30.667 -168.666 -46 -255.999 -46c-128.667 0 -208 62.667 -238 188l-191 1023h533z" />
    <glyph glyph-name="thorn" unicode="&#xfe;" horiz-adv-x="1430" 
d="M675 1225h-1.00098c17.333 38 49 63.833 95 77.5s105.667 20.5 179 20.5c130.667 0 230.834 -26 300.501 -78s106.834 -135.333 111.501 -250c1.33301 -41.333 2 -70.333 2 -87v-518c0 -85.333 -9.16699 -155.5 -27.5 -210.5s-50.166 -98.833 -95.499 -131.5
c-66 -48 -163 -72 -291 -72c-62.667 0 -114.334 4.66699 -155.001 14s-71.334 27.333 -92.001 54l-13 16.5c-6 7.66699 -10.333 13.5 -13 17.5v-487h-571v2011h571v-377zM673.999 231h114v838h-114v-838z" />
    <glyph glyph-name="ydieresis" unicode="&#xff;" horiz-adv-x="1342" 
d="M559 1765v-336h-450v336h450zM1243 1765v-336h-451v336h451zM628 693l10.9961 -276h70l12 276l60 607h552l-220 -1286c-10 -60.667 -27 -114 -51 -160s-51.667 -83 -83 -111s-68.666 -50.667 -111.999 -68s-87.166 -29.333 -131.499 -36s-93.5 -10 -147.5 -10
c-84.667 0 -216.667 17.667 -396 53l43 305c106.667 -26.667 202.334 -40 287.001 -40c71.333 0 132.333 9.66699 183 29v159c-83.333 -30.667 -168.666 -46 -255.999 -46c-128.667 0 -208 62.667 -238 188l-191 1023h533z" />
    <glyph glyph-name="Amacron" unicode="&#x100;" horiz-adv-x="1565" 
d="M1200 1964v-231h-833v231h833zM677 366l-55 -366h-586l292 1595h907l297 -1595h-587l-54 366h-214zM816 1085l-15 198h-39l-13 -198l-54 -509h178z" />
    <glyph glyph-name="amacron" unicode="&#x101;" horiz-adv-x="1464" 
d="M1158 1660v-231h-833v231h833zM1381 257c0.666992 -85.333 10.332 -170.668 28.999 -256.001h-520l-56 138c-31.333 -52 -75.833 -92.667 -133.5 -122s-126.5 -44 -206.5 -44c-142.667 0 -248.5 34 -317.5 102s-103.5 172.333 -103.5 313c0 150 39.333 260.167 118 330.5
s196.667 105.5 354 105.5c94 0 182.667 -13.667 266 -41v323h-139v-191l-525 -20c-7.33301 42.667 -11 79.334 -11 110.001c0 41.333 7.16699 78.666 21.5 111.999s33 61 56 83s51.833 41 86.5 57s68.667 28.5 102 37.5s71.666 16 114.999 21s81.333 8.16699 114 9.5
s69 2 109 2c38.667 0 73 -0.333008 103 -1s63.667 -2.5 101 -5.5s70.333 -7.16699 99 -12.5s58.834 -12.666 90.501 -21.999s59 -20.333 82 -33s45.333 -28.5 67 -47.5s39.334 -40.5 53.001 -64.5s24.667 -52 33 -84s12.5 -67 12.5 -105v-695zM644.998 652.998v-453h166v453
h-166z" />
    <glyph glyph-name="Abreve" unicode="&#x102;" horiz-adv-x="1565" 
d="M784 1733c-74.667 0 -139.502 7.83398 -194.502 23.501s-99.5 36.834 -133.5 63.501s-61.167 61 -81.5 103s-34.166 85.833 -41.499 131.5s-11 98.834 -11 159.5h297c0 -32 1.33301 -56.833 4 -74.5s9.16699 -35.5 19.5 -53.5s27 -30.833 50 -38.5s53.5 -11.5 91.5 -11.5
s68.5 3.83301 91.5 11.5s39.667 20.5 50 38.5s16.833 35.833 19.5 53.5s4 42.5 4 74.5h297c0 -60.667 -3.66699 -113.834 -11 -159.501s-21.166 -89.5 -41.499 -131.5s-47.5 -76.333 -81.5 -103s-78.5 -47.834 -133.5 -63.501s-119.833 -23.5 -194.5 -23.5zM676.998 366.001
l-55 -366h-586l292 1595h907l297 -1595h-587l-54 366h-214zM815.998 1085l-15 198h-39l-13 -198l-54 -509h178z" />
    <glyph glyph-name="abreve" unicode="&#x103;" horiz-adv-x="1464" 
d="M741 1429c-74.667 0 -139.502 7.83301 -194.502 23.5s-99.5 36.834 -133.5 63.501s-61.167 61 -81.5 103s-34.166 85.833 -41.499 131.5s-11 98.834 -11 159.501h297c0 -32 1.33301 -56.833 4 -74.5s9.16699 -35.5 19.5 -53.5s27 -30.833 50 -38.5s53.5 -11.5 91.5 -11.5
s68.5 3.83301 91.5 11.5s39.667 20.5 50 38.5s16.833 35.833 19.5 53.5s4 42.5 4 74.5h297c0 -60.667 -3.66699 -113.834 -11 -159.501s-21.166 -89.5 -41.499 -131.5s-47.5 -76.333 -81.5 -103s-78.5 -47.834 -133.5 -63.501s-119.833 -23.5 -194.5 -23.5zM1381 257
c0.666992 -85.333 10.332 -170.668 28.999 -256.001h-520l-56 138c-31.333 -52 -75.833 -92.667 -133.5 -122s-126.5 -44 -206.5 -44c-142.667 0 -248.5 34 -317.5 102s-103.5 172.333 -103.5 313c0 150 39.333 260.167 118 330.5s196.667 105.5 354 105.5
c94 0 182.667 -13.667 266 -41v323h-139v-191l-525 -20c-7.33301 42.667 -11 79.334 -11 110.001c0 41.333 7.16699 78.666 21.5 111.999s33 61 56 83s51.833 41 86.5 57s68.667 28.5 102 37.5s71.666 16 114.999 21s81.333 8.16699 114 9.5s69 2 109 2
c38.667 0 73 -0.333008 103 -1s63.667 -2.5 101 -5.5s70.333 -7.16699 99 -12.5s58.834 -12.666 90.501 -21.999s59 -20.333 82 -33s45.333 -28.5 67 -47.5s39.334 -40.5 53.001 -64.5s24.667 -52 33 -84s12.5 -67 12.5 -105v-695zM644.996 652.998v-453h166v453h-166z" />
    <glyph glyph-name="Aogonek" unicode="&#x104;" horiz-adv-x="1565" 
d="M1291 72l71 -72.001c-34 -22.667 -60.833 -51.5 -80.5 -86.5s-29.5 -69.167 -29.5 -102.5s10.5 -60.666 31.5 -81.999s52.167 -32 93.5 -32c38 0 83 9.66699 135 29v-315c-72 -27.333 -139 -41 -201 -41c-100 0 -180 30.667 -240 92s-90 135.333 -90 222
c0 78 26 152.167 78 222.5s129.333 125.5 232 165.5zM677 365.999l-55 -366h-586l292 1595h907l297 -1595h-587l-54 366h-214zM816 1085l-15 198h-39l-13 -198l-54 -509h178z" />
    <glyph glyph-name="aogonek" unicode="&#x105;" horiz-adv-x="1464" 
d="M1161 71l71 -72.001c-34 -22.667 -60.833 -51.5 -80.5 -86.5s-29.5 -69.167 -29.5 -102.5s10.5 -60.666 31.5 -81.999s52.167 -32 93.5 -32c38 0 83 9.66699 135 29v-315c-72 -27.333 -139 -41 -201 -41c-100 0 -180 30.667 -240 92s-90 135.333 -90 222
c0 78 26 152.167 78 222.5s129.333 125.5 232 165.5zM1381 256.999c0.666992 -85.333 10.332 -170.668 28.999 -256.001h-520l-56 138c-31.333 -52 -75.833 -92.667 -133.5 -122s-126.5 -44 -206.5 -44c-142.667 0 -248.5 34 -317.5 102s-103.5 172.333 -103.5 313
c0 150 39.333 260.167 118 330.5s196.667 105.5 354 105.5c94 0 182.667 -13.667 266 -41v323h-139v-191l-525 -20c-7.33301 42.667 -11 79.334 -11 110.001c0 41.333 7.16699 78.666 21.5 111.999s33 61 56 83s51.833 41 86.5 57s68.667 28.5 102 37.5
s71.666 16 114.999 21s81.333 8.16699 114 9.5s69 2 109 2c38.667 0 73 -0.333008 103 -1s63.667 -2.5 101 -5.5s70.333 -7.16699 99 -12.5s58.834 -12.666 90.501 -21.999s59 -20.333 82 -33s45.333 -28.5 67 -47.5s39.334 -40.5 53.001 -64.5s24.667 -52 33 -84
s12.5 -67 12.5 -105v-695zM644.998 652.997v-453h166v453h-166z" />
    <glyph glyph-name="Cacute" unicode="&#x106;" horiz-adv-x="1540" 
d="M411 1843l125 115.502l139.5 129c33 30.333 70.333 62.666 112 97c41.667 34.333 74.167 58.166 97.5 71.499c42.667 24.667 84.334 37 125.001 37c50 0 91.5 -17.5 124.5 -52.5s49.5 -76.833 49.5 -125.5c0 -34.667 -9.66699 -68 -29 -100s-48.333 -59.333 -87 -82
c-24 -14 -61.333 -30 -112 -48s-98.834 -33.833 -144.501 -47.5l-178.5 -51.5c-73.333 -20.667 -127 -36.334 -161 -47.001c-9.33301 -3.33301 -20 -5 -32 -5c-18 0 -33 4.66699 -45 14s-18 21 -18 35c0 20 11.333 40 34 60zM868 1356l-173.003 -0.00195312v-1123h173v381
h604v-245c0 -52 -7.66699 -98.833 -23 -140.5s-35.166 -76.5 -59.499 -104.5s-55.166 -52.333 -92.499 -73s-74.833 -36.667 -112.5 -48s-81.167 -20.333 -130.5 -27s-93.833 -11 -133.5 -13s-84.5 -3 -134.5 -3c-46 0 -88 0.833008 -126 2.5s-81.833 5.83398 -131.5 12.501
s-93.834 15.667 -132.501 27s-78 27.333 -118 48s-73 45 -99 73s-47.333 63 -64 105s-25 89.333 -25 142v856c0 51.333 7.83301 97.833 23.5 139.5s36 76.334 61 104.001s56.5 51.834 94.5 72.501s76.167 36.5 114.5 47.5s82.333 19.833 132 26.5s94.334 11 134.001 13
s84.167 3 133.5 3c52.667 0 98.667 -0.833008 138 -2.5s84.333 -5.66699 135 -12s94.334 -14.833 131.001 -25.5s74 -26.167 112 -46.5s68.833 -44.5 92.5 -72.5s43 -62.833 58 -104.5s22.5 -88.834 22.5 -141.501v-248h-604v377z" />
    <glyph glyph-name="cacute" unicode="&#x107;" horiz-adv-x="1462" 
d="M372 1538l125 115.503l139.5 129c33 30.333 70.333 62.666 112 96.999s74.167 58.166 97.5 71.499c42.667 24.667 84.334 37 125.001 37c50 0 91.5 -17.5 124.5 -52.5s49.5 -76.833 49.5 -125.5c0 -34.667 -9.66699 -68 -29 -100s-48.333 -59.333 -87 -82
c-24 -14 -61.333 -30 -112 -48s-98.834 -33.833 -144.501 -47.5l-178.5 -51.5c-73.333 -20.667 -127 -36.334 -161 -47.001c-9.33301 -3.33301 -20 -5 -32 -5c-18 0 -33 4.66699 -45 14s-18 21 -18 35c0 20 11.333 40 34 60zM1396 539.003l0.994141 -187.001
c0 -39.333 -4.33301 -75.5 -13 -108.5s-20 -61.5 -34 -85.5s-32.667 -45.667 -56 -65s-46.666 -35.333 -69.999 -48s-51.5 -23.667 -84.5 -33s-63.667 -16.5 -92 -21.5s-61.833 -8.83301 -100.5 -11.5s-72.5 -4.33398 -101.5 -5.00098s-63.167 -1 -102.5 -1
c-51.333 0 -96.166 0.833008 -134.499 2.5s-81.666 5.5 -129.999 11.5s-89.833 14.167 -124.5 24.5s-69.834 25 -105.501 44s-64.667 41.667 -87 68s-40.5 59.166 -54.5 98.499s-21 83.666 -21 132.999v600c0 38.667 4.5 74.167 13.5 106.5s20.833 60.333 35.5 84
s34 44.834 58 63.501s48 34.334 72 47.001s52.833 23.5 86.5 32.5s65 16 94 21s62.833 8.83301 101.5 11.5s72.334 4.33398 101.001 5.00098s62.334 1 101.001 1c50 0 89.333 -0.333008 118 -1s68.834 -3.16699 120.501 -7.5s93.334 -10.666 125.001 -18.999
s67.5 -21 107.5 -38s71.333 -37.667 94 -62s42 -55.333 58 -93s24 -80.5 24 -128.5v-191h-571v318h-167v-906h167v340h571z" />
    <glyph glyph-name="Cdotaccent" unicode="&#x10a;" horiz-adv-x="1540" 
d="M1035 1734h-507v467h507v-467zM868 1356l-173.003 -0.00195312v-1123h173v381h604v-245c0 -52 -7.66699 -98.833 -23 -140.5s-35.166 -76.5 -59.499 -104.5s-55.166 -52.333 -92.499 -73s-74.833 -36.667 -112.5 -48s-81.167 -20.333 -130.5 -27s-93.833 -11 -133.5 -13
s-84.5 -3 -134.5 -3c-46 0 -88 0.833008 -126 2.5s-81.833 5.83398 -131.5 12.501s-93.834 15.667 -132.501 27s-78 27.333 -118 48s-73 45 -99 73s-47.333 63 -64 105s-25 89.333 -25 142v856c0 51.333 7.83301 97.833 23.5 139.5s36 76.334 61 104.001
s56.5 51.834 94.5 72.501s76.167 36.5 114.5 47.5s82.333 19.833 132 26.5s94.334 11 134.001 13s84.167 3 133.5 3c52.667 0 98.667 -0.833008 138 -2.5s84.333 -5.66699 135 -12s94.334 -14.833 131.001 -25.5s74 -26.167 112 -46.5s68.833 -44.5 92.5 -72.5
s43 -62.833 58 -104.5s22.5 -88.834 22.5 -141.501v-248h-604v377z" />
    <glyph glyph-name="cdotaccent" unicode="&#x10b;" horiz-adv-x="1462" 
d="M995 1429h-507v467h507v-467zM1396 539l0.994141 -187.001c0 -39.333 -4.33301 -75.5 -13 -108.5s-20 -61.5 -34 -85.5s-32.667 -45.667 -56 -65s-46.666 -35.333 -69.999 -48s-51.5 -23.667 -84.5 -33s-63.667 -16.5 -92 -21.5s-61.833 -8.83301 -100.5 -11.5
s-72.5 -4.33398 -101.5 -5.00098s-63.167 -1 -102.5 -1c-51.333 0 -96.166 0.833008 -134.499 2.5s-81.666 5.5 -129.999 11.5s-89.833 14.167 -124.5 24.5s-69.834 25 -105.501 44s-64.667 41.667 -87 68s-40.5 59.166 -54.5 98.499s-21 83.666 -21 132.999v600
c0 38.667 4.5 74.167 13.5 106.5s20.833 60.333 35.5 84s34 44.834 58 63.501s48 34.334 72 47.001s52.833 23.5 86.5 32.5s65 16 94 21s62.833 8.83301 101.5 11.5s72.334 4.33398 101.001 5.00098s62.334 1 101.001 1c50 0 89.333 -0.333008 118 -1
s68.834 -3.16699 120.501 -7.5s93.334 -10.666 125.001 -18.999s67.5 -21 107.5 -38s71.333 -37.667 94 -62s42 -55.333 58 -93s24 -80.5 24 -128.5v-191h-571v318h-167v-906h167v340h571z" />
    <glyph glyph-name="Ccaron" unicode="&#x10c;" horiz-adv-x="1540" 
d="M639 1806l-263.001 409.002c-12 18.667 -18 36 -18 52c0 18 6.33301 32.833 19 44.5s28.334 17.5 47.001 17.5s36.667 -6.66699 54 -20l303 -235l303 235c18.667 14.667 37.667 22 57 22c18 0 33 -6 45 -18s18 -27 18 -45c0 -16.667 -6 -34.334 -18 -53.001l-263 -409
c-31.333 -48 -78.333 -72 -141 -72c-28.667 0 -56 6.16699 -82 18.5s-46.333 30.166 -61 53.499zM867.999 1356l-173.003 -0.00195312v-1123h173v381h604v-245c0 -52 -7.66699 -98.833 -23 -140.5s-35.166 -76.5 -59.499 -104.5s-55.166 -52.333 -92.499 -73
s-74.833 -36.667 -112.5 -48s-81.167 -20.333 -130.5 -27s-93.833 -11 -133.5 -13s-84.5 -3 -134.5 -3c-46 0 -88 0.833008 -126 2.5s-81.833 5.83398 -131.5 12.501s-93.834 15.667 -132.501 27s-78 27.333 -118 48s-73 45 -99 73s-47.333 63 -64 105s-25 89.333 -25 142
v856c0 51.333 7.83301 97.833 23.5 139.5s36 76.334 61 104.001s56.5 51.834 94.5 72.501s76.167 36.5 114.5 47.5s82.333 19.833 132 26.5s94.334 11 134.001 13s84.167 3 133.5 3c52.667 0 98.667 -0.833008 138 -2.5s84.333 -5.66699 135 -12
s94.334 -14.833 131.001 -25.5s74 -26.167 112 -46.5s68.833 -44.5 92.5 -72.5s43 -62.833 58 -104.5s22.5 -88.834 22.5 -141.501v-248h-604v377z" />
    <glyph glyph-name="ccaron" unicode="&#x10d;" horiz-adv-x="1462" 
d="M599 1501l-263.001 409.002c-12 18.667 -18 36 -18 52c0 18 6.33301 32.833 19 44.5s28.334 17.5 47.001 17.5s36.667 -6.66699 54 -20l303 -235l303 235c18.667 14.667 37.667 22 57 22c18 0 33 -6 45 -18s18 -27 18 -45c0 -16.667 -6 -34.334 -18 -53.001l-263 -409
c-31.333 -48 -78.333 -72 -141 -72c-28.667 0 -56 6.16699 -82 18.5s-46.333 30.166 -61 53.499zM1396 539.002l0.994141 -187.001c0 -39.333 -4.33301 -75.5 -13 -108.5s-20 -61.5 -34 -85.5s-32.667 -45.667 -56 -65s-46.666 -35.333 -69.999 -48s-51.5 -23.667 -84.5 -33
s-63.667 -16.5 -92 -21.5s-61.833 -8.83301 -100.5 -11.5s-72.5 -4.33398 -101.5 -5.00098s-63.167 -1 -102.5 -1c-51.333 0 -96.166 0.833008 -134.499 2.5s-81.666 5.5 -129.999 11.5s-89.833 14.167 -124.5 24.5s-69.834 25 -105.501 44s-64.667 41.667 -87 68
s-40.5 59.166 -54.5 98.499s-21 83.666 -21 132.999v600c0 38.667 4.5 74.167 13.5 106.5s20.833 60.333 35.5 84s34 44.834 58 63.501s48 34.334 72 47.001s52.833 23.5 86.5 32.5s65 16 94 21s62.833 8.83301 101.5 11.5s72.334 4.33398 101.001 5.00098
s62.334 1 101.001 1c50 0 89.333 -0.333008 118 -1s68.834 -3.16699 120.501 -7.5s93.334 -10.666 125.001 -18.999s67.5 -21 107.5 -38s71.333 -37.667 94 -62s42 -55.333 58 -93s24 -80.5 24 -128.5v-191h-571v318h-167v-906h167v340h571z" />
    <glyph glyph-name="Dcaron" unicode="&#x10e;" horiz-adv-x="1555" 
d="M652 1805l-263.001 409.002c-12 18.667 -18 36 -18 52c0 18 6.33301 32.833 19 44.5s28.334 17.5 47.001 17.5s36.667 -6.66699 54 -20l303 -235l303 235c18.667 14.667 37.667 22 57 22c18 0 33 -6 45 -18s18 -27 18 -45c0 -16.667 -6 -34.334 -18 -53.001l-263 -409
c-31.333 -48 -78.333 -72 -141 -72c-28.667 0 -56 6.16699 -82 18.5s-46.333 30.166 -61 53.499zM707.999 235.002h173v1123h-173v-1123zM1485 1204l0.00292969 -811c0 -44.667 -4.5 -85.334 -13.5 -122.001s-22.667 -68.167 -41 -94.5s-38.666 -49.333 -60.999 -69
s-49.5 -35.834 -81.5 -48.501s-63.167 -23.167 -93.5 -31.5s-66 -14.333 -107 -18s-78.167 -6.16699 -111.5 -7.5s-72.333 -2 -117 -2h-756v1595h756c50.667 0 95.667 -1 135 -3s81.666 -6.16699 126.999 -12.5s84.666 -15.166 117.999 -26.499s66.166 -26.833 98.499 -46.5
s58.666 -43 78.999 -70s36.833 -60.167 49.5 -99.5s19 -83.666 19 -132.999z" />
    <glyph glyph-name="dcaron" unicode="&#x10f;" 
d="M1547 1510c0 62.667 20.168 111.667 60.501 147s88.166 53 143.499 53c68.667 0 120.834 -22.667 156.501 -68s53.5 -102.666 53.5 -171.999c0 -46.667 -7.83301 -93.5 -23.5 -140.5s-37.834 -90.167 -66.501 -129.5s-65.5 -71.333 -110.5 -96s-93.833 -37 -146.5 -37
c-14.667 0 -29.334 1 -44.001 3v109c42 0.666992 77.833 11.834 107.5 33.501s45.834 51.167 48.501 88.5c-50 5.33301 -92.333 26.166 -127 62.499s-52 85.166 -52 146.499zM500.001 1327c150.667 0 258.334 -37.333 323.001 -112v495h571v-1710h-520l-37 114
c-30.667 -44 -75.834 -78.5 -135.501 -103.5s-126.167 -37.5 -199.5 -37.5c-278 0 -417 134.667 -417 404v563c0 258 138.333 387 415 387zM822.001 1105h-167v-906h167v906z" />
    <glyph glyph-name="Dcroat" unicode="&#x110;" horiz-adv-x="1449" 
d="M773 868v-142h-721v142h721zM645 237h236v1121h-236v-1121zM1378 393l-2 -1.00195c0 -87.333 -12.667 -156.166 -38 -206.499s-68 -90.166 -128 -119.499c-90 -44 -221 -66 -393 -66h-671v1595h671c172 0 303.333 -22 394 -66c103.333 -49.333 158 -129.333 164 -240
c2 -30 3 -58.333 3 -85v-811z" />
    <glyph glyph-name="dcroat" unicode="&#x111;" 
d="M1478 1638v-231h-833v231h833zM500 1327c150.667 0 258.334 -37.333 323.001 -112v495h571v-1710h-520l-37 114c-30.667 -44 -75.834 -78.5 -135.501 -103.5s-126.167 -37.5 -199.5 -37.5c-278 0 -417 134.667 -417 404v563c0 258 138.333 387 415 387zM822 1105h-167
v-906h167v906z" />
    <glyph glyph-name="Emacron" unicode="&#x112;" horiz-adv-x="1114" 
d="M993 1964v-231h-833v231h833zM1049 1595v-249h-341v-385h318v-250h-318v-460h341v-251h-945v1595h945z" />
    <glyph glyph-name="emacron" unicode="&#x113;" horiz-adv-x="1463" 
d="M1162 1660v-231h-833v231h833zM1396 483c5.33301 -40.667 8.00391 -75 8.00391 -103c0 -148.667 -53 -253.667 -159 -315s-273.333 -92 -502 -92c-52.667 0 -97 0.666992 -133 2s-79 4.66602 -129 9.99902s-91.833 13 -125.5 23s-68.834 24.333 -105.501 43
s-66 41.167 -88 67.5s-40.167 59.333 -54.5 99s-21.5 84.834 -21.5 135.501v600c0 48.667 7.33301 92.5 22 131.5s33.5 71.333 56.5 97s53 47.834 90 66.501s73 33 108 43s76.5 17.833 124.5 23.5s90.167 9.16699 126.5 10.5s78.833 2 127.5 2c38 0 71.333 -0.333008 100 -1
s62.167 -2.33398 100.5 -5.00098s71.666 -6.5 99.999 -11.5s59.166 -12 92.499 -21s62 -19.833 86 -32.5s47.667 -28.5 71 -47.5s42.166 -40.333 56.499 -64s26 -51.667 35 -84s13.5 -67.833 13.5 -106.5v-350h-738v-405h167v284h571zM658.004 777h168v328h-168v-328z" />
    <glyph glyph-name="Eogonek" unicode="&#x118;" horiz-adv-x="1114" 
d="M858 72l71 -72.001c-34 -22.667 -60.833 -51.5 -80.5 -86.5s-29.5 -69.167 -29.5 -102.5s10.5 -60.666 31.5 -81.999s52.167 -32 93.5 -32c38 0 83 9.66699 135 29v-315c-72 -27.333 -139 -41 -201 -41c-100 0 -180 30.667 -240 92s-90 135.333 -90 222
c0 78 26 152.167 78 222.5s129.333 125.5 232 165.5zM1049 1595v-249h-341v-385h318v-250h-318v-460h341v-251h-945v1595h945z" />
    <glyph glyph-name="eogonek" unicode="&#x119;" horiz-adv-x="1463" 
d="M883 56l71 -72.001c-34 -22.667 -60.833 -51.5 -80.5 -86.5s-29.5 -69.167 -29.5 -102.5s10.5 -60.666 31.5 -81.999s52.167 -32 93.5 -32c38 0 83 9.66699 135 29v-315c-72 -27.333 -139 -41 -201 -41c-100 0 -180 30.667 -240 92s-90 135.333 -90 222
c0 78 26 152.167 78 222.5s129.333 125.5 232 165.5zM1396 482.999c5.33301 -40.667 8.00391 -75 8.00391 -103c0 -148.667 -53 -253.667 -159 -315s-273.333 -92 -502 -92c-52.667 0 -97 0.666992 -133 2s-79 4.66602 -129 9.99902s-91.833 13 -125.5 23
s-68.834 24.333 -105.501 43s-66 41.167 -88 67.5s-40.167 59.333 -54.5 99s-21.5 84.834 -21.5 135.501v600c0 48.667 7.33301 92.5 22 131.5s33.5 71.333 56.5 97s53 47.834 90 66.501s73 33 108 43s76.5 17.833 124.5 23.5s90.167 9.16699 126.5 10.5s78.833 2 127.5 2
c38 0 71.333 -0.333008 100 -1s62.167 -2.33398 100.5 -5.00098s71.666 -6.5 99.999 -11.5s59.166 -12 92.499 -21s62 -19.833 86 -32.5s47.667 -28.5 71 -47.5s42.166 -40.333 56.499 -64s26 -51.667 35 -84s13.5 -67.833 13.5 -106.5v-350h-738v-405h167v284h571z
M658.004 776.999h168v328h-168v-328z" />
    <glyph glyph-name="Ecaron" unicode="&#x11a;" horiz-adv-x="1114" 
d="M435 1805l-263.001 409.002c-12 18.667 -18 36 -18 52c0 18 6.33301 32.833 19 44.5s28.334 17.5 47.001 17.5s36.667 -6.66699 54 -20l303 -235l303 235c18.667 14.667 37.667 22 57 22c18 0 33 -6 45 -18s18 -27 18 -45c0 -16.667 -6 -34.334 -18 -53.001l-263 -409
c-31.333 -48 -78.333 -72 -141 -72c-28.667 0 -56 6.16699 -82 18.5s-46.333 30.166 -61 53.499zM1049 1595v-249h-341v-385h318v-250h-318v-460h341v-251h-945v1595h945z" />
    <glyph glyph-name="ecaron" unicode="&#x11b;" horiz-adv-x="1463" 
d="M603 1501l-263.001 409.002c-12 18.667 -18 36 -18 52c0 18 6.33301 32.833 19 44.5s28.334 17.5 47.001 17.5s36.667 -6.66699 54 -20l303 -235l303 235c18.667 14.667 37.667 22 57 22c18 0 33 -6 45 -18s18 -27 18 -45c0 -16.667 -6 -34.334 -18 -53.001l-263 -409
c-31.333 -48 -78.333 -72 -141 -72c-28.667 0 -56 6.16699 -82 18.5s-46.333 30.166 -61 53.499zM1396 483.002c5.33301 -40.667 8.00391 -75 8.00391 -103c0 -148.667 -53 -253.667 -159 -315s-273.333 -92 -502 -92c-52.667 0 -97 0.666992 -133 2
s-79 4.66602 -129 9.99902s-91.833 13 -125.5 23s-68.834 24.333 -105.501 43s-66 41.167 -88 67.5s-40.167 59.333 -54.5 99s-21.5 84.834 -21.5 135.501v600c0 48.667 7.33301 92.5 22 131.5s33.5 71.333 56.5 97s53 47.834 90 66.501s73 33 108 43
s76.5 17.833 124.5 23.5s90.167 9.16699 126.5 10.5s78.833 2 127.5 2c38 0 71.333 -0.333008 100 -1s62.167 -2.33398 100.5 -5.00098s71.666 -6.5 99.999 -11.5s59.166 -12 92.499 -21s62 -19.833 86 -32.5s47.667 -28.5 71 -47.5s42.166 -40.333 56.499 -64
s26 -51.667 35 -84s13.5 -67.833 13.5 -106.5v-350h-738v-405h167v284h571zM658.003 777.002h168v328h-168v-328z" />
    <glyph glyph-name="Gbreve" unicode="&#x11e;" horiz-adv-x="1547" 
d="M781 1734c-74.667 0 -139.502 7.83398 -194.502 23.501s-99.5 36.834 -133.5 63.501s-61.167 61 -81.5 103s-34.166 85.833 -41.499 131.5s-11 98.834 -11 159.5h297c0 -32 1.33301 -56.833 4 -74.5s9.16699 -35.5 19.5 -53.5s27 -30.833 50 -38.5s53.5 -11.5 91.5 -11.5
s68.5 3.83301 91.5 11.5s39.667 20.5 50 38.5s16.833 35.833 19.5 53.5s4 42.5 4 74.5h297c0 -60.667 -3.66699 -113.834 -11 -159.501s-21.166 -89.5 -41.499 -131.5s-47.5 -76.333 -81.5 -103s-78.5 -47.834 -133.5 -63.501s-119.833 -23.5 -194.5 -23.5zM910.998 124.001
c-66.667 -108.667 -183.665 -162.998 -350.998 -162.998c-65.333 0 -125.833 8 -181.5 24s-105.334 39.667 -149.001 71s-77.834 73 -102.501 125s-37 111.333 -37 178v869c0 52 7.66699 98.667 23 140s35.333 75.833 60 103.5s56.167 51.667 94.5 72
s76.333 36.166 114 47.499s81.5 20.166 131.5 26.499s94.833 10.333 134.5 12s84.5 2.5 134.5 2.5c460 0 690 -135 690 -405v-248h-605v379h-173v-1123h173v303h-85v231h690v-769h-487z" />
    <glyph glyph-name="gbreve" unicode="&#x11f;" horiz-adv-x="1470" 
d="M739 1429c-74.667 0 -139.502 7.83301 -194.502 23.5s-99.5 36.834 -133.5 63.501s-61.167 61 -81.5 103s-34.166 85.833 -41.499 131.5s-11 98.834 -11 159.501h297c0 -32 1.33301 -56.833 4 -74.5s9.16699 -35.5 19.5 -53.5s27 -30.833 50 -38.5s53.5 -11.5 91.5 -11.5
s68.5 3.83301 91.5 11.5s39.667 20.5 50 38.5s16.833 35.833 19.5 53.5s4 42.5 4 74.5h297c0 -60.667 -3.66699 -113.834 -11 -159.501s-21.166 -89.5 -41.499 -131.5s-47.5 -76.333 -81.5 -103s-78.5 -47.834 -133.5 -63.501s-119.833 -23.5 -194.5 -23.5zM507.998 1327
c157.333 -1.33301 270.334 -48 339.001 -140l36 112h511v-1063c0 -209.333 -58.167 -363 -174.5 -461s-297.833 -147 -544.5 -147c-170.667 0 -329.667 20.333 -477 61l57 291c94 -26 209.333 -39 346 -39c115.333 0 193.666 12.333 234.999 37v227
c-30 -38 -74.333 -66.5 -133 -85.5s-124.667 -28.5 -198 -28.5c-280 0 -420 130.333 -420 391v445c0 266.667 141 400 423 400zM822.999 1104h-167v-788h167v788z" />
    <glyph glyph-name="Gdotaccent" unicode="&#x120;" horiz-adv-x="1547" 
d="M1035 1734h-507v467h507v-467zM911 124c-66.667 -108.667 -183.665 -162.998 -350.998 -162.998c-65.333 0 -125.833 8 -181.5 24s-105.334 39.667 -149.001 71s-77.834 73 -102.501 125s-37 111.333 -37 178v869c0 52 7.66699 98.667 23 140s35.333 75.833 60 103.5
s56.167 51.667 94.5 72s76.333 36.166 114 47.499s81.5 20.166 131.5 26.499s94.833 10.333 134.5 12s84.5 2.5 134.5 2.5c460 0 690 -135 690 -405v-248h-605v379h-173v-1123h173v303h-85v231h690v-769h-487z" />
    <glyph glyph-name="gdotaccent" unicode="&#x121;" horiz-adv-x="1470" 
d="M993 1429h-507v467h507v-467zM508 1327c157.333 -1.33301 270.334 -48 339.001 -140l36 112h511v-1063c0 -209.333 -58.167 -363 -174.5 -461s-297.833 -147 -544.5 -147c-170.667 0 -329.667 20.333 -477 61l57 291c94 -26 209.333 -39 346 -39
c115.333 0 193.666 12.333 234.999 37v227c-30 -38 -74.333 -66.5 -133 -85.5s-124.667 -28.5 -198 -28.5c-280 0 -420 130.333 -420 391v445c0 266.667 141 400 423 400zM823.001 1104h-167v-788h167v788z" />
    <glyph glyph-name="Gcommaaccent" unicode="&#x122;" horiz-adv-x="1547" 
d="M911 124c-66.667 -108.667 -183.665 -162.998 -350.998 -162.998c-65.333 0 -125.833 8 -181.5 24s-105.334 39.667 -149.001 71s-77.834 73 -102.501 125s-37 111.333 -37 178v869c0 52 7.66699 98.667 23 140s35.333 75.833 60 103.5s56.167 51.667 94.5 72
s76.333 36.166 114 47.499s81.5 20.166 131.5 26.499s94.833 10.333 134.5 12s84.5 2.5 134.5 2.5c460 0 690 -135 690 -405v-248h-605v379h-173v-1123h173v303h-85v231h690v-769h-487z" />
    <glyph glyph-name="gcommaaccent" unicode="&#x123;" horiz-adv-x="1470" 
d="M511 1327v-1.00098c157.333 0 270.333 -46.333 339 -139l36 112h511v-1063c0 -209.333 -58.167 -363 -174.5 -461s-297.833 -147 -544.5 -147c-170.667 0 -329.667 20.333 -477 61l57 291c51.333 -14 115.5 -24.833 192.5 -32.5s153 -9.16699 228 -4.5
s128.5 16.334 160.5 35.001v227c-30 -38 -74.333 -66.5 -133 -85.5s-124.667 -28.5 -198 -28.5c-280 0 -420 130.333 -420 391v445c0 266.667 141 400 423 400zM826 1104h-167v-788h167v788z" />
    <glyph glyph-name="Hbar" unicode="&#x126;" horiz-adv-x="1703" 
d="M1659 1349v-191h-1605v191h1605zM1553 1595v-1595h-605v688h-193v-688h-604v1595h604v-657h193v657h605z" />
    <glyph glyph-name="hbar" unicode="&#x127;" horiz-adv-x="1511" 
d="M1188 1619v-169h-1145v169h1145zM1023 1343c277.333 0 416.001 -132.667 416.001 -398v-945h-571v1065h-166v-1065h-572v1710h572v-500c26 42.667 68.167 75.5 126.5 98.5s123.166 34.5 194.499 34.5z" />
    <glyph glyph-name="Itilde" unicode="&#x128;" horiz-adv-x="788" 
d="M750 1759h2.99609c0 46.667 -8.83301 85.667 -26.5 117s-45.5 47 -83.5 47c-13.333 0 -27.166 -3.16699 -41.499 -9.5s-24.5 -11.5 -30.5 -15.5s-16.333 -12 -31 -24c-57.333 -46 -113 -81 -167 -105s-120.667 -36 -200 -36c-114 0 -200 25 -258 75s-98.667 127 -122 231
c-18 62.667 -27 144.334 -27 245h296c0 -48.667 8.66699 -88.834 26 -120.5c17.333 -31.667 46 -47.5 86 -47.5c4.66699 0 9.33398 0.333008 14.001 1s9.33398 1.66699 14.001 3l12.5 3.5c3.66699 1 8 3 13 6l11 6.5c2.33301 1.33301 6.33301 3.83301 12 7.5
s9.16699 6 10.5 7l11 8c6 4.33301 9.33301 6.83301 10 7.5c35.333 26 60.666 44 75.999 54s39.5 23.833 72.5 41.5s66.167 30 99.5 37s70 10.5 110 10.5c50.667 0 95.834 -4.16699 135.501 -12.5s73.834 -20 102.501 -35s53 -35 73 -60s36.167 -51.5 48.5 -79.5
s22 -62.167 29 -102.5s11.667 -80.333 14 -120s3.5 -86.5 3.5 -140.5h-296zM707.996 1595v-1595h-604v1595h604z" />
    <glyph glyph-name="itilde" unicode="&#x129;" horiz-adv-x="744" 
d="M729 1455h2.99609c0 46.667 -8.83301 85.667 -26.5 117s-45.5 47 -83.5 47c-13.333 0 -27.166 -3.16699 -41.499 -9.5s-24.5 -11.5 -30.5 -15.5s-16.333 -12 -31 -24c-57.333 -46 -113 -81 -167 -105s-120.667 -36 -200 -36c-114 0 -200 25 -258 75s-98.667 127 -122 231
c-18 62.667 -27 144.334 -27 245.001h296c0 -48.667 8.66699 -88.834 26 -120.501s46 -47.5 86 -47.5c4.66699 0 9.33398 0.333008 14.001 1s9.33398 1.66699 14.001 3l12.5 3.5c3.66699 1 8 3 13 6l11 6.5c2.33301 1.33301 6.33301 3.83301 12 7.5s9.16699 6 10.5 7l11 8
c6 4.33301 9.33301 6.83301 10 7.5c35.333 26 60.666 44 75.999 54s39.5 23.833 72.5 41.5s66.167 30 99.5 37s70 10.5 110 10.5c50.667 0 95.834 -4.16699 135.501 -12.5s73.834 -20 102.501 -35s53 -35 73 -60s36.167 -51.5 48.5 -79.5s22 -62.167 29 -102.5
s11.667 -80.333 14 -120s3.5 -86.5 3.5 -140.5h-296zM668.996 0h-569v1298h569v-1298z" />
    <glyph glyph-name="Imacron" unicode="&#x12a;" horiz-adv-x="788" 
d="M822 1964v-231h-833v231h833zM708 1595v-1595h-604v1595h604z" />
    <glyph glyph-name="imacron" unicode="&#x12b;" horiz-adv-x="744" 
d="M801 1660v-231h-833v231h833zM669 0h-569v1298h569v-1298z" />
    <glyph glyph-name="Ibreve" unicode="&#x12c;" horiz-adv-x="788" 
d="M406 1733c-74.667 0 -139.502 7.83398 -194.502 23.501s-99.5 36.834 -133.5 63.501s-61.167 61 -81.5 103s-34.166 85.833 -41.499 131.5s-11 98.834 -11 159.5h297c0 -32 1.33301 -56.833 4 -74.5s9.16699 -35.5 19.5 -53.5s27 -30.833 50 -38.5s53.5 -11.5 91.5 -11.5
s68.5 3.83301 91.5 11.5s39.667 20.5 50 38.5s16.833 35.833 19.5 53.5s4 42.5 4 74.5h297c0 -60.667 -3.66699 -113.834 -11 -159.501s-21.166 -89.5 -41.499 -131.5s-47.5 -76.333 -81.5 -103s-78.5 -47.834 -133.5 -63.501s-119.833 -23.5 -194.5 -23.5zM707.998 1595
v-1595h-604v1595h604z" />
    <glyph glyph-name="ibreve" unicode="&#x12d;" horiz-adv-x="744" 
d="M385 1429c-74.667 0 -139.502 7.83301 -194.502 23.5s-99.5 36.834 -133.5 63.501s-61.167 61 -81.5 103s-34.166 85.833 -41.499 131.5s-11 98.834 -11 159.501h297c0 -32 1.33301 -56.833 4 -74.5s9.16699 -35.5 19.5 -53.5s27 -30.833 50 -38.5s53.5 -11.5 91.5 -11.5
s68.5 3.83301 91.5 11.5s39.667 20.5 50 38.5s16.833 35.833 19.5 53.5s4 42.5 4 74.5h297c0 -60.667 -3.66699 -113.834 -11 -159.501s-21.166 -89.5 -41.499 -131.5s-47.5 -76.333 -81.5 -103s-78.5 -47.834 -133.5 -63.501s-119.833 -23.5 -194.5 -23.5zM668.998 0h-569
v1298h569v-1298z" />
    <glyph glyph-name="Iogonek" unicode="&#x12e;" horiz-adv-x="788" 
d="M487 71l71 -72.001c-34 -22.667 -60.833 -51.5 -80.5 -86.5s-29.5 -69.167 -29.5 -102.5s10.5 -60.666 31.5 -81.999s52.167 -32 93.5 -32c38 0 83 9.66699 135 29v-315c-72 -27.333 -139 -41 -201 -41c-100 0 -180 30.667 -240 92s-90 135.333 -90 222
c0 78 26 152.167 78 222.5s129.333 125.5 232 165.5zM708 1595v-1595h-604v1595h604z" />
    <glyph glyph-name="iogonek" unicode="&#x12f;" horiz-adv-x="759" 
d="M455 71l71 -72.001c-34 -22.667 -60.833 -51.5 -80.5 -86.5s-29.5 -69.167 -29.5 -102.5s10.5 -60.666 31.5 -81.999s52.167 -32 93.5 -32c38 0 83 9.66699 135 29v-315c-72 -27.333 -139 -41 -201 -41c-100 0 -180 30.667 -240 92s-90 135.333 -90 222
c0 78 26 152.167 78 222.5s129.333 125.5 232 165.5zM675 -0.000976562h-571v1300h571v-1300zM675 1709v-284h-571v284h571z" />
    <glyph glyph-name="Idotaccent" unicode="&#x130;" horiz-adv-x="788" 
d="M659 1733h-507v467h507v-467zM708 1595v-1595h-604v1595h604z" />
    <glyph glyph-name="dotlessi" unicode="&#x131;" horiz-adv-x="744" 
d="M669 0h-569v1298h569v-1298z" />
    <glyph glyph-name="IJ" unicode="&#x132;" horiz-adv-x="1667" 
d="M720 1595v-1595h-604v1595h604zM916 -75v-1c-22 0 -54.333 0.666992 -97 2v272h173v1396h604v-1260c0 -50.667 -7.16699 -96.167 -21.5 -136.5s-33.5 -74.333 -57.5 -102s-54.167 -51.667 -90.5 -72s-73.833 -36.5 -112.5 -48.5s-82.667 -22.333 -132 -31
c-72 -12.667 -160.667 -19 -266 -19z" />
    <glyph glyph-name="ij" unicode="&#x133;" horiz-adv-x="1646" 
d="M678 0h-571v1300h571v-1300zM678 1709v-284h-571v284h571zM1561 94c0 -144 -39 -250 -117 -318s-192.667 -102 -344 -102c-109.333 0 -199.333 7 -270 21l-30 239h189v1366h572v-1206zM1561 1709v-284h-572v284h572z" />
    <glyph glyph-name="Jcircumflex" unicode="&#x134;" horiz-adv-x="908" 
d="M38 1849l263.001 409.002c14.667 23.333 35 41.166 61 53.499s53.333 18.5 82 18.5c62.667 0 109.667 -24 141 -72l263 -409c12 -19.333 18 -37 18 -53c0 -18 -6 -33 -18 -45s-27 -18 -45 -18c-19.333 0 -38.333 7.33301 -57 22l-303 235l-303 -235
c-17.333 -13.333 -35.333 -20 -54 -20s-34.334 5.83301 -47.001 17.5s-19 26.5 -19 44.5c0 15.333 6 32.666 18 51.999zM831.001 1594v-1320c0 -77.333 -13.167 -144.5 -39.5 -201.5s-63.5 -102 -111.5 -135s-102.667 -57.333 -164 -73s-130 -23.5 -206 -23.5
c-78.667 0 -164 8.33301 -256 25v272h173v1456h604z" />
    <glyph glyph-name="jcircumflex" unicode="&#x135;" horiz-adv-x="868" 
d="M-2 1545l263.001 409.002c14.667 23.333 35 41.166 61 53.499s53.333 18.5 82 18.5c62.667 0 109.667 -24 141 -72l263 -409c12 -19.333 18 -37 18 -53c0 -18 -6 -33 -18 -45s-27 -18 -45 -18c-19.333 0 -38.333 7.33301 -57 22l-303 235l-303 -235
c-17.333 -13.333 -35.333 -20 -54 -20s-34.334 5.83301 -47.001 17.5s-19 26.5 -19 44.5c0 15.333 6 32.666 18 51.999zM784.001 94.002c0 -144 -39 -250 -117 -318s-192.667 -102 -344 -102c-109.333 0 -199.333 7 -270 21l-30 239h189v1366h572v-1206z" />
    <glyph glyph-name="Kcommaaccent" unicode="&#x136;" horiz-adv-x="1689" 
d="M603 -295c0 62.667 20.168 111.667 60.501 147s88.166 53 143.499 53c68.667 0 120.834 -22.667 156.501 -68s53.5 -102.666 53.5 -171.999c0 -46.667 -7.83301 -93.5 -23.5 -140.5s-37.834 -90.167 -66.501 -129.5s-65.5 -71.333 -110.5 -96s-93.833 -37 -146.5 -37
c-14.667 0 -29.334 1 -44.001 3v109c42 0.666992 77.833 11.834 107.5 33.501s45.834 51.167 48.501 88.5c-50 5.33301 -92.333 26.166 -127 62.499s-52 85.166 -52 146.499zM1025 0l-259 696l-67 -41l10 -163v-492h-605v1595h605v-601l-10 -144l37 -6l37 141l229 610h619
l-342 -751l383 -844h-637z" />
    <glyph glyph-name="kcommaaccent" unicode="&#x137;" horiz-adv-x="1525" 
d="M579 -295c0 62.667 20.168 111.667 60.501 147s88.166 53 143.499 53c68.667 0 120.834 -22.667 156.501 -68s53.5 -102.666 53.5 -171.999c0 -46.667 -7.83301 -93.5 -23.5 -140.5s-37.834 -90.167 -66.501 -129.5s-65.5 -71.333 -110.5 -96s-93.833 -37 -146.5 -37
c-14.667 0 -29.334 1 -44.001 3v109c42 0.666992 77.833 11.834 107.5 33.501s45.834 51.167 48.501 88.5c-50 5.33301 -92.333 26.166 -127 62.499s-52 85.166 -52 146.499zM105.001 0v1710h571v-912l269 502h586l-331 -610l338 -690h-580l-239 575l-43 -97v-478h-571z" />
    <glyph glyph-name="kgreenlandic" unicode="&#x138;" horiz-adv-x="1590" 
d="M100 0v1299h584v-441l268 442h586l-335 -510l358 -790h-575l-189 455l-113 -137v-318h-584z" />
    <glyph glyph-name="Lacute" unicode="&#x139;" horiz-adv-x="1094" 
d="M207 1842l125 115.502l139.5 129c33 30.333 70.333 62.666 112 97c41.667 34.333 74.167 58.166 97.5 71.499c42.667 24.667 84.334 37 125.001 37c50 0 91.5 -17.5 124.5 -52.5s49.5 -76.833 49.5 -125.5c0 -34.667 -9.66699 -68 -29 -100s-48.333 -59.333 -87 -82
c-24 -14 -61.333 -30 -112 -48s-98.834 -33.833 -144.501 -47.5l-178.5 -51.5c-73.333 -20.667 -127 -36.334 -161 -47.001c-9.33301 -3.33301 -20 -5 -32 -5c-18 0 -33 4.66699 -45 14s-18 21 -18 35c0 20 11.333 40 34 60zM104 0.00195312v1595h604v-1354h341v-241h-945z
" />
    <glyph glyph-name="lacute" unicode="&#x13a;" horiz-adv-x="760" 
d="M21 1921l125 115.502l139.5 129c33 30.333 70.333 62.666 112 97c41.667 34.333 74.167 58.166 97.5 71.499c42.667 24.667 84.334 37 125.001 37c50 0 91.5 -17.5 124.5 -52.5s49.5 -76.833 49.5 -125.5c0 -34.667 -9.66699 -68 -29 -100s-48.333 -59.333 -87 -82
c-24 -14 -61.333 -30 -112 -48s-98.834 -33.833 -144.501 -47.5l-178.5 -51.5c-73.333 -20.667 -127 -36.334 -161 -47.001c-9.33301 -3.33301 -20 -5 -32 -5c-18 0 -33 4.66699 -45 14s-18 21 -18 35c0 20 11.333 40 34 60zM676 0.00195312h-571v1710h571v-1710z" />
    <glyph glyph-name="Lcommaaccent" unicode="&#x13b;" horiz-adv-x="1094" 
d="M347 -295c0 62.667 20.168 111.667 60.501 147s88.166 53 143.499 53c68.667 0 120.834 -22.667 156.501 -68s53.5 -102.666 53.5 -171.999c0 -46.667 -7.83301 -93.5 -23.5 -140.5s-37.834 -90.167 -66.501 -129.5s-65.5 -71.333 -110.5 -96s-93.833 -37 -146.5 -37
c-14.667 0 -29.334 1 -44.001 3v109c42 0.666992 77.833 11.834 107.5 33.501s45.834 51.167 48.501 88.5c-50 5.33301 -92.333 26.166 -127 62.499s-52 85.166 -52 146.499zM104.001 0v1595h604v-1354h341v-241h-945z" />
    <glyph glyph-name="lcommaaccent" unicode="&#x13c;" horiz-adv-x="760" 
d="M159 -295c0 62.667 20.168 111.667 60.501 147s88.166 53 143.499 53c68.667 0 120.834 -22.667 156.501 -68s53.5 -102.666 53.5 -171.999c0 -46.667 -7.83301 -93.5 -23.5 -140.5s-37.834 -90.167 -66.501 -129.5s-65.5 -71.333 -110.5 -96s-93.833 -37 -146.5 -37
c-14.667 0 -29.334 1 -44.001 3v109c42 0.666992 77.833 11.834 107.5 33.501s45.834 51.167 48.501 88.5c-50 5.33301 -92.333 26.166 -127 62.499s-52 85.166 -52 146.499zM676.001 0h-571v1710h571v-1710z" />
    <glyph glyph-name="Lcaron" unicode="&#x13d;" horiz-adv-x="1094" 
d="M1202 1431c0 62.667 20.168 111.667 60.501 147s88.166 53 143.499 53c68.667 0 120.834 -22.667 156.501 -68s53.5 -102.666 53.5 -171.999c0 -46.667 -7.83301 -93.5 -23.5 -140.5s-37.834 -90.167 -66.501 -129.5s-65.5 -71.333 -110.5 -96s-93.833 -37 -146.5 -37
c-14.667 0 -29.334 1 -44.001 3v109c42 0.666992 77.833 11.834 107.5 33.501s45.834 51.167 48.501 88.5c-50 5.33301 -92.333 26.166 -127 62.499s-52 85.166 -52 146.499zM104.001 0v1595h604v-1354h341v-241h-945z" />
    <glyph glyph-name="lcaron" unicode="&#x13e;" horiz-adv-x="760" 
d="M829 1510c0 62.667 20.168 111.667 60.501 147s88.166 53 143.499 53c68.667 0 120.834 -22.667 156.501 -68s53.5 -102.666 53.5 -171.999c0 -46.667 -7.83301 -93.5 -23.5 -140.5s-37.834 -90.167 -66.501 -129.5s-65.5 -71.333 -110.5 -96s-93.833 -37 -146.5 -37
c-14.667 0 -29.334 1 -44.001 3v109c42 0.666992 77.833 11.834 107.5 33.501s45.834 51.167 48.501 88.5c-50 5.33301 -92.333 26.166 -127 62.499s-52 85.166 -52 146.499zM676.001 0h-571v1710h571v-1710z" />
    <glyph glyph-name="Ldot" unicode="&#x13f;" horiz-adv-x="1094" 
d="M1340 950h-507v467h507v-467zM103 0v1595h604v-1354h341v-241h-945z" />
    <glyph glyph-name="ldot" unicode="&#x140;" horiz-adv-x="1313" 
d="M1313 655h-507v467h507v-467zM676 0h-571v1710h571v-1710z" />
    <glyph glyph-name="Lslash" unicode="&#x141;" horiz-adv-x="1534" 
d="M1320 1072l-1248 -662v340l1248 660v-338zM377 0v1595h604v-1354h341v-241h-945z" />
    <glyph glyph-name="lslash" unicode="&#x142;" horiz-adv-x="1145" 
d="M1094 1023l-1030 -484v249l1030 483v-248zM852 0h-571v1710h571v-1710z" />
    <glyph glyph-name="Nacute" unicode="&#x143;" horiz-adv-x="1576" 
d="M431 1842l125 115.502l139.5 129c33 30.333 70.333 62.666 112 97c41.667 34.333 74.167 58.166 97.5 71.499c42.667 24.667 84.334 37 125.001 37c50 0 91.5 -17.5 124.5 -52.5s49.5 -76.833 49.5 -125.5c0 -34.667 -9.66699 -68 -29 -100s-48.333 -59.333 -87 -82
c-24 -14 -61.333 -30 -112 -48s-98.834 -33.833 -144.501 -47.5l-178.5 -51.5c-73.333 -20.667 -127 -36.334 -161 -47.001c-9.33301 -3.33301 -20 -5 -32 -5c-18 0 -33 4.66699 -45 14s-18 21 -18 35c0 20 11.333 40 34 60zM957 0.00195312l-405 711v-711h-448v1595h517
l431 -761v761h444v-1595h-539z" />
    <glyph glyph-name="nacute" unicode="&#x144;" horiz-adv-x="1482" 
d="M384 1538l125 115.503l139.5 129c33 30.333 70.333 62.666 112 96.999s74.167 58.166 97.5 71.499c42.667 24.667 84.334 37 125.001 37c50 0 91.5 -17.5 124.5 -52.5s49.5 -76.833 49.5 -125.5c0 -34.667 -9.66699 -68 -29 -100s-48.333 -59.333 -87 -82
c-24 -14 -61.333 -30 -112 -48s-98.834 -33.833 -144.501 -47.5l-178.5 -51.5c-73.333 -20.667 -127 -36.334 -161 -47.001c-9.33301 -3.33301 -20 -5 -32 -5c-18 0 -33 4.66699 -45 14s-18 21 -18 35c0 20 11.333 40 34 60zM987 1327
c136.667 -0.666992 241 -33.333 313 -98s108 -159.667 108 -285v-944h-571v1105h-167v-1105h-571v1300h510l37 -112c30 42 75.667 75.667 137 101s129.333 38 204 38z" />
    <glyph glyph-name="Ncommaaccent" unicode="&#x145;" horiz-adv-x="1576" 
d="M567 -295c0 62.667 20.168 111.667 60.501 147s88.166 53 143.499 53c68.667 0 120.834 -22.667 156.501 -68s53.5 -102.666 53.5 -171.999c0 -46.667 -7.83301 -93.5 -23.5 -140.5s-37.834 -90.167 -66.501 -129.5s-65.5 -71.333 -110.5 -96s-93.833 -37 -146.5 -37
c-14.667 0 -29.334 1 -44.001 3v109c42 0.666992 77.833 11.834 107.5 33.501s45.834 51.167 48.501 88.5c-50 5.33301 -92.333 26.166 -127 62.499s-52 85.166 -52 146.499zM957.001 0l-405 711v-711h-448v1595h517l431 -761v761h444v-1595h-539z" />
    <glyph glyph-name="ncommaaccent" unicode="&#x146;" horiz-adv-x="1482" 
d="M543 -295c0 62.667 20.168 111.667 60.501 147s88.166 53 143.499 53c68.667 0 120.834 -22.667 156.501 -68s53.5 -102.666 53.5 -171.999c0 -46.667 -7.83301 -93.5 -23.5 -140.5s-37.834 -90.167 -66.501 -129.5s-65.5 -71.333 -110.5 -96s-93.833 -37 -146.5 -37
c-14.667 0 -29.334 1 -44.001 3v109c42 0.666992 77.833 11.834 107.5 33.501s45.834 51.167 48.501 88.5c-50 5.33301 -92.333 26.166 -127 62.499s-52 85.166 -52 146.499zM987.001 1327c136.667 -0.666992 241 -33.333 313 -98s108 -159.667 108 -285v-944h-571v1105
h-167v-1105h-571v1300h510l37 -112c30 42 75.667 75.667 137 101s129.333 38 204 38z" />
    <glyph glyph-name="Ncaron" unicode="&#x147;" horiz-adv-x="1576" 
d="M658 1805l-263.001 409.002c-12 18.667 -18 36 -18 52c0 18 6.33301 32.833 19 44.5s28.334 17.5 47.001 17.5s36.667 -6.66699 54 -20l303 -235l303 235c18.667 14.667 37.667 22 57 22c18 0 33 -6 45 -18s18 -27 18 -45c0 -16.667 -6 -34.334 -18 -53.001l-263 -409
c-31.333 -48 -78.333 -72 -141 -72c-28.667 0 -56 6.16699 -82 18.5s-46.333 30.166 -61 53.499zM956.999 0.00195312l-405 711v-711h-448v1595h517l431 -761v761h444v-1595h-539z" />
    <glyph glyph-name="ncaron" unicode="&#x148;" horiz-adv-x="1482" 
d="M611 1501l-263.001 409.002c-12 18.667 -18 36 -18 52c0 18 6.33301 32.833 19 44.5s28.334 17.5 47.001 17.5s36.667 -6.66699 54 -20l303 -235l303 235c18.667 14.667 37.667 22 57 22c18 0 33 -6 45 -18s18 -27 18 -45c0 -16.667 -6 -34.334 -18 -53.001l-263 -409
c-31.333 -48 -78.333 -72 -141 -72c-28.667 0 -56 6.16699 -82 18.5s-46.333 30.166 -61 53.499zM986.999 1327c136.667 -0.666992 241 -33.333 313 -98s108 -159.667 108 -285v-944h-571v1105h-167v-1105h-571v1300h510l37 -112c30 42 75.667 75.667 137 101
s129.333 38 204 38z" />
    <glyph glyph-name="Omacron" unicode="&#x14c;" horiz-adv-x="1542" 
d="M1196 1964v-231h-833v231h833zM694 235h173v1127h-173v-1127zM777 -39c-53.333 0 -99.9971 0.835938 -139.997 2.50293s-85.167 5.66699 -135.5 12s-93.833 15.166 -130.5 26.499s-73.667 27.166 -111 47.499s-67.833 44.5 -91.5 72.5s-42.834 63.167 -57.501 105.5
s-22 89.833 -22 142.5v856c0 51.333 7.66699 97.666 23 138.999s35.333 76 60 104s56 52.167 94 72.5s75.833 36.166 113.5 47.499s81.167 20.166 130.5 26.499s93.833 10.5 133.5 12.5s84.167 3 133.5 3c46 0 87.667 -0.833008 125 -2.5s81 -5.66699 131 -12
s94.167 -15 132.5 -26s77.5 -26.667 117.5 -47s73 -44.333 99 -72s47.333 -62.5 64 -104.5s25 -89 25 -141v-856c0 -52.667 -7.83301 -100 -23.5 -142s-35.834 -77 -60.501 -105s-56.334 -52.167 -95.001 -72.5s-76.667 -36.166 -114 -47.499s-81.333 -20.166 -132 -26.499
s-95.5 -10.5 -134.5 -12.5s-83.833 -3 -134.5 -3z" />
    <glyph glyph-name="omacron" unicode="&#x14d;" horiz-adv-x="1465" 
d="M1158 1660v-231h-833v231h833zM658 233h166v872h-166v-872zM745 -27c-41.333 0 -76.9971 0.336914 -106.997 1.00391s-64.5 2.5 -103.5 5.5s-72.833 7 -101.5 12s-59.5 12.167 -92.5 21.5s-61.167 20.5 -84.5 33.5s-46.166 29 -68.499 48s-40.5 40.667 -54.5 65
s-25.167 52.833 -33.5 85.5s-12.5 68.667 -12.5 108v600c0 42 5.16699 80.5 15.5 115.5s25.666 64.833 45.999 89.5s43 46.5 68 65.5s54.833 34.5 89.5 46.5s68.167 22 100.5 30s69.666 13.833 111.999 17.5s80.166 6.16699 113.499 7.5s71.333 2 114 2
c52 0 97.833 -0.833008 137.5 -2.5s83.167 -5.5 130.5 -11.5s88.166 -14.333 122.499 -25s68.666 -25.334 102.999 -44.001s62.333 -41 84 -67s39.167 -58 52.5 -96s20 -81 20 -129v-600c0 -59.333 -8.33301 -111.333 -25 -156s-42.667 -80.334 -78 -107.001
s-70.666 -48.334 -105.999 -65.001s-81.833 -28.334 -139.5 -35.001s-106.5 -11 -146.5 -13s-92 -3 -156 -3z" />
    <glyph glyph-name="Obreve" unicode="&#x14e;" horiz-adv-x="1542" 
d="M780 1733c-74.667 0 -139.502 7.83398 -194.502 23.501s-99.5 36.834 -133.5 63.501s-61.167 61 -81.5 103s-34.166 85.833 -41.499 131.5s-11 98.834 -11 159.5h297c0 -32 1.33301 -56.833 4 -74.5s9.16699 -35.5 19.5 -53.5s27 -30.833 50 -38.5s53.5 -11.5 91.5 -11.5
s68.5 3.83301 91.5 11.5s39.667 20.5 50 38.5s16.833 35.833 19.5 53.5s4 42.5 4 74.5h297c0 -60.667 -3.66699 -113.834 -11 -159.501s-21.166 -89.5 -41.499 -131.5s-47.5 -76.333 -81.5 -103s-78.5 -47.834 -133.5 -63.501s-119.833 -23.5 -194.5 -23.5zM693.998 235.001
h173v1127h-173v-1127zM776.998 -38.999c-53.333 0 -99.9971 0.835938 -139.997 2.50293s-85.167 5.66699 -135.5 12s-93.833 15.166 -130.5 26.499s-73.667 27.166 -111 47.499s-67.833 44.5 -91.5 72.5s-42.834 63.167 -57.501 105.5s-22 89.833 -22 142.5v856
c0 51.333 7.66699 97.666 23 138.999s35.333 76 60 104s56 52.167 94 72.5s75.833 36.166 113.5 47.499s81.167 20.166 130.5 26.499s93.833 10.5 133.5 12.5s84.167 3 133.5 3c46 0 87.667 -0.833008 125 -2.5s81 -5.66699 131 -12s94.167 -15 132.5 -26
s77.5 -26.667 117.5 -47s73 -44.333 99 -72s47.333 -62.5 64 -104.5s25 -89 25 -141v-856c0 -52.667 -7.83301 -100 -23.5 -142s-35.834 -77 -60.501 -105s-56.334 -52.167 -95.001 -72.5s-76.667 -36.166 -114 -47.499s-81.333 -20.166 -132 -26.499
s-95.5 -10.5 -134.5 -12.5s-83.833 -3 -134.5 -3z" />
    <glyph glyph-name="obreve" unicode="&#x14f;" horiz-adv-x="1465" 
d="M741 1429c-74.667 0 -139.502 7.83301 -194.502 23.5s-99.5 36.834 -133.5 63.501s-61.167 61 -81.5 103s-34.166 85.833 -41.499 131.5s-11 98.834 -11 159.501h297c0 -32 1.33301 -56.833 4 -74.5s9.16699 -35.5 19.5 -53.5s27 -30.833 50 -38.5s53.5 -11.5 91.5 -11.5
s68.5 3.83301 91.5 11.5s39.667 20.5 50 38.5s16.833 35.833 19.5 53.5s4 42.5 4 74.5h297c0 -60.667 -3.66699 -113.834 -11 -159.501s-21.166 -89.5 -41.499 -131.5s-47.5 -76.333 -81.5 -103s-78.5 -47.834 -133.5 -63.501s-119.833 -23.5 -194.5 -23.5zM657.998 233h166
v872h-166v-872zM744.998 -27c-41.333 0 -76.9971 0.336914 -106.997 1.00391s-64.5 2.5 -103.5 5.5s-72.833 7 -101.5 12s-59.5 12.167 -92.5 21.5s-61.167 20.5 -84.5 33.5s-46.166 29 -68.499 48s-40.5 40.667 -54.5 65s-25.167 52.833 -33.5 85.5s-12.5 68.667 -12.5 108
v600c0 42 5.16699 80.5 15.5 115.5s25.666 64.833 45.999 89.5s43 46.5 68 65.5s54.833 34.5 89.5 46.5s68.167 22 100.5 30s69.666 13.833 111.999 17.5s80.166 6.16699 113.499 7.5s71.333 2 114 2c52 0 97.833 -0.833008 137.5 -2.5s83.167 -5.5 130.5 -11.5
s88.166 -14.333 122.499 -25s68.666 -25.334 102.999 -44.001s62.333 -41 84 -67s39.167 -58 52.5 -96s20 -81 20 -129v-600c0 -59.333 -8.33301 -111.333 -25 -156s-42.667 -80.334 -78 -107.001s-70.666 -48.334 -105.999 -65.001s-81.833 -28.334 -139.5 -35.001
s-106.5 -11 -146.5 -13s-92 -3 -156 -3z" />
    <glyph glyph-name="Ohungarumlaut" unicode="&#x150;" horiz-adv-x="1542" 
d="M1078 1842l125 115.502l139.5 129c33 30.333 70.333 62.666 112 97c41.667 34.333 74.167 58.166 97.5 71.499c42.667 24.667 84.334 37 125.001 37c50 0 91.5 -17.5 124.5 -52.5s49.5 -76.833 49.5 -125.5c0 -34.667 -9.66699 -68 -29 -100s-48.333 -59.333 -87 -82
c-24 -14 -61.333 -30 -112 -48s-98.834 -33.833 -144.501 -47.5l-178.5 -51.5c-73.333 -20.667 -127 -36.334 -161 -47.001c-9.33301 -3.33301 -20 -5 -32 -5c-18 0 -33 4.66699 -45 14s-18 21 -18 35c0 20 11.333 40 34 60zM387 1842l125 115.502l139.5 129
c33 30.333 70.333 62.666 112 97c41.667 34.333 74.167 58.166 97.5 71.499c42.667 24.667 84.334 37 125.001 37c50 0 91.5 -17.5 124.5 -52.5s49.5 -76.833 49.5 -125.5c0 -34.667 -9.66699 -68 -29 -100s-48.333 -59.333 -87 -82c-24 -14 -61.333 -30 -112 -48
s-98.834 -33.833 -144.501 -47.5l-178.5 -51.5c-73.333 -20.667 -127 -36.334 -161 -47.001c-9.33301 -3.33301 -20 -5 -32 -5c-18 0 -33 4.66699 -45 14s-18 21 -18 35c0 20 11.333 40 34 60zM694 235.004h173v1127h-173v-1127zM777 -38.9961
c-53.333 0 -99.9971 0.835938 -139.997 2.50293s-85.167 5.66699 -135.5 12s-93.833 15.166 -130.5 26.499s-73.667 27.166 -111 47.499s-67.833 44.5 -91.5 72.5s-42.834 63.167 -57.501 105.5s-22 89.833 -22 142.5v856c0 51.333 7.66699 97.666 23 138.999
s35.333 76 60 104s56 52.167 94 72.5s75.833 36.166 113.5 47.499s81.167 20.166 130.5 26.499s93.833 10.5 133.5 12.5s84.167 3 133.5 3c46 0 87.667 -0.833008 125 -2.5s81 -5.66699 131 -12s94.167 -15 132.5 -26s77.5 -26.667 117.5 -47s73 -44.333 99 -72
s47.333 -62.5 64 -104.5s25 -89 25 -141v-856c0 -52.667 -7.83301 -100 -23.5 -142s-35.834 -77 -60.501 -105s-56.334 -52.167 -95.001 -72.5s-76.667 -36.166 -114 -47.499s-81.333 -20.166 -132 -26.499s-95.5 -10.5 -134.5 -12.5s-83.833 -3 -134.5 -3z" />
    <glyph glyph-name="ohungarumlaut" unicode="&#x151;" horiz-adv-x="1465" 
d="M1046 1538l125 115.503l139.5 129c33 30.333 70.333 62.666 112 96.999s74.167 58.166 97.5 71.499c42.667 24.667 84.334 37 125.001 37c50 0 91.5 -17.5 124.5 -52.5s49.5 -76.833 49.5 -125.5c0 -34.667 -9.66699 -68 -29 -100s-48.333 -59.333 -87 -82
c-24 -14 -61.333 -30 -112 -48s-98.834 -33.833 -144.501 -47.5l-178.5 -51.5c-73.333 -20.667 -127 -36.334 -161 -47.001c-9.33301 -3.33301 -20 -5 -32 -5c-18 0 -33 4.66699 -45 14s-18 21 -18 35c0 20 11.333 40 34 60zM355 1538l125 115.503l139.5 129
c33 30.333 70.333 62.666 112 96.999s74.167 58.166 97.5 71.499c42.667 24.667 84.334 37 125.001 37c50 0 91.5 -17.5 124.5 -52.5s49.5 -76.833 49.5 -125.5c0 -34.667 -9.66699 -68 -29 -100s-48.333 -59.333 -87 -82c-24 -14 -61.333 -30 -112 -48
s-98.834 -33.833 -144.501 -47.5l-178.5 -51.5c-73.333 -20.667 -127 -36.334 -161 -47.001c-9.33301 -3.33301 -20 -5 -32 -5c-18 0 -33 4.66699 -45 14s-18 21 -18 35c0 20 11.333 40 34 60zM658 233.006h166v872h-166v-872zM745 -26.9941
c-41.333 0 -76.9971 0.336914 -106.997 1.00391s-64.5 2.5 -103.5 5.5s-72.833 7 -101.5 12s-59.5 12.167 -92.5 21.5s-61.167 20.5 -84.5 33.5s-46.166 29 -68.499 48s-40.5 40.667 -54.5 65s-25.167 52.833 -33.5 85.5s-12.5 68.667 -12.5 108v600
c0 42 5.16699 80.5 15.5 115.5s25.666 64.833 45.999 89.5s43 46.5 68 65.5s54.833 34.5 89.5 46.5s68.167 22 100.5 30s69.666 13.833 111.999 17.5s80.166 6.16699 113.499 7.5s71.333 2 114 2c52 0 97.833 -0.833008 137.5 -2.5s83.167 -5.5 130.5 -11.5
s88.166 -14.333 122.499 -25s68.666 -25.334 102.999 -44.001s62.333 -41 84 -67s39.167 -58 52.5 -96s20 -81 20 -129v-600c0 -59.333 -8.33301 -111.333 -25 -156s-42.667 -80.334 -78 -107.001s-70.666 -48.334 -105.999 -65.001s-81.833 -28.334 -139.5 -35.001
s-106.5 -11 -146.5 -13s-92 -3 -156 -3z" />
    <glyph glyph-name="OE" unicode="&#x152;" horiz-adv-x="1832" 
d="M722 0v-1c-194 0 -341.667 20.333 -443 61c-55.333 22 -98.833 50.833 -130.5 86.5s-49.5 82.5 -53.5 140.5c-2 28.667 -3 56.667 -3 84v856c0 85.333 14.667 151.333 44 198s77 83 143 109c103.333 40.667 251 61 443 61h1046v-241h-344v-393h320v-250h-320v-467h344
v-244h-1046zM678 232h114v1131h-114v-1131z" />
    <glyph glyph-name="oe" unicode="&#x153;" horiz-adv-x="2136" 
d="M1075 96l-0.996094 -2.00098c-56.667 -82.667 -177.667 -124 -363 -124c-192 0 -339.333 22.333 -442 67c-114.667 50.667 -175 132.334 -181 245.001c-2 30 -3 58.333 -3 85v563c0 90.667 14.167 161.167 42.5 211.5s75.166 90.5 140.499 120.5
c101.333 45.333 248.666 68 441.999 68c112 0 202 -15 270 -45c48 -22 79.333 -46.667 94 -74c51.333 79.333 175.666 119 372.999 119c192.667 0 339.667 -22.667 441 -68c114 -50.667 173.667 -132.667 179 -246c1.33301 -40 2 -68.333 2 -85l-4 -311h-714v-371h151v305
h567v-186c0 -90 -13.833 -160.167 -41.5 -210.5s-73.834 -89.833 -138.501 -118.5c-102 -44.667 -249 -67 -441 -67c-124 0 -218 14.667 -282 44c-46 21.333 -76.333 48 -91 80zM649.004 247.999h150v803h-150v-803zM1350 824.999h151v226h-151v-226z" />
    <glyph glyph-name="Racute" unicode="&#x154;" horiz-adv-x="1553" 
d="M426 1842l125 115.502l139.5 129c33 30.333 70.333 62.666 112 97c41.667 34.333 74.167 58.166 97.5 71.499c42.667 24.667 84.334 37 125.001 37c50 0 91.5 -17.5 124.5 -52.5s49.5 -76.833 49.5 -125.5c0 -34.667 -9.66699 -68 -29 -100s-48.333 -59.333 -87 -82
c-24 -14 -61.333 -30 -112 -48s-98.834 -33.833 -144.501 -47.5l-178.5 -51.5c-73.333 -20.667 -127 -36.334 -161 -47.001c-9.33301 -3.33301 -20 -5 -32 -5c-18 0 -33 4.66699 -45 14s-18 21 -18 35c0 20 11.333 40 34 60zM1243 805.002l-132 -13v-39l132 -15
c76 -8.66699 135.667 -39.5 179 -92.5s65 -122.5 65 -208.5v-437h-606v649h-173v-649h-604v1595h913c75.333 0 139.833 -6.5 193.5 -19.5s100.667 -34.833 141 -65.5s70.333 -72.5 90 -125.5s29.5 -117.833 29.5 -194.5c0 -242 -76 -370.333 -228 -385zM708 881.002h173v477
h-173v-477z" />
    <glyph glyph-name="racute" unicode="&#x155;" horiz-adv-x="981" 
d="M159 1538l125 115.503l139.5 129c33 30.333 70.333 62.666 112 96.999s74.167 58.166 97.5 71.499c42.667 24.667 84.334 37 125.001 37c50 0 91.5 -17.5 124.5 -52.5s49.5 -76.833 49.5 -125.5c0 -34.667 -9.66699 -68 -29 -100s-48.333 -59.333 -87 -82
c-24 -14 -61.333 -30 -112 -48s-98.834 -33.833 -144.501 -47.5l-178.5 -51.5c-73.333 -20.667 -127 -36.334 -161 -47.001c-9.33301 -3.33301 -20 -5 -32 -5c-18 0 -33 4.66699 -45 14s-18 21 -18 35c0 20 11.333 40 34 60zM100 0.00292969l1 1300h486l41 -147
c22 52.667 62.667 94.334 122 125.001s128.333 47 207 49v-378l-286 -56v-893h-571z" />
    <glyph glyph-name="Rcommaaccent" unicode="&#x156;" horiz-adv-x="1553" 
d="M539 -295c0 62.667 20.168 111.667 60.501 147s88.166 53 143.499 53c68.667 0 120.834 -22.667 156.501 -68s53.5 -102.666 53.5 -171.999c0 -46.667 -7.83301 -93.5 -23.5 -140.5s-37.834 -90.167 -66.501 -129.5s-65.5 -71.333 -110.5 -96s-93.833 -37 -146.5 -37
c-14.667 0 -29.334 1 -44.001 3v109c42 0.666992 77.833 11.834 107.5 33.501s45.834 51.167 48.501 88.5c-50 5.33301 -92.333 26.166 -127 62.499s-52 85.166 -52 146.499zM1243 805l-132 -13v-39l132 -15c76 -8.66699 135.667 -39.5 179 -92.5s65 -122.5 65 -208.5v-437
h-606v649h-173v-649h-604v1595h913c75.333 0 139.833 -6.5 193.5 -19.5s100.667 -34.833 141 -65.5s70.333 -72.5 90 -125.5s29.5 -117.833 29.5 -194.5c0 -242 -76 -370.333 -228 -385zM708.001 881h173v477h-173v-477z" />
    <glyph glyph-name="rcommaaccent" unicode="&#x157;" horiz-adv-x="981" 
d="M199 -295c0 62.667 20.168 111.667 60.501 147s88.166 53 143.499 53c68.667 0 120.834 -22.667 156.501 -68s53.5 -102.666 53.5 -171.999c0 -46.667 -7.83301 -93.5 -23.5 -140.5s-37.834 -90.167 -66.501 -129.5s-65.5 -71.333 -110.5 -96s-93.833 -37 -146.5 -37
c-14.667 0 -29.334 1 -44.001 3v109c42 0.666992 77.833 11.834 107.5 33.501s45.834 51.167 48.501 88.5c-50 5.33301 -92.333 26.166 -127 62.499s-52 85.166 -52 146.499zM100.001 0l1 1300h486l41 -147c22 52.667 62.667 94.334 122 125.001s128.333 47 207 49v-378
l-286 -56v-893h-571z" />
    <glyph glyph-name="Rcaron" unicode="&#x158;" horiz-adv-x="1553" 
d="M653 1805l-263.001 409.002c-12 18.667 -18 36 -18 52c0 18 6.33301 32.833 19 44.5s28.334 17.5 47.001 17.5s36.667 -6.66699 54 -20l303 -235l303 235c18.667 14.667 37.667 22 57 22c18 0 33 -6 45 -18s18 -27 18 -45c0 -16.667 -6 -34.334 -18 -53.001l-263 -409
c-31.333 -48 -78.333 -72 -141 -72c-28.667 0 -56 6.16699 -82 18.5s-46.333 30.166 -61 53.499zM1243 805.002l-132 -13v-39l132 -15c76 -8.66699 135.667 -39.5 179 -92.5s65 -122.5 65 -208.5v-437h-606v649h-173v-649h-604v1595h913c75.333 0 139.833 -6.5 193.5 -19.5
s100.667 -34.833 141 -65.5s70.333 -72.5 90 -125.5s29.5 -117.833 29.5 -194.5c0 -242 -76 -370.333 -228 -385zM707.999 881.002h173v477h-173v-477z" />
    <glyph glyph-name="rcaron" unicode="&#x159;" horiz-adv-x="981" 
d="M387 1501l-263.001 409.002c-12 18.667 -18 36 -18 52c0 18 6.33301 32.833 19 44.5s28.334 17.5 47.001 17.5s36.667 -6.66699 54 -20l303 -235l303 235c18.667 14.667 37.667 22 57 22c18 0 33 -6 45 -18s18 -27 18 -45c0 -16.667 -6 -34.334 -18 -53.001l-263 -409
c-31.333 -48 -78.333 -72 -141 -72c-28.667 0 -56 6.16699 -82 18.5s-46.333 30.166 -61 53.499zM99.999 0.00195312l1 1300h486l41 -147c22 52.667 62.667 94.334 122 125.001s128.333 47 207 49v-378l-286 -56v-893h-571z" />
    <glyph glyph-name="Sacute" unicode="&#x15a;" horiz-adv-x="1469" 
d="M377 1842l125 115.502l139.5 129c33 30.333 70.333 62.666 112 97c41.667 34.333 74.167 58.166 97.5 71.499c42.667 24.667 84.334 37 125.001 37c50 0 91.5 -17.5 124.5 -52.5s49.5 -76.833 49.5 -125.5c0 -34.667 -9.66699 -68 -29 -100s-48.333 -59.333 -87 -82
c-24 -14 -61.333 -30 -112 -48s-98.834 -33.833 -144.501 -47.5l-178.5 -51.5c-73.333 -20.667 -127 -36.334 -161 -47.001c-9.33301 -3.33301 -20 -5 -32 -5c-18 0 -33 4.66699 -45 14s-18 21 -18 35c0 20 11.333 40 34 60zM644 1125l3.00098 -1.99707
c0 -4 0.833008 -8 2.5 -12s4.33398 -7.5 8.00098 -10.5s7.33398 -5.66699 11.001 -8s8.66699 -4.66602 15 -6.99902s11.666 -4.16602 15.999 -5.49902s10.333 -2.83301 18 -4.5s13.5 -2.83398 17.5 -3.50098l18 -3c8 -1.33301 13.333 -2.33301 16 -3
c150 -26.667 257.667 -51.334 323 -74.001c147.333 -50.667 245 -130.667 293 -240c26.667 -59.333 40 -129.333 40 -210c0 -115.333 -12.5 -210.333 -37.5 -285s-66 -134 -123 -178s-126.333 -74.667 -208 -92s-184.834 -26 -309.501 -26c-45.333 0 -86 0.833008 -122 2.5
s-77.167 5.5 -123.5 11.5s-87.166 14.333 -122.499 25s-71.5 25.667 -108.5 45s-68 42.166 -93 68.499s-46.5 59.166 -64.5 98.499s-29.333 83.666 -34 132.999c-4 45.333 -6 93 -6 143h573v-253h173v250c0 12.667 -3.33301 23.834 -10 33.501
s-17.334 18.334 -32.001 26.001s-26.334 13.167 -35.001 16.5s-22.334 8 -41.001 14c-22 7.33301 -50.667 16.166 -86 26.499l-89.5 26.5c-24.333 7.33301 -53 16.666 -86 27.999s-61.167 22.166 -84.5 32.499s-48.833 23.333 -76.5 39s-51 32 -70 49s-38.167 37 -57.5 60
s-34.666 47.667 -45.999 74s-20.5 56.5 -27.5 90.5s-10.5 70.667 -10.5 110c0 61.333 5.66699 116.833 17 166.5s27 92.5 47 128.5s45.5 67.333 76.5 94s64 48.334 99 65.001s75.333 30 121 40s91.334 16.833 137.001 20.5s96.5 5.5 152.5 5.5
c59.333 0 111.666 -1.5 156.999 -4.5s90.833 -8.5 136.5 -16.5s85 -19 118 -33s64.333 -32.333 94 -55s53.5 -49.667 71.5 -81s32.333 -68.833 43 -112.5s16 -93.167 16 -148.5h-536v178h-173v-233z" />
    <glyph glyph-name="sacute" unicode="&#x15b;" horiz-adv-x="1434" 
d="M355 1538l125 115.503l139.5 129c33 30.333 70.333 62.666 112 96.999s74.167 58.166 97.5 71.499c42.667 24.667 84.334 37 125.001 37c50 0 91.5 -17.5 124.5 -52.5s49.5 -76.833 49.5 -125.5c0 -34.667 -9.66699 -68 -29 -100s-48.333 -59.333 -87 -82
c-24 -14 -61.333 -30 -112 -48s-98.834 -33.833 -144.501 -47.5l-178.5 -51.5c-73.333 -20.667 -127 -36.334 -161 -47.001c-9.33301 -3.33301 -20 -5 -32 -5c-18 0 -33 4.66699 -45 14s-18 21 -18 35c0 20 11.333 40 34 60zM807 446.003l0.996094 0.00390625
c-5.33301 6 -20 10.667 -44 14c-12.667 2 -34.834 5 -66.501 9l-74 9.5c-17.667 2.33301 -39.667 5.66602 -66 9.99902s-50.5 8.83301 -72.5 13.5s-43 9.66699 -63 15c-49.333 13.333 -94.166 30.666 -134.499 51.999s-77.333 47.333 -111 78s-59.834 67.5 -78.501 110.5
s-28 90.5 -28 142.5c0 51.333 6 97.666 18 138.999s28.333 76.666 49 105.999s47.167 54.833 79.5 76.5s66.5 39.167 102.5 52.5s77.667 24 125 32s94 13.5 140 16.5s97.667 4.5 155 4.5c46.667 0 86.834 -0.666992 120.501 -2s73.167 -4.66602 118.5 -9.99902
s84 -12.833 116 -22.5s65 -23.834 99 -42.501s61.333 -40.667 82 -66s37.834 -57.5 51.501 -96.5s20.5 -82.833 20.5 -131.5c0 -46 -0.333008 -74 -1 -84l-539 30v161h-167v-202c6 -6 21 -11 45 -15l106 -15.5c52.667 -7.66699 97.334 -14.834 134.001 -21.501
s70.667 -14.334 102 -23.001c48 -13.333 91.833 -29.833 131.5 -49.5s76.5 -44 110.5 -73s60.667 -64.333 80 -106s29 -87.5 29 -137.5c0 -58 -6.66699 -109.667 -20 -155s-30.833 -83.5 -52.5 -114.5s-50 -57.667 -85 -80s-70 -39.666 -105 -51.999s-77.167 -22 -126.5 -29
s-94.333 -11.5 -135 -13.5s-88.667 -3 -144 -3c-43.333 0 -81.333 0.5 -114 1.5s-67.5 3.33301 -104.5 7s-69.167 8.66699 -96.5 15s-55.333 14.833 -84 25.5s-53 23.334 -73 38.001s-39.167 32.667 -57.5 54s-33.166 45.5 -44.499 72.5s-20.166 58.167 -26.499 93.5
s-9.5 74.333 -9.5 117c0 15.333 0.333008 27 1 35l539 -32v-167h167v213z" />
    <glyph glyph-name="Scedilla" unicode="&#x15e;" horiz-adv-x="1469" 
d="M658 -23l177 0.00195312v-70c76 0 133.333 -11.333 172 -34s58 -64 58 -124v-95c0 -33.333 -6.33301 -60.833 -19 -82.5s-31.334 -37.834 -56.001 -48.501s-50.667 -17.834 -78 -21.501s-60.666 -5.5 -99.999 -5.5c-84 0 -147.333 10.833 -190 32.5s-64 63.5 -64 125.5
v56l227 28v-132h63v191h-190v180zM644 1125l3.00098 -1.99707c0 -4 0.833008 -8 2.5 -12s4.33398 -7.5 8.00098 -10.5s7.33398 -5.66699 11.001 -8s8.66699 -4.66602 15 -6.99902s11.666 -4.16602 15.999 -5.49902s10.333 -2.83301 18 -4.5s13.5 -2.83398 17.5 -3.50098
l18 -3c8 -1.33301 13.333 -2.33301 16 -3c150 -26.667 257.667 -51.334 323 -74.001c147.333 -50.667 245 -130.667 293 -240c26.667 -59.333 40 -129.333 40 -210c0 -115.333 -12.5 -210.333 -37.5 -285s-66 -134 -123 -178s-126.333 -74.667 -208 -92
s-184.834 -26 -309.501 -26c-45.333 0 -86 0.833008 -122 2.5s-77.167 5.5 -123.5 11.5s-87.166 14.333 -122.499 25s-71.5 25.667 -108.5 45s-68 42.166 -93 68.499s-46.5 59.166 -64.5 98.499s-29.333 83.666 -34 132.999c-4 45.333 -6 93 -6 143h573v-253h173v250
c0 12.667 -3.33301 23.834 -10 33.501s-17.334 18.334 -32.001 26.001s-26.334 13.167 -35.001 16.5s-22.334 8 -41.001 14c-22 7.33301 -50.667 16.166 -86 26.499l-89.5 26.5c-24.333 7.33301 -53 16.666 -86 27.999s-61.167 22.166 -84.5 32.499s-48.833 23.333 -76.5 39
s-51 32 -70 49s-38.167 37 -57.5 60s-34.666 47.667 -45.999 74s-20.5 56.5 -27.5 90.5s-10.5 70.667 -10.5 110c0 61.333 5.66699 116.833 17 166.5s27 92.5 47 128.5s45.5 67.333 76.5 94s64 48.334 99 65.001s75.333 30 121 40s91.334 16.833 137.001 20.5
s96.5 5.5 152.5 5.5c59.333 0 111.666 -1.5 156.999 -4.5s90.833 -8.5 136.5 -16.5s85 -19 118 -33s64.333 -32.333 94 -55s53.5 -49.667 71.5 -81s32.333 -68.833 43 -112.5s16 -93.167 16 -148.5h-536v178h-173v-233z" />
    <glyph glyph-name="scedilla" unicode="&#x15f;" horiz-adv-x="1434" 
d="M636 -11l177 0.00195312v-70c76 0 133.333 -11.333 172 -34s58 -64 58 -124v-95c0 -33.333 -6.33301 -60.833 -19 -82.5s-31.334 -37.834 -56.001 -48.501s-50.667 -17.834 -78 -21.501s-60.666 -5.5 -99.999 -5.5c-84 0 -147.333 10.833 -190 32.5s-64 63.5 -64 125.5
v56l227 28v-132h63v191h-190v180zM807 446.002l0.996094 0.00390625c-5.33301 6 -20 10.667 -44 14c-12.667 2 -34.834 5 -66.501 9l-74 9.5c-17.667 2.33301 -39.667 5.66602 -66 9.99902s-50.5 8.83301 -72.5 13.5s-43 9.66699 -63 15
c-49.333 13.333 -94.166 30.666 -134.499 51.999s-77.333 47.333 -111 78s-59.834 67.5 -78.501 110.5s-28 90.5 -28 142.5c0 51.333 6 97.666 18 138.999s28.333 76.666 49 105.999s47.167 54.833 79.5 76.5s66.5 39.167 102.5 52.5s77.667 24 125 32s94 13.5 140 16.5
s97.667 4.5 155 4.5c46.667 0 86.834 -0.666992 120.501 -2s73.167 -4.66602 118.5 -9.99902s84 -12.833 116 -22.5s65 -23.834 99 -42.501s61.333 -40.667 82 -66s37.834 -57.5 51.501 -96.5s20.5 -82.833 20.5 -131.5c0 -46 -0.333008 -74 -1 -84l-539 30v161h-167v-202
c6 -6 21 -11 45 -15l106 -15.5c52.667 -7.66699 97.334 -14.834 134.001 -21.501s70.667 -14.334 102 -23.001c48 -13.333 91.833 -29.833 131.5 -49.5s76.5 -44 110.5 -73s60.667 -64.333 80 -106s29 -87.5 29 -137.5c0 -58 -6.66699 -109.667 -20 -155
s-30.833 -83.5 -52.5 -114.5s-50 -57.667 -85 -80s-70 -39.666 -105 -51.999s-77.167 -22 -126.5 -29s-94.333 -11.5 -135 -13.5s-88.667 -3 -144 -3c-43.333 0 -81.333 0.5 -114 1.5s-67.5 3.33301 -104.5 7s-69.167 8.66699 -96.5 15s-55.333 14.833 -84 25.5
s-53 23.334 -73 38.001s-39.167 32.667 -57.5 54s-33.166 45.5 -44.499 72.5s-20.166 58.167 -26.499 93.5s-9.5 74.333 -9.5 117c0 15.333 0.333008 27 1 35l539 -32v-167h167v213z" />
    <glyph glyph-name="Scaron" unicode="&#x160;" horiz-adv-x="1469" 
d="M604 1805l-263.001 409.002c-12 18.667 -18 36 -18 52c0 18 6.33301 32.833 19 44.5s28.334 17.5 47.001 17.5s36.667 -6.66699 54 -20l303 -235l303 235c18.667 14.667 37.667 22 57 22c18 0 33 -6 45 -18s18 -27 18 -45c0 -16.667 -6 -34.334 -18 -53.001l-263 -409
c-31.333 -48 -78.333 -72 -141 -72c-28.667 0 -56 6.16699 -82 18.5s-46.333 30.166 -61 53.499zM643.999 1125l3.00098 -1.99707c0 -4 0.833008 -8 2.5 -12s4.33398 -7.5 8.00098 -10.5s7.33398 -5.66699 11.001 -8s8.66699 -4.66602 15 -6.99902
s11.666 -4.16602 15.999 -5.49902s10.333 -2.83301 18 -4.5s13.5 -2.83398 17.5 -3.50098l18 -3c8 -1.33301 13.333 -2.33301 16 -3c150 -26.667 257.667 -51.334 323 -74.001c147.333 -50.667 245 -130.667 293 -240c26.667 -59.333 40 -129.333 40 -210
c0 -115.333 -12.5 -210.333 -37.5 -285s-66 -134 -123 -178s-126.333 -74.667 -208 -92s-184.834 -26 -309.501 -26c-45.333 0 -86 0.833008 -122 2.5s-77.167 5.5 -123.5 11.5s-87.166 14.333 -122.499 25s-71.5 25.667 -108.5 45s-68 42.166 -93 68.499
s-46.5 59.166 -64.5 98.499s-29.333 83.666 -34 132.999c-4 45.333 -6 93 -6 143h573v-253h173v250c0 12.667 -3.33301 23.834 -10 33.501s-17.334 18.334 -32.001 26.001s-26.334 13.167 -35.001 16.5s-22.334 8 -41.001 14c-22 7.33301 -50.667 16.166 -86 26.499
l-89.5 26.5c-24.333 7.33301 -53 16.666 -86 27.999s-61.167 22.166 -84.5 32.499s-48.833 23.333 -76.5 39s-51 32 -70 49s-38.167 37 -57.5 60s-34.666 47.667 -45.999 74s-20.5 56.5 -27.5 90.5s-10.5 70.667 -10.5 110c0 61.333 5.66699 116.833 17 166.5
s27 92.5 47 128.5s45.5 67.333 76.5 94s64 48.334 99 65.001s75.333 30 121 40s91.334 16.833 137.001 20.5s96.5 5.5 152.5 5.5c59.333 0 111.666 -1.5 156.999 -4.5s90.833 -8.5 136.5 -16.5s85 -19 118 -33s64.333 -32.333 94 -55s53.5 -49.667 71.5 -81
s32.333 -68.833 43 -112.5s16 -93.167 16 -148.5h-536v178h-173v-233z" />
    <glyph glyph-name="scaron" unicode="&#x161;" horiz-adv-x="1434" 
d="M582 1501l-263.001 409.002c-12 18.667 -18 36 -18 52c0 18 6.33301 32.833 19 44.5s28.334 17.5 47.001 17.5s36.667 -6.66699 54 -20l303 -235l303 235c18.667 14.667 37.667 22 57 22c18 0 33 -6 45 -18s18 -27 18 -45c0 -16.667 -6 -34.334 -18 -53.001l-263 -409
c-31.333 -48 -78.333 -72 -141 -72c-28.667 0 -56 6.16699 -82 18.5s-46.333 30.166 -61 53.499zM806.999 446.002l0.996094 0.00390625c-5.33301 6 -20 10.667 -44 14c-12.667 2 -34.834 5 -66.501 9l-74 9.5c-17.667 2.33301 -39.667 5.66602 -66 9.99902
s-50.5 8.83301 -72.5 13.5s-43 9.66699 -63 15c-49.333 13.333 -94.166 30.666 -134.499 51.999s-77.333 47.333 -111 78s-59.834 67.5 -78.501 110.5s-28 90.5 -28 142.5c0 51.333 6 97.666 18 138.999s28.333 76.666 49 105.999s47.167 54.833 79.5 76.5
s66.5 39.167 102.5 52.5s77.667 24 125 32s94 13.5 140 16.5s97.667 4.5 155 4.5c46.667 0 86.834 -0.666992 120.501 -2s73.167 -4.66602 118.5 -9.99902s84 -12.833 116 -22.5s65 -23.834 99 -42.501s61.333 -40.667 82 -66s37.834 -57.5 51.501 -96.5
s20.5 -82.833 20.5 -131.5c0 -46 -0.333008 -74 -1 -84l-539 30v161h-167v-202c6 -6 21 -11 45 -15l106 -15.5c52.667 -7.66699 97.334 -14.834 134.001 -21.501s70.667 -14.334 102 -23.001c48 -13.333 91.833 -29.833 131.5 -49.5s76.5 -44 110.5 -73
s60.667 -64.333 80 -106s29 -87.5 29 -137.5c0 -58 -6.66699 -109.667 -20 -155s-30.833 -83.5 -52.5 -114.5s-50 -57.667 -85 -80s-70 -39.666 -105 -51.999s-77.167 -22 -126.5 -29s-94.333 -11.5 -135 -13.5s-88.667 -3 -144 -3c-43.333 0 -81.333 0.5 -114 1.5
s-67.5 3.33301 -104.5 7s-69.167 8.66699 -96.5 15s-55.333 14.833 -84 25.5s-53 23.334 -73 38.001s-39.167 32.667 -57.5 54s-33.166 45.5 -44.499 72.5s-20.166 58.167 -26.499 93.5s-9.5 74.333 -9.5 117c0 15.333 0.333008 27 1 35l539 -32v-167h167v213z" />
    <glyph glyph-name="Tcommaaccent" unicode="&#x162;" horiz-adv-x="1324" 
d="M576 16l177 0.00195312v-70c76 0 133.333 -11.333 172 -34s58 -64 58 -124v-95c0 -33.333 -6.33301 -60.833 -19 -82.5s-31.334 -37.834 -56.001 -48.501s-50.667 -17.834 -78 -21.501s-60.666 -5.5 -99.999 -5.5c-84 0 -147.333 10.833 -190 32.5s-64 63.5 -64 125.5v56
l227 28v-132h63v191h-190v180zM1321 1595v-269h-356v-1326h-604v1326h-353v269h1313z" />
    <glyph glyph-name="tcommaaccent" unicode="&#x163;" horiz-adv-x="968" 
d="M401 16l177 0.00195312v-70c76 0 133.333 -11.333 172 -34s58 -64 58 -124v-95c0 -33.333 -6.33301 -60.833 -19 -82.5s-31.334 -37.834 -56.001 -48.501s-50.667 -17.834 -78 -21.501s-60.666 -5.5 -99.999 -5.5c-84 0 -147.333 10.833 -190 32.5s-64 63.5 -64 125.5v56
l227 28v-132h63v191h-190v180zM764 0.00195312h-571v1100h-137v200h137v295h571v-295h159v-200h-159v-1100z" />
    <glyph glyph-name="Tcaron" unicode="&#x164;" horiz-adv-x="1324" 
d="M523 1805l-263.001 409.002c-12 18.667 -18 36 -18 52c0 18 6.33301 32.833 19 44.5s28.334 17.5 47.001 17.5s36.667 -6.66699 54 -20l303 -235l303 235c18.667 14.667 37.667 22 57 22c18 0 33 -6 45 -18s18 -27 18 -45c0 -16.667 -6 -34.334 -18 -53.001l-263 -409
c-31.333 -48 -78.333 -72 -141 -72c-28.667 0 -56 6.16699 -82 18.5s-46.333 30.166 -61 53.499zM1321 1595v-269h-356v-1326h-604v1326h-353v269h1313z" />
    <glyph glyph-name="tcaron" unicode="&#x165;" horiz-adv-x="968" 
d="M1076 1395c0 62.667 20.168 111.667 60.501 147s88.166 53 143.499 53c68.667 0 120.834 -22.667 156.501 -68s53.5 -102.666 53.5 -171.999c0 -46.667 -7.83301 -93.5 -23.5 -140.5s-37.834 -90.167 -66.501 -129.5s-65.5 -71.333 -110.5 -96s-93.833 -37 -146.5 -37
c-14.667 0 -29.334 1 -44.001 3v109c42 0.666992 77.833 11.834 107.5 33.501s45.834 51.167 48.501 88.5c-50 5.33301 -92.333 26.166 -127 62.499s-52 85.166 -52 146.499zM764.001 0h-571v1100h-137v200h137v295h571v-295h159v-200h-159v-1100z" />
    <glyph glyph-name="Umacron" unicode="&#x16a;" horiz-adv-x="1556" 
d="M1204 1964v-231h-833v231h833zM701 234l173 -0.000976562v1360h605v-1224c0 -52 -7.83301 -98.833 -23.5 -140.5s-35.834 -76.5 -60.501 -104.5s-56.167 -52.333 -94.5 -73s-76.5 -36.667 -114.5 -48s-81.833 -20.333 -131.5 -27s-94.5 -11 -134.5 -13
s-84.667 -3 -134 -3c-46 0 -88 0.833008 -126 2.5s-81.667 5.83398 -131 12.501s-93.166 15.667 -131.499 27s-77 27.333 -116 48s-71.333 45 -97 73s-46.667 63.167 -63 105.5s-24.5 89.5 -24.5 141.5v1224h604v-1361z" />
    <glyph glyph-name="umacron" unicode="&#x16b;" 
d="M1162 1660v-231h-833v231h833zM515 -27c-137.333 0 -242.333 32 -315 96s-109 161 -109 291v940h572v-1067h166v1067h572v-1300h-517l-37 112c-26 -42.667 -70 -76.5 -132 -101.5s-128.667 -37.5 -200 -37.5z" />
    <glyph glyph-name="Ubreve" unicode="&#x16c;" horiz-adv-x="1556" 
d="M788 1733c-74.667 0 -139.502 7.83398 -194.502 23.501s-99.5 36.834 -133.5 63.501s-61.167 61 -81.5 103s-34.166 85.833 -41.499 131.5s-11 98.834 -11 159.5h297c0 -32 1.33301 -56.833 4 -74.5s9.16699 -35.5 19.5 -53.5s27 -30.833 50 -38.5s53.5 -11.5 91.5 -11.5
s68.5 3.83301 91.5 11.5s39.667 20.5 50 38.5s16.833 35.833 19.5 53.5s4 42.5 4 74.5h297c0 -60.667 -3.66699 -113.834 -11 -159.501s-21.166 -89.5 -41.499 -131.5s-47.5 -76.333 -81.5 -103s-78.5 -47.834 -133.5 -63.501s-119.833 -23.5 -194.5 -23.5zM700.998 234.001
l173 -0.000976562v1360h605v-1224c0 -52 -7.83301 -98.833 -23.5 -140.5s-35.834 -76.5 -60.501 -104.5s-56.167 -52.333 -94.5 -73s-76.5 -36.667 -114.5 -48s-81.833 -20.333 -131.5 -27s-94.5 -11 -134.5 -13s-84.667 -3 -134 -3c-46 0 -88 0.833008 -126 2.5
s-81.667 5.83398 -131 12.501s-93.166 15.667 -131.499 27s-77 27.333 -116 48s-71.333 45 -97 73s-46.667 63.167 -63 105.5s-24.5 89.5 -24.5 141.5v1224h604v-1361z" />
    <glyph glyph-name="ubreve" unicode="&#x16d;" 
d="M746 1429c-74.667 0 -139.502 7.83301 -194.502 23.5s-99.5 36.834 -133.5 63.501s-61.167 61 -81.5 103s-34.166 85.833 -41.499 131.5s-11 98.834 -11 159.501h297c0 -32 1.33301 -56.833 4 -74.5s9.16699 -35.5 19.5 -53.5s27 -30.833 50 -38.5s53.5 -11.5 91.5 -11.5
s68.5 3.83301 91.5 11.5s39.667 20.5 50 38.5s16.833 35.833 19.5 53.5s4 42.5 4 74.5h297c0 -60.667 -3.66699 -113.834 -11 -159.501s-21.166 -89.5 -41.499 -131.5s-47.5 -76.333 -81.5 -103s-78.5 -47.834 -133.5 -63.501s-119.833 -23.5 -194.5 -23.5zM514.998 -27
c-137.333 0 -242.333 32 -315 96s-109 161 -109 291v940h572v-1067h166v1067h572v-1300h-517l-37 112c-26 -42.667 -70 -76.5 -132 -101.5s-128.667 -37.5 -200 -37.5z" />
    <glyph glyph-name="Uring" unicode="&#x16e;" horiz-adv-x="1556" 
d="M455 2053c0 71.333 18.999 132.67 56.999 184.003s86.667 89 146 113c40 16.667 83.333 25 130 25c72.667 0 135.667 -18.333 189 -55s92.666 -83.667 117.999 -141c17.333 -40 26 -82 26 -126c0 -70.667 -19.167 -131.334 -57.5 -182.001
s-87.166 -88.334 -146.499 -113.001c-39.333 -16.667 -82.333 -25 -129 -25c-72.667 0 -135.667 18.167 -189 54.5s-92.666 83.166 -117.999 140.499c-17.333 40 -26 81.667 -26 125zM785.999 2175c-34.667 0 -63.5 -11.5 -86.5 -34.5s-34.5 -52.167 -34.5 -87.5
c0 -34 11.667 -62.667 35 -86s52 -35 86 -35c33.333 0 61.833 11.833 85.5 35.5s35.5 52.167 35.5 85.5c0 34.667 -11.667 63.667 -35 87s-52 35 -86 35zM700.999 234.004l173 -0.000976562v1360h605v-1224c0 -52 -7.83301 -98.833 -23.5 -140.5
s-35.834 -76.5 -60.501 -104.5s-56.167 -52.333 -94.5 -73s-76.5 -36.667 -114.5 -48s-81.833 -20.333 -131.5 -27s-94.5 -11 -134.5 -13s-84.667 -3 -134 -3c-46 0 -88 0.833008 -126 2.5s-81.667 5.83398 -131 12.501s-93.166 15.667 -131.499 27s-77 27.333 -116 48
s-71.333 45 -97 73s-46.667 63.167 -63 105.5s-24.5 89.5 -24.5 141.5v1224h604v-1361z" />
    <glyph glyph-name="uring" unicode="&#x16f;" 
d="M413 1749c0 71.333 18.999 132.67 56.999 184.003s86.667 89 146 113c40 16.667 83.333 25 130 25c72.667 0 135.667 -18.333 189 -55s92.666 -83.667 117.999 -141c17.333 -40 26 -82 26 -126c0 -70.667 -19.167 -131.334 -57.5 -182.001
s-87.166 -88.334 -146.499 -113.001c-39.333 -16.667 -82.333 -25 -129 -25c-72.667 0 -135.667 18.167 -189 54.5s-92.666 83.166 -117.999 140.499c-17.333 40 -26 81.667 -26 125zM743.999 1871c-34.667 0 -63.5 -11.5 -86.5 -34.5s-34.5 -52.167 -34.5 -87.5
c0 -34 11.667 -62.667 35 -86s52 -35 86 -35c33.333 0 61.833 11.833 85.5 35.5s35.5 52.167 35.5 85.5c0 34.667 -11.667 63.667 -35 87s-52 35 -86 35zM514.999 -26.9961c-137.333 0 -242.333 32 -315 96s-109 161 -109 291v940h572v-1067h166v1067h572v-1300h-517
l-37 112c-26 -42.667 -70 -76.5 -132 -101.5s-128.667 -37.5 -200 -37.5z" />
    <glyph glyph-name="Uhungarumlaut" unicode="&#x170;" horiz-adv-x="1556" 
d="M900 1842l125 115.502l139.5 129c33 30.333 70.333 62.666 112 97c41.667 34.333 74.167 58.166 97.5 71.499c42.667 24.667 84.334 37 125.001 37c50 0 91.5 -17.5 124.5 -52.5s49.5 -76.833 49.5 -125.5c0 -34.667 -9.66699 -68 -29 -100s-48.333 -59.333 -87 -82
c-24 -14 -61.333 -30 -112 -48s-98.834 -33.833 -144.501 -47.5l-178.5 -51.5c-73.333 -20.667 -127 -36.334 -161 -47.001c-9.33301 -3.33301 -20 -5 -32 -5c-18 0 -33 4.66699 -45 14s-18 21 -18 35c0 20 11.333 40 34 60zM209 1842l125 115.502l139.5 129
c33 30.333 70.333 62.666 112 97c41.667 34.333 74.167 58.166 97.5 71.499c42.667 24.667 84.334 37 125.001 37c50 0 91.5 -17.5 124.5 -52.5s49.5 -76.833 49.5 -125.5c0 -34.667 -9.66699 -68 -29 -100s-48.333 -59.333 -87 -82c-24 -14 -61.333 -30 -112 -48
s-98.834 -33.833 -144.501 -47.5l-178.5 -51.5c-73.333 -20.667 -127 -36.334 -161 -47.001c-9.33301 -3.33301 -20 -5 -32 -5c-18 0 -33 4.66699 -45 14s-18 21 -18 35c0 20 11.333 40 34 60zM701 234.004l173 -0.000976562v1360h605v-1224
c0 -52 -7.83301 -98.833 -23.5 -140.5s-35.834 -76.5 -60.501 -104.5s-56.167 -52.333 -94.5 -73s-76.5 -36.667 -114.5 -48s-81.833 -20.333 -131.5 -27s-94.5 -11 -134.5 -13s-84.667 -3 -134 -3c-46 0 -88 0.833008 -126 2.5s-81.667 5.83398 -131 12.501
s-93.166 15.667 -131.499 27s-77 27.333 -116 48s-71.333 45 -97 73s-46.667 63.167 -63 105.5s-24.5 89.5 -24.5 141.5v1224h604v-1361z" />
    <glyph glyph-name="uhungarumlaut" unicode="&#x171;" 
d="M890 1538l125 115.503l139.5 129c33 30.333 70.333 62.666 112 96.999s74.167 58.166 97.5 71.499c42.667 24.667 84.334 37 125.001 37c50 0 91.5 -17.5 124.5 -52.5s49.5 -76.833 49.5 -125.5c0 -34.667 -9.66699 -68 -29 -100s-48.333 -59.333 -87 -82
c-24 -14 -61.333 -30 -112 -48s-98.834 -33.833 -144.501 -47.5l-178.5 -51.5c-73.333 -20.667 -127 -36.334 -161 -47.001c-9.33301 -3.33301 -20 -5 -32 -5c-18 0 -33 4.66699 -45 14s-18 21 -18 35c0 20 11.333 40 34 60zM199 1538l125 115.503l139.5 129
c33 30.333 70.333 62.666 112 96.999s74.167 58.166 97.5 71.499c42.667 24.667 84.334 37 125.001 37c50 0 91.5 -17.5 124.5 -52.5s49.5 -76.833 49.5 -125.5c0 -34.667 -9.66699 -68 -29 -100s-48.333 -59.333 -87 -82c-24 -14 -61.333 -30 -112 -48
s-98.834 -33.833 -144.501 -47.5l-178.5 -51.5c-73.333 -20.667 -127 -36.334 -161 -47.001c-9.33301 -3.33301 -20 -5 -32 -5c-18 0 -33 4.66699 -45 14s-18 21 -18 35c0 20 11.333 40 34 60zM515 -26.9941c-137.333 0 -242.333 32 -315 96s-109 161 -109 291v940h572
v-1067h166v1067h572v-1300h-517l-37 112c-26 -42.667 -70 -76.5 -132 -101.5s-128.667 -37.5 -200 -37.5z" />
    <glyph glyph-name="Uogonek" unicode="&#x172;" horiz-adv-x="1556" 
d="M1079 68l71 -72.001c-34 -22.667 -60.833 -51.5 -80.5 -86.5s-29.5 -69.167 -29.5 -102.5s10.5 -60.666 31.5 -81.999s52.167 -32 93.5 -32c38 0 83 9.66699 135 29v-315c-72 -27.333 -139 -41 -201 -41c-100 0 -180 30.667 -240 92s-90 135.333 -90 222
c0 78 26 152.167 78 222.5s129.333 125.5 232 165.5zM701 233.999l173 -0.000976562v1360h605v-1224c0 -52 -7.83301 -98.833 -23.5 -140.5s-35.834 -76.5 -60.501 -104.5s-56.167 -52.333 -94.5 -73s-76.5 -36.667 -114.5 -48s-81.833 -20.333 -131.5 -27
s-94.5 -11 -134.5 -13s-84.667 -3 -134 -3c-46 0 -88 0.833008 -126 2.5s-81.667 5.83398 -131 12.501s-93.166 15.667 -131.499 27s-77 27.333 -116 48s-71.333 45 -97 73s-46.667 63.167 -63 105.5s-24.5 89.5 -24.5 141.5v1224h604v-1361z" />
    <glyph glyph-name="uogonek" unicode="&#x173;" 
d="M1181 74l71 -72.001c-34 -22.667 -60.833 -51.5 -80.5 -86.5s-29.5 -69.167 -29.5 -102.5s10.5 -60.666 31.5 -81.999s52.167 -32 93.5 -32c38 0 83 9.66699 135 29v-315c-72 -27.333 -139 -41 -201 -41c-100 0 -180 30.667 -240 92s-90 135.333 -90 222
c0 78 26 152.167 78 222.5s129.333 125.5 232 165.5zM515 -27.001c-137.333 0 -242.333 32 -315 96s-109 161 -109 291v940h572v-1067h166v1067h572v-1300h-517l-37 112c-26 -42.667 -70 -76.5 -132 -101.5s-128.667 -37.5 -200 -37.5z" />
    <glyph glyph-name="Ydieresis" unicode="&#x178;" horiz-adv-x="1552" 
d="M661 2069v-336h-450v336h450zM1345 2069v-336h-451v336h451zM746 1021l17 -206h29l17 206l159 574h556l-442 -1146v-449h-605v459l-445 1136h560z" />
    <glyph glyph-name="Zacute" unicode="&#x179;" horiz-adv-x="1138" 
d="M205 1842l125 115.502l139.5 129c33 30.333 70.333 62.666 112 97c41.667 34.333 74.167 58.166 97.5 71.499c42.667 24.667 84.334 37 125.001 37c50 0 91.5 -17.5 124.5 -52.5s49.5 -76.833 49.5 -125.5c0 -34.667 -9.66699 -68 -29 -100s-48.333 -59.333 -87 -82
c-24 -14 -61.333 -30 -112 -48s-98.834 -33.833 -144.501 -47.5l-178.5 -51.5c-73.333 -20.667 -127 -36.334 -161 -47.001c-9.33301 -3.33301 -20 -5 -32 -5c-18 0 -33 4.66699 -45 14s-18 21 -18 35c0 20 11.333 40 34 60zM1092 1595l-347 -1301h337v-294h-1026l384 1304
h-372v291h1024z" />
    <glyph glyph-name="zacute" unicode="&#x17a;" horiz-adv-x="1118" 
d="M198 1538l125 115.503l139.5 129c33 30.333 70.333 62.666 112 96.999s74.167 58.166 97.5 71.499c42.667 24.667 84.334 37 125.001 37c50 0 91.5 -17.5 124.5 -52.5s49.5 -76.833 49.5 -125.5c0 -34.667 -9.66699 -68 -29 -100s-48.333 -59.333 -87 -82
c-24 -14 -61.333 -30 -112 -48s-98.834 -33.833 -144.501 -47.5l-178.5 -51.5c-73.333 -20.667 -127 -36.334 -161 -47.001c-9.33301 -3.33301 -20 -5 -32 -5c-18 0 -33 4.66699 -45 14s-18 21 -18 35c0 20 11.333 40 34 60zM100 1300h952v-221l-356 -833h363v-246h-983v233
l360 818h-336v249z" />
    <glyph glyph-name="Zdotaccent" unicode="&#x17b;" horiz-adv-x="1138" 
d="M827 1733h-507v467h507v-467zM1092 1595l-347 -1301h337v-294h-1026l384 1304h-372v291h1024z" />
    <glyph glyph-name="zdotaccent" unicode="&#x17c;" horiz-adv-x="1118" 
d="M821 1429h-507v467h507v-467zM100 1300h952v-221l-356 -833h363v-246h-983v233l360 818h-336v249z" />
    <glyph glyph-name="Zcaron" unicode="&#x17d;" horiz-adv-x="1138" 
d="M432 1805l-263.001 409.002c-12 18.667 -18 36 -18 52c0 18 6.33301 32.833 19 44.5s28.334 17.5 47.001 17.5s36.667 -6.66699 54 -20l303 -235l303 235c18.667 14.667 37.667 22 57 22c18 0 33 -6 45 -18s18 -27 18 -45c0 -16.667 -6 -34.334 -18 -53.001l-263 -409
c-31.333 -48 -78.333 -72 -141 -72c-28.667 0 -56 6.16699 -82 18.5s-46.333 30.166 -61 53.499zM1092 1595l-347 -1301h337v-294h-1026l384 1304h-372v291h1024z" />
    <glyph glyph-name="zcaron" unicode="&#x17e;" horiz-adv-x="1118" 
d="M425 1501l-263.001 409.002c-12 18.667 -18 36 -18 52c0 18 6.33301 32.833 19 44.5s28.334 17.5 47.001 17.5s36.667 -6.66699 54 -20l303 -235l303 235c18.667 14.667 37.667 22 57 22c18 0 33 -6 45 -18s18 -27 18 -45c0 -16.667 -6 -34.334 -18 -53.001l-263 -409
c-31.333 -48 -78.333 -72 -141 -72c-28.667 0 -56 6.16699 -82 18.5s-46.333 30.166 -61 53.499zM99.999 1300h952v-221l-356 -833h363v-246h-983v233l360 818h-336v249z" />
    <glyph glyph-name="uni01C4" unicode="&#x1c4;" horiz-adv-x="2693" 
d="M1987 1805l-263.001 409.002c-12 18.667 -18 36 -18 52c0 18 6.33301 32.833 19 44.5s28.334 17.5 47.001 17.5s36.667 -6.66699 54 -20l303 -235l303 235c18.667 14.667 37.667 22 57 22c18 0 33 -6 45 -18s18 -27 18 -45c0 -16.667 -6 -34.334 -18 -53.001l-263 -409
c-31.333 -48 -78.333 -72 -141 -72c-28.667 0 -56 6.16699 -82 18.5s-46.333 30.166 -61 53.499zM2647 1595l-347 -1301h337v-294h-1026l384 1304h-372v291h1024zM707.999 235.002h173v1123h-173v-1123zM1485 1204l0.00292969 -811c0 -44.667 -4.5 -85.334 -13.5 -122.001
s-22.667 -68.167 -41 -94.5s-38.666 -49.333 -60.999 -69s-49.5 -35.834 -81.5 -48.501s-63.167 -23.167 -93.5 -31.5s-66 -14.333 -107 -18s-78.167 -6.16699 -111.5 -7.5s-72.333 -2 -117 -2h-756v1595h756c50.667 0 95.667 -1 135 -3s81.666 -6.16699 126.999 -12.5
s84.666 -15.166 117.999 -26.499s66.166 -26.833 98.499 -46.5s58.666 -43 78.999 -70s36.833 -60.167 49.5 -99.5s19 -83.666 19 -132.999z" />
    <glyph glyph-name="uni01C5" unicode="&#x1c5;" horiz-adv-x="2673" 
d="M1980 1501l-263.001 409.002c-12 18.667 -18 36 -18 52c0 18 6.33301 32.833 19 44.5s28.334 17.5 47.001 17.5s36.667 -6.66699 54 -20l303 -235l303 235c18.667 14.667 37.667 22 57 22c18 0 33 -6 45 -18s18 -27 18 -45c0 -16.667 -6 -34.334 -18 -53.001l-263 -409
c-31.333 -48 -78.333 -72 -141 -72c-28.667 0 -56 6.16699 -82 18.5s-46.333 30.166 -61 53.499zM1655 1300h952v-221l-356 -833h363v-246h-983v233l360 818h-336v249zM707.999 235.002h173v1123h-173v-1123zM1485 1204l0.00292969 -811
c0 -44.667 -4.5 -85.334 -13.5 -122.001s-22.667 -68.167 -41 -94.5s-38.666 -49.333 -60.999 -69s-49.5 -35.834 -81.5 -48.501s-63.167 -23.167 -93.5 -31.5s-66 -14.333 -107 -18s-78.167 -6.16699 -111.5 -7.5s-72.333 -2 -117 -2h-756v1595h756
c50.667 0 95.667 -1 135 -3s81.666 -6.16699 126.999 -12.5s84.666 -15.166 117.999 -26.499s66.166 -26.833 98.499 -46.5s58.666 -43 78.999 -70s36.833 -60.167 49.5 -99.5s19 -83.666 19 -132.999z" />
    <glyph glyph-name="uni0237" unicode="&#x237;" horiz-adv-x="868" 
d="M784 94c0 -144 -39 -250 -117 -318s-192.667 -102 -344 -102c-109.333 0 -199.333 7 -270 21l-30 239h189v1366h572v-1206z" />
    <glyph glyph-name="circumflex" unicode="&#x2c6;" horiz-adv-x="954" 
d="M72 1527l263.001 409.002c14.667 23.333 35 41.166 61 53.499s53.333 18.5 82 18.5c62.667 0 109.667 -24 141 -72l263 -409c12 -19.333 18 -37 18 -53c0 -18 -6 -33 -18 -45s-27 -18 -45 -18c-19.333 0 -38.333 7.33301 -57 22l-303 235l-303 -235
c-17.333 -13.333 -35.333 -20 -54 -20s-34.334 5.83301 -47.001 17.5s-19 26.5 -19 44.5c0 15.333 6 32.666 18 51.999z" />
    <glyph glyph-name="caron" unicode="&#x2c7;" horiz-adv-x="954" 
d="M335 1483l-263.001 409.002c-12 18.667 -18 36 -18 52c0 18 6.33301 32.833 19 44.5s28.334 17.5 47.001 17.5s36.667 -6.66699 54 -20l303 -235l303 235c18.667 14.667 37.667 22 57 22c18 0 33 -6 45 -18s18 -27 18 -45c0 -16.667 -6 -34.334 -18 -53.001l-263 -409
c-31.333 -48 -78.333 -72 -141 -72c-28.667 0 -56 6.16699 -82 18.5s-46.333 30.166 -61 53.499z" />
    <glyph glyph-name="breve" unicode="&#x2d8;" horiz-adv-x="1062" 
d="M537 1398c-74.667 0 -139.502 7.83301 -194.502 23.5s-99.5 36.834 -133.5 63.501s-61.167 61 -81.5 103s-34.166 85.833 -41.499 131.5s-11 98.834 -11 159.501h297c0 -32 1.33301 -56.833 4 -74.5s9.16699 -35.5 19.5 -53.5s27 -30.833 50 -38.5s53.5 -11.5 91.5 -11.5
s68.5 3.83301 91.5 11.5s39.667 20.5 50 38.5s16.833 35.833 19.5 53.5s4 42.5 4 74.5h297c0 -60.667 -3.66699 -113.834 -11 -159.501s-21.166 -89.5 -41.499 -131.5s-47.5 -76.333 -81.5 -103s-78.5 -47.834 -133.5 -63.501s-119.833 -23.5 -194.5 -23.5z" />
    <glyph glyph-name="dotaccent" unicode="&#x2d9;" horiz-adv-x="670" 
d="M591 0h-507v467h507v-467z" />
    <glyph glyph-name="ring" unicode="&#x2da;" horiz-adv-x="805" 
d="M72 430c0 71.333 18.999 132.67 56.999 184.003s86.667 89 146 113c40 16.667 83.333 25 130 25c72.667 0 135.667 -18.333 189 -55s92.666 -83.667 117.999 -141c17.333 -40 26 -82 26 -126c0 -70.667 -19.167 -131.334 -57.5 -182.001
s-87.166 -88.334 -146.499 -113.001c-39.333 -16.667 -82.333 -25 -129 -25c-72.667 0 -135.667 18.167 -189 54.5s-92.666 83.166 -117.999 140.499c-17.333 40 -26 81.667 -26 125zM402.999 552.004c-34.667 0 -63.5 -11.5 -86.5 -34.5s-34.5 -52.167 -34.5 -87.5
c0 -34 11.667 -62.667 35 -86s52 -35 86 -35c33.333 0 61.833 11.833 85.5 35.5s35.5 52.167 35.5 85.5c0 34.667 -11.667 63.667 -35 87s-52 35 -86 35z" />
    <glyph glyph-name="ogonek" unicode="&#x2db;" horiz-adv-x="693" 
d="M435 72l71 -72.001c-34 -22.667 -60.833 -51.5 -80.5 -86.5s-29.5 -69.167 -29.5 -102.5s10.5 -60.666 31.5 -81.999s52.167 -32 93.5 -32c38 0 83 9.66699 135 29v-315c-72 -27.333 -139 -41 -201 -41c-100 0 -180 30.667 -240 92s-90 135.333 -90 222
c0 78 26 152.167 78 222.5s129.333 125.5 232 165.5z" />
    <glyph glyph-name="tilde" unicode="&#x2dc;" horiz-adv-x="1422" 
d="M1063 96h2.99609c0 46.667 -8.83301 85.667 -26.5 117s-45.5 47 -83.5 47c-13.333 0 -27.166 -3.16699 -41.499 -9.5s-24.5 -11.5 -30.5 -15.5s-16.333 -12 -31 -24c-57.333 -46 -113 -81 -167 -105s-120.667 -36 -200 -36c-114 0 -200 25 -258 75s-98.667 127 -122 231
c-18 62.667 -27 144.334 -27 245.001h296c0 -48.667 8.66699 -88.834 26 -120.501s46 -47.5 86 -47.5c4.66699 0 9.33398 0.333008 14.001 1s9.33398 1.66699 14.001 3l12.5 3.5c3.66699 1 8 3 13 6l11 6.5c2.33301 1.33301 6.33301 3.83301 12 7.5s9.16699 6 10.5 7l11 8
c6 4.33301 9.33301 6.83301 10 7.5c35.333 26 60.666 44 75.999 54s39.5 23.833 72.5 41.5s66.167 30 99.5 37s70 10.5 110 10.5c50.667 0 95.834 -4.16699 135.501 -12.5s73.834 -20 102.501 -35s53 -35 73 -60s36.167 -51.5 48.5 -79.5s22 -62.167 29 -102.5
s11.667 -80.333 14 -120s3.5 -86.5 3.5 -140.5h-296z" />
    <glyph glyph-name="hungarumlaut" unicode="&#x2dd;" horiz-adv-x="873" 
d="M780 1480l125 115.503l139.5 129c33 30.333 70.333 62.666 112 96.999s74.167 58.166 97.5 71.499c42.667 24.667 84.334 37 125.001 37c50 0 91.5 -17.5 124.5 -52.5s49.5 -76.833 49.5 -125.5c0 -34.667 -9.66699 -68 -29 -100s-48.333 -59.333 -87 -82
c-24 -14 -61.333 -30 -112 -48s-98.834 -33.833 -144.501 -47.5l-178.5 -51.5c-73.333 -20.667 -127 -36.334 -161 -47.001c-9.33301 -3.33301 -20 -5 -32 -5c-18 0 -33 4.66699 -45 14s-18 21 -18 35c0 20 11.333 40 34 60zM89 1480l125 115.503l139.5 129
c33 30.333 70.333 62.666 112 96.999s74.167 58.166 97.5 71.499c42.667 24.667 84.334 37 125.001 37c50 0 91.5 -17.5 124.5 -52.5s49.5 -76.833 49.5 -125.5c0 -34.667 -9.66699 -68 -29 -100s-48.333 -59.333 -87 -82c-24 -14 -61.333 -30 -112 -48
s-98.834 -33.833 -144.501 -47.5l-178.5 -51.5c-73.333 -20.667 -127 -36.334 -161 -47.001c-9.33301 -3.33301 -20 -5 -32 -5c-18 0 -33 4.66699 -45 14s-18 21 -18 35c0 20 11.333 40 34 60z" />
    <glyph glyph-name="uni030F" unicode="&#x30f;" horiz-adv-x="226" 
 />
    <glyph glyph-name="uni0311" unicode="&#x311;" horiz-adv-x="226" 
 />
    <glyph glyph-name="uni0326" unicode="&#x326;" horiz-adv-x="226" 
 />
    <glyph glyph-name="endash" unicode="&#x2013;" horiz-adv-x="1005" 
d="M920 897v-436h-833v436h833z" />
    <glyph glyph-name="emdash" unicode="&#x2014;" horiz-adv-x="1857" 
d="M1772 897v-436h-1685v436h1685z" />
    <glyph glyph-name="quoteleft" unicode="&#x2018;" horiz-adv-x="722" 
d="M569 1187c0 -62.667 -19.168 -111.667 -57.501 -147s-83.833 -53 -136.5 -53c-72 0 -126.667 22.667 -164 68s-56 102.666 -56 171.999c0 46.667 7.83301 93.5 23.5 140.5s37.834 90.167 66.501 129.5s65.5 71.333 110.5 96s93.833 37 146.5 37
c14.667 0 29.334 -1 44.001 -3v-109c-42 -0.666992 -77.833 -11.834 -107.5 -33.501s-45.834 -51.167 -48.501 -88.5c50 -5.33301 92.333 -26.166 127 -62.499s52 -85.166 52 -146.499z" />
    <glyph glyph-name="quoteright" unicode="&#x2019;" horiz-adv-x="706" 
d="M154 1430c0 62.667 20.167 111.667 60.5 147s88.166 53 143.499 53c68.667 0 120.834 -22.667 156.501 -68s53.5 -102.666 53.5 -171.999c0 -46.667 -7.83301 -93.5 -23.5 -140.5s-37.834 -90.167 -66.501 -129.5s-65.5 -71.333 -110.5 -96s-93.833 -37 -146.5 -37
c-14 0 -28.667 1 -44 3v109c42 0.666992 77.833 11.834 107.5 33.501s45.834 51.167 48.501 88.5c-50 5.33301 -92.333 26.166 -127 62.499s-52 85.166 -52 146.499z" />
    <glyph glyph-name="quotesinglbase" unicode="&#x201a;" horiz-adv-x="648" 
d="M253 -350c-10.667 45.333 -28.168 111.167 -52.501 197.5s-43.833 160.333 -58.5 222s-22 107.834 -22 138.501c0 56 18.333 99.167 55 129.5s80.334 45.5 131.001 45.5c52 0 97.5 -15.833 136.5 -47.5s58.5 -74.834 58.5 -129.501c0 -32 -7.83301 -79 -23.5 -141
s-36 -135.333 -61 -220s-42.833 -149.667 -53.5 -195c-4 -18.667 -11.167 -33.167 -21.5 -43.5s-21.5 -15.5 -33.5 -15.5c-11.333 0 -22 5 -32 15s-17.667 24.667 -23 44z" />
    <glyph glyph-name="quotedblleft" unicode="&#x201c;" horiz-adv-x="1339" 
d="M1171 1187c0 -62.667 -20.168 -111.667 -60.501 -147s-88.166 -53 -143.499 -53c-68.667 0 -120.834 22.667 -156.501 68s-53.5 102.666 -53.5 171.999c0 46.667 7.83301 93.5 23.5 140.5s37.834 90.167 66.501 129.5s65.5 71.333 110.5 96s93.833 37 146.5 37
c14.667 0 29.334 -1 44.001 -3v-109c-42 -0.666992 -77.833 -11.834 -107.5 -33.501s-45.834 -51.167 -48.501 -88.5c50 -5.33301 92.333 -26.166 127 -62.499s52 -85.166 52 -146.499zM667.999 1187c0 -62.667 -20.167 -111.667 -60.5 -147s-88.166 -53 -143.499 -53
c-68.667 0 -120.834 22.667 -156.501 68s-53.5 102.666 -53.5 171.999c0 46.667 7.83301 93.5 23.5 140.5s37.834 90.167 66.501 129.5s65.5 71.333 110.5 96s93.833 37 146.5 37c14 0 28.667 -1 44 -3v-109c-42 -0.666992 -77.833 -11.834 -107.5 -33.501
s-45.834 -51.167 -48.501 -88.5c50 -5.33301 92.333 -26.166 127 -62.499s52 -85.166 52 -146.499z" />
    <glyph glyph-name="quotedblright" unicode="&#x201d;" horiz-adv-x="1327" 
d="M254 1430c0 62.667 20.167 111.667 60.5 147s88.166 53 143.499 53c68.667 0 120.834 -22.667 156.501 -68s53.5 -102.666 53.5 -171.999c0 -46.667 -7.83301 -93.5 -23.5 -140.5s-37.834 -90.167 -66.501 -129.5s-65.5 -71.333 -110.5 -96s-93.833 -37 -146.5 -37
c-14 0 -28.667 1 -44 3v109c42 0.666992 77.833 11.834 107.5 33.501s45.834 51.167 48.501 88.5c-50 5.33301 -92.333 26.166 -127 62.499s-52 85.166 -52 146.499zM757 1430c0 62.667 20.168 111.667 60.501 147s88.166 53 143.499 53
c68.667 0 120.834 -22.667 156.501 -68s53.5 -102.666 53.5 -171.999c0 -46.667 -7.83301 -93.5 -23.5 -140.5s-37.834 -90.167 -66.501 -129.5s-65.5 -71.333 -110.5 -96s-93.833 -37 -146.5 -37c-14.667 0 -29.334 1 -44.001 3v109
c42 0.666992 77.833 11.834 107.5 33.501s45.834 51.167 48.501 88.5c-50 5.33301 -92.333 26.166 -127 62.499s-52 85.166 -52 146.499z" />
    </font>
</defs>
</svg>
